<mxfile host="app.diagrams.net" modified="2024-06-13T15:18:02.898Z" agent="Mozilla/5.0 (Windows NT 10.0; Win64; x64) AppleWebKit/537.36 (KHTML, like Gecko) Chrome/125.0.0.0 Safari/537.36 Edg/125.0.0.0" etag="79mVw3t7EHN67T5w_XuF" version="24.5.3" type="device">
  <diagram name="Page-1" id="Spohijg_382zHRUK5PmB">
    <mxGraphModel dx="3960" dy="2146" grid="1" gridSize="10" guides="1" tooltips="1" connect="1" arrows="1" fold="1" page="1" pageScale="1" pageWidth="1654" pageHeight="1169" math="0" shadow="0">
      <root>
        <mxCell id="0" />
        <mxCell id="1" parent="0" />
        <mxCell id="5PwwvBwdqip06TG52Kvb-74" value="" style="rounded=1;whiteSpace=wrap;html=1;fillColor=#bac8d3;strokeColor=#23445d;" parent="1" vertex="1">
          <mxGeometry x="701.72" y="140" width="908.28" height="270" as="geometry" />
        </mxCell>
        <mxCell id="Zw8y3-ZA4qQ1Qa-vi2h5-1" value="&lt;b&gt;&lt;font style=&quot;font-size: 14px;&quot;&gt;Transformer - Encoder (Vanilla/BERT/BERT-Tiny)&lt;/font&gt;&lt;/b&gt;" style="text;html=1;align=center;verticalAlign=middle;whiteSpace=wrap;rounded=0;" parent="1" vertex="1">
          <mxGeometry x="1240.8600000000001" y="40" width="445.64" height="30" as="geometry" />
        </mxCell>
        <mxCell id="Zw8y3-ZA4qQ1Qa-vi2h5-3" value="&lt;font style=&quot;font-size: 8px;&quot;&gt;Time&lt;/font&gt;" style="text;html=1;align=center;verticalAlign=middle;whiteSpace=wrap;rounded=0;" parent="1" vertex="1">
          <mxGeometry y="175" width="40" height="20" as="geometry" />
        </mxCell>
        <mxCell id="Zw8y3-ZA4qQ1Qa-vi2h5-4" value="&lt;span style=&quot;font-size: 8px;&quot;&gt;0 0 0 1 0 0 . . . . . . . . . . . . .0 0 0&lt;/span&gt;" style="rounded=0;whiteSpace=wrap;html=1;fillColor=none;" parent="1" vertex="1">
          <mxGeometry x="38" y="180" width="120" height="10" as="geometry" />
        </mxCell>
        <mxCell id="Zw8y3-ZA4qQ1Qa-vi2h5-5" value="&lt;font style=&quot;font-size: 8px;&quot;&gt;Flies&lt;/font&gt;" style="text;html=1;align=center;verticalAlign=middle;whiteSpace=wrap;rounded=0;" parent="1" vertex="1">
          <mxGeometry y="195" width="40" height="20" as="geometry" />
        </mxCell>
        <mxCell id="Zw8y3-ZA4qQ1Qa-vi2h5-6" value="&lt;font style=&quot;font-size: 8px;&quot;&gt;Like&lt;/font&gt;" style="text;html=1;align=center;verticalAlign=middle;whiteSpace=wrap;rounded=0;" parent="1" vertex="1">
          <mxGeometry y="215" width="40" height="20" as="geometry" />
        </mxCell>
        <mxCell id="Zw8y3-ZA4qQ1Qa-vi2h5-7" value="&lt;font style=&quot;font-size: 8px;&quot;&gt;An&lt;/font&gt;" style="text;html=1;align=center;verticalAlign=middle;whiteSpace=wrap;rounded=0;" parent="1" vertex="1">
          <mxGeometry y="235" width="40" height="20" as="geometry" />
        </mxCell>
        <mxCell id="Zw8y3-ZA4qQ1Qa-vi2h5-8" value="&lt;font style=&quot;font-size: 8px;&quot;&gt;Arrow&lt;/font&gt;" style="text;html=1;align=center;verticalAlign=middle;whiteSpace=wrap;rounded=0;" parent="1" vertex="1">
          <mxGeometry y="255" width="40" height="20" as="geometry" />
        </mxCell>
        <mxCell id="Zw8y3-ZA4qQ1Qa-vi2h5-9" value="&lt;font style=&quot;font-size: 8px;&quot;&gt;&amp;lt;PAD&amp;gt;&lt;/font&gt;" style="text;html=1;align=center;verticalAlign=middle;whiteSpace=wrap;rounded=0;" parent="1" vertex="1">
          <mxGeometry y="275" width="40" height="20" as="geometry" />
        </mxCell>
        <mxCell id="Zw8y3-ZA4qQ1Qa-vi2h5-10" value="&lt;font style=&quot;font-size: 8px;&quot;&gt;&amp;lt;PAD&amp;gt;&lt;/font&gt;" style="text;html=1;align=center;verticalAlign=middle;whiteSpace=wrap;rounded=0;" parent="1" vertex="1">
          <mxGeometry y="295" width="40" height="20" as="geometry" />
        </mxCell>
        <mxCell id="Zw8y3-ZA4qQ1Qa-vi2h5-11" value="&lt;font style=&quot;font-size: 8px;&quot;&gt;&amp;lt;PAD&amp;gt;&lt;/font&gt;" style="text;html=1;align=center;verticalAlign=middle;whiteSpace=wrap;rounded=0;" parent="1" vertex="1">
          <mxGeometry y="315" width="40" height="20" as="geometry" />
        </mxCell>
        <mxCell id="Zw8y3-ZA4qQ1Qa-vi2h5-12" value="" style="endArrow=none;dashed=1;html=1;dashPattern=1 3;strokeWidth=2;rounded=0;entryX=0.5;entryY=1;entryDx=0;entryDy=0;exitX=0.5;exitY=0;exitDx=0;exitDy=0;" parent="1" source="Zw8y3-ZA4qQ1Qa-vi2h5-13" target="Zw8y3-ZA4qQ1Qa-vi2h5-11" edge="1">
          <mxGeometry width="50" height="50" relative="1" as="geometry">
            <mxPoint x="18" y="375" as="sourcePoint" />
            <mxPoint x="28" y="355" as="targetPoint" />
          </mxGeometry>
        </mxCell>
        <mxCell id="Zw8y3-ZA4qQ1Qa-vi2h5-13" value="&lt;font style=&quot;font-size: 8px;&quot;&gt;&amp;lt;PAD&amp;gt;&lt;/font&gt;" style="text;html=1;align=center;verticalAlign=middle;whiteSpace=wrap;rounded=0;" parent="1" vertex="1">
          <mxGeometry y="375" width="40" height="20" as="geometry" />
        </mxCell>
        <mxCell id="Zw8y3-ZA4qQ1Qa-vi2h5-14" value="&lt;span style=&quot;font-size: 8px;&quot;&gt;0 0 0 0 0 1 . . . . . . . . . . . . .0 0 0&lt;/span&gt;" style="rounded=0;whiteSpace=wrap;html=1;fillColor=none;" parent="1" vertex="1">
          <mxGeometry x="38" y="200" width="120" height="10" as="geometry" />
        </mxCell>
        <mxCell id="Zw8y3-ZA4qQ1Qa-vi2h5-15" value="&lt;span style=&quot;font-size: 8px;&quot;&gt;0 0 0 0 0 0 . . . . . . . . . . . . .1 0 0&lt;/span&gt;" style="rounded=0;whiteSpace=wrap;html=1;fillColor=none;" parent="1" vertex="1">
          <mxGeometry x="38" y="220" width="120" height="10" as="geometry" />
        </mxCell>
        <mxCell id="Zw8y3-ZA4qQ1Qa-vi2h5-16" value="&lt;span style=&quot;font-size: 8px;&quot;&gt;0 0 0 0 0 0 . . . . . . . . . . . .1 0 0 0&lt;/span&gt;" style="rounded=0;whiteSpace=wrap;html=1;fillColor=none;" parent="1" vertex="1">
          <mxGeometry x="38" y="240" width="120" height="10" as="geometry" />
        </mxCell>
        <mxCell id="Zw8y3-ZA4qQ1Qa-vi2h5-17" value="&lt;span style=&quot;font-size: 8px;&quot;&gt;0 0 1 0 0 0 . . . . . . . . . . . . .0 0 0&lt;/span&gt;" style="rounded=0;whiteSpace=wrap;html=1;fillColor=none;" parent="1" vertex="1">
          <mxGeometry x="38" y="260" width="120" height="10" as="geometry" />
        </mxCell>
        <mxCell id="Zw8y3-ZA4qQ1Qa-vi2h5-18" value="&lt;span style=&quot;font-size: 8px;&quot;&gt;0 0 0 0 0 0 . . . . . . . . . . . . .0 0 1&lt;/span&gt;" style="rounded=0;whiteSpace=wrap;html=1;fillColor=none;" parent="1" vertex="1">
          <mxGeometry x="38" y="280" width="122" height="10" as="geometry" />
        </mxCell>
        <mxCell id="Zw8y3-ZA4qQ1Qa-vi2h5-19" value="&lt;span style=&quot;font-size: 8px;&quot;&gt;0 0 0 0 0 0 . . . . . . . . . . . . .0 0 1&lt;/span&gt;" style="rounded=0;whiteSpace=wrap;html=1;fillColor=none;" parent="1" vertex="1">
          <mxGeometry x="38" y="300" width="120" height="10" as="geometry" />
        </mxCell>
        <mxCell id="Zw8y3-ZA4qQ1Qa-vi2h5-20" value="&lt;span style=&quot;font-size: 8px;&quot;&gt;0 0 0 0 0 0 . . . . . . . . . . . . .0 0 1&lt;/span&gt;" style="rounded=0;whiteSpace=wrap;html=1;fillColor=none;" parent="1" vertex="1">
          <mxGeometry x="38" y="320" width="120" height="10" as="geometry" />
        </mxCell>
        <mxCell id="Zw8y3-ZA4qQ1Qa-vi2h5-21" value="&lt;span style=&quot;font-size: 8px;&quot;&gt;0 0 0 0 0 0 . . . . . . . . . . . . .0 0 1&lt;/span&gt;" style="rounded=0;whiteSpace=wrap;html=1;fillColor=none;" parent="1" vertex="1">
          <mxGeometry x="38" y="380" width="120" height="10" as="geometry" />
        </mxCell>
        <mxCell id="Zw8y3-ZA4qQ1Qa-vi2h5-22" value="" style="endArrow=none;dashed=1;html=1;rounded=0;strokeWidth=3;" parent="1" edge="1">
          <mxGeometry width="50" height="50" relative="1" as="geometry">
            <mxPoint x="165" y="420" as="sourcePoint" />
            <mxPoint x="165" y="150" as="targetPoint" />
          </mxGeometry>
        </mxCell>
        <mxCell id="Zw8y3-ZA4qQ1Qa-vi2h5-23" value="" style="shape=curlyBracket;whiteSpace=wrap;html=1;rounded=1;labelPosition=left;verticalLabelPosition=middle;align=right;verticalAlign=middle;rotation=90;" parent="1" vertex="1">
          <mxGeometry x="88" y="100" width="20" height="120" as="geometry" />
        </mxCell>
        <mxCell id="Zw8y3-ZA4qQ1Qa-vi2h5-24" value="&lt;font style=&quot;font-size: 10px;&quot;&gt;One-hot encoding&lt;/font&gt;" style="text;html=1;align=center;verticalAlign=middle;whiteSpace=wrap;rounded=0;" parent="1" vertex="1">
          <mxGeometry x="48" y="130" width="100" height="30" as="geometry" />
        </mxCell>
        <mxCell id="Zw8y3-ZA4qQ1Qa-vi2h5-25" value="&lt;font style=&quot;font-size: 10px;&quot;&gt;MAX_SEQ_LENGTH&lt;/font&gt;&lt;div&gt;&lt;font style=&quot;font-size: 10px;&quot;&gt;x&lt;/font&gt;&lt;/div&gt;&lt;div&gt;&lt;font style=&quot;font-size: 10px;&quot;&gt;VOCAB_SIZE&lt;/font&gt;&lt;/div&gt;" style="text;html=1;align=center;verticalAlign=middle;whiteSpace=wrap;rounded=0;" parent="1" vertex="1">
          <mxGeometry x="38" y="400" width="120" height="70" as="geometry" />
        </mxCell>
        <mxCell id="5PwwvBwdqip06TG52Kvb-1" value="Embedding Transform" style="shape=trapezoid;perimeter=trapezoidPerimeter;whiteSpace=wrap;html=1;fixedSize=1;rotation=90;fillColor=#d5e8d4;strokeColor=#82b366;horizontal=1;verticalAlign=middle;" parent="1" vertex="1">
          <mxGeometry x="89.88" y="258.13" width="225" height="48.75" as="geometry" />
        </mxCell>
        <mxCell id="5PwwvBwdqip06TG52Kvb-2" value="" style="endArrow=none;dashed=1;html=1;rounded=0;strokeWidth=3;" parent="1" edge="1">
          <mxGeometry width="50" height="50" relative="1" as="geometry">
            <mxPoint x="234" y="420" as="sourcePoint" />
            <mxPoint x="234" y="150" as="targetPoint" />
          </mxGeometry>
        </mxCell>
        <mxCell id="5PwwvBwdqip06TG52Kvb-3" value="" style="rounded=0;whiteSpace=wrap;html=1;fillColor=none;" parent="1" vertex="1">
          <mxGeometry x="252" y="179" width="120" height="10" as="geometry" />
        </mxCell>
        <mxCell id="5PwwvBwdqip06TG52Kvb-4" value="" style="rounded=0;whiteSpace=wrap;html=1;fillColor=none;" parent="1" vertex="1">
          <mxGeometry x="252" y="200" width="120" height="10" as="geometry" />
        </mxCell>
        <mxCell id="5PwwvBwdqip06TG52Kvb-5" value="" style="rounded=0;whiteSpace=wrap;html=1;fillColor=none;" parent="1" vertex="1">
          <mxGeometry x="252" y="220" width="120" height="10" as="geometry" />
        </mxCell>
        <mxCell id="5PwwvBwdqip06TG52Kvb-6" value="" style="rounded=0;whiteSpace=wrap;html=1;fillColor=none;" parent="1" vertex="1">
          <mxGeometry x="252" y="240" width="120" height="10" as="geometry" />
        </mxCell>
        <mxCell id="5PwwvBwdqip06TG52Kvb-7" value="" style="rounded=0;whiteSpace=wrap;html=1;fillColor=none;" parent="1" vertex="1">
          <mxGeometry x="252" y="260" width="120" height="10" as="geometry" />
        </mxCell>
        <mxCell id="5PwwvBwdqip06TG52Kvb-8" value="" style="rounded=0;whiteSpace=wrap;html=1;fillColor=none;" parent="1" vertex="1">
          <mxGeometry x="252" y="280" width="120" height="10" as="geometry" />
        </mxCell>
        <mxCell id="5PwwvBwdqip06TG52Kvb-9" value="" style="rounded=0;whiteSpace=wrap;html=1;fillColor=none;" parent="1" vertex="1">
          <mxGeometry x="252" y="300" width="120" height="10" as="geometry" />
        </mxCell>
        <mxCell id="5PwwvBwdqip06TG52Kvb-10" value="" style="rounded=0;whiteSpace=wrap;html=1;fillColor=none;" parent="1" vertex="1">
          <mxGeometry x="252" y="320" width="120" height="10" as="geometry" />
        </mxCell>
        <mxCell id="5PwwvBwdqip06TG52Kvb-11" value="" style="rounded=0;whiteSpace=wrap;html=1;fillColor=none;" parent="1" vertex="1">
          <mxGeometry x="252" y="380" width="120" height="10" as="geometry" />
        </mxCell>
        <mxCell id="5PwwvBwdqip06TG52Kvb-12" value="&lt;font style=&quot;font-size: 10px;&quot;&gt;MAX_SEQ_LENGTH&lt;/font&gt;&lt;div&gt;&lt;font style=&quot;font-size: 10px;&quot;&gt;x&lt;/font&gt;&lt;/div&gt;&lt;div&gt;&lt;font style=&quot;font-size: 10px;&quot;&gt;WORD_EMBEDDINGS&lt;/font&gt;&lt;/div&gt;&lt;div&gt;&lt;span style=&quot;font-size: 10px;&quot;&gt;512 -&amp;gt; Vanilla&lt;/span&gt;&lt;/div&gt;&lt;div&gt;&lt;span style=&quot;font-size: 10px;&quot;&gt;128 -&amp;gt; BERT-Tiny&lt;/span&gt;&lt;/div&gt;&lt;div&gt;&lt;span style=&quot;font-size: 10px;&quot;&gt;768 -&amp;gt; BERT&lt;/span&gt;&lt;/div&gt;" style="text;html=1;align=center;verticalAlign=middle;whiteSpace=wrap;rounded=0;" parent="1" vertex="1">
          <mxGeometry x="252" y="402.5" width="120" height="110" as="geometry" />
        </mxCell>
        <mxCell id="5PwwvBwdqip06TG52Kvb-15" value="" style="shape=curlyBracket;whiteSpace=wrap;html=1;rounded=1;labelPosition=left;verticalLabelPosition=middle;align=right;verticalAlign=middle;rotation=90;" parent="1" vertex="1">
          <mxGeometry x="302" y="100" width="20" height="120" as="geometry" />
        </mxCell>
        <mxCell id="5PwwvBwdqip06TG52Kvb-16" value="&lt;font style=&quot;font-size: 10px;&quot;&gt;Word Embeddings&lt;/font&gt;" style="text;html=1;align=center;verticalAlign=middle;whiteSpace=wrap;rounded=0;" parent="1" vertex="1">
          <mxGeometry x="262" y="130" width="100" height="30" as="geometry" />
        </mxCell>
        <mxCell id="5PwwvBwdqip06TG52Kvb-17" value="" style="endArrow=none;dashed=1;html=1;rounded=0;strokeWidth=3;" parent="1" edge="1">
          <mxGeometry width="50" height="50" relative="1" as="geometry">
            <mxPoint x="547" y="417.5" as="sourcePoint" />
            <mxPoint x="547" y="147.5" as="targetPoint" />
          </mxGeometry>
        </mxCell>
        <mxCell id="5PwwvBwdqip06TG52Kvb-18" value="" style="rounded=0;whiteSpace=wrap;html=1;fillColor=#fff2cc;strokeColor=#d6b656;" parent="1" vertex="1">
          <mxGeometry x="412" y="179" width="120" height="10" as="geometry" />
        </mxCell>
        <mxCell id="5PwwvBwdqip06TG52Kvb-19" value="" style="rounded=0;whiteSpace=wrap;html=1;fillColor=#fff2cc;strokeColor=#d6b656;" parent="1" vertex="1">
          <mxGeometry x="412" y="200" width="120" height="10" as="geometry" />
        </mxCell>
        <mxCell id="5PwwvBwdqip06TG52Kvb-20" value="" style="rounded=0;whiteSpace=wrap;html=1;fillColor=#fff2cc;strokeColor=#d6b656;" parent="1" vertex="1">
          <mxGeometry x="412" y="220" width="120" height="10" as="geometry" />
        </mxCell>
        <mxCell id="5PwwvBwdqip06TG52Kvb-21" value="" style="rounded=0;whiteSpace=wrap;html=1;fillColor=#fff2cc;strokeColor=#d6b656;" parent="1" vertex="1">
          <mxGeometry x="412" y="240" width="120" height="10" as="geometry" />
        </mxCell>
        <mxCell id="5PwwvBwdqip06TG52Kvb-22" value="" style="rounded=0;whiteSpace=wrap;html=1;fillColor=#fff2cc;strokeColor=#d6b656;" parent="1" vertex="1">
          <mxGeometry x="412" y="260" width="120" height="10" as="geometry" />
        </mxCell>
        <mxCell id="5PwwvBwdqip06TG52Kvb-23" value="" style="rounded=0;whiteSpace=wrap;html=1;fillColor=#fff2cc;strokeColor=#d6b656;" parent="1" vertex="1">
          <mxGeometry x="412" y="280" width="120" height="10" as="geometry" />
        </mxCell>
        <mxCell id="5PwwvBwdqip06TG52Kvb-24" value="" style="rounded=0;whiteSpace=wrap;html=1;fillColor=#fff2cc;strokeColor=#d6b656;" parent="1" vertex="1">
          <mxGeometry x="412" y="300" width="120" height="10" as="geometry" />
        </mxCell>
        <mxCell id="5PwwvBwdqip06TG52Kvb-25" value="" style="rounded=0;whiteSpace=wrap;html=1;fillColor=#fff2cc;strokeColor=#d6b656;" parent="1" vertex="1">
          <mxGeometry x="412" y="320" width="120" height="10" as="geometry" />
        </mxCell>
        <mxCell id="5PwwvBwdqip06TG52Kvb-26" value="" style="rounded=0;whiteSpace=wrap;html=1;fillColor=#fff2cc;strokeColor=#d6b656;" parent="1" vertex="1">
          <mxGeometry x="412" y="380" width="120" height="10" as="geometry" />
        </mxCell>
        <mxCell id="5PwwvBwdqip06TG52Kvb-27" value="" style="shape=curlyBracket;whiteSpace=wrap;html=1;rounded=1;labelPosition=left;verticalLabelPosition=middle;align=right;verticalAlign=middle;rotation=90;" parent="1" vertex="1">
          <mxGeometry x="462" y="100" width="20" height="120" as="geometry" />
        </mxCell>
        <mxCell id="5PwwvBwdqip06TG52Kvb-28" value="&lt;font style=&quot;font-size: 10px;&quot;&gt;Positional Encoding&lt;/font&gt;" style="text;html=1;align=center;verticalAlign=middle;whiteSpace=wrap;rounded=0;" parent="1" vertex="1">
          <mxGeometry x="422" y="130" width="100" height="30" as="geometry" />
        </mxCell>
        <mxCell id="5PwwvBwdqip06TG52Kvb-29" value="" style="endArrow=none;dashed=1;html=1;dashPattern=1 3;strokeWidth=2;rounded=0;entryX=0.5;entryY=1;entryDx=0;entryDy=0;exitX=0.5;exitY=0;exitDx=0;exitDy=0;" parent="1" edge="1">
          <mxGeometry width="50" height="50" relative="1" as="geometry">
            <mxPoint x="97.80000000000001" y="375" as="sourcePoint" />
            <mxPoint x="97.80000000000001" y="335" as="targetPoint" />
          </mxGeometry>
        </mxCell>
        <mxCell id="5PwwvBwdqip06TG52Kvb-30" value="" style="endArrow=none;dashed=1;html=1;dashPattern=1 3;strokeWidth=2;rounded=0;entryX=0.5;entryY=1;entryDx=0;entryDy=0;exitX=0.5;exitY=0;exitDx=0;exitDy=0;" parent="1" edge="1">
          <mxGeometry width="50" height="50" relative="1" as="geometry">
            <mxPoint x="322" y="375" as="sourcePoint" />
            <mxPoint x="322" y="335" as="targetPoint" />
          </mxGeometry>
        </mxCell>
        <mxCell id="5PwwvBwdqip06TG52Kvb-31" value="" style="endArrow=none;dashed=1;html=1;dashPattern=1 3;strokeWidth=2;rounded=0;entryX=0.5;entryY=1;entryDx=0;entryDy=0;exitX=0.5;exitY=0;exitDx=0;exitDy=0;" parent="1" edge="1">
          <mxGeometry width="50" height="50" relative="1" as="geometry">
            <mxPoint x="482" y="375" as="sourcePoint" />
            <mxPoint x="482" y="335" as="targetPoint" />
          </mxGeometry>
        </mxCell>
        <mxCell id="5PwwvBwdqip06TG52Kvb-32" value="" style="endArrow=none;html=1;rounded=0;" parent="1" edge="1">
          <mxGeometry width="50" height="50" relative="1" as="geometry">
            <mxPoint x="385" y="270" as="sourcePoint" />
            <mxPoint x="405" y="270" as="targetPoint" />
          </mxGeometry>
        </mxCell>
        <mxCell id="5PwwvBwdqip06TG52Kvb-33" value="" style="endArrow=none;html=1;rounded=0;" parent="1" edge="1">
          <mxGeometry width="50" height="50" relative="1" as="geometry">
            <mxPoint x="395" y="280" as="sourcePoint" />
            <mxPoint x="395" y="260" as="targetPoint" />
          </mxGeometry>
        </mxCell>
        <mxCell id="hMHybNNGIAyjDT_4vl0r-25" style="edgeStyle=orthogonalEdgeStyle;rounded=0;orthogonalLoop=1;jettySize=auto;html=1;entryX=0;entryY=0.5;entryDx=0;entryDy=0;" edge="1" parent="1" source="5PwwvBwdqip06TG52Kvb-34" target="hMHybNNGIAyjDT_4vl0r-20">
          <mxGeometry relative="1" as="geometry" />
        </mxCell>
        <mxCell id="5PwwvBwdqip06TG52Kvb-34" value="" style="rounded=0;whiteSpace=wrap;html=1;fillColor=#d5e8d4;strokeColor=#82b366;" parent="1" vertex="1">
          <mxGeometry x="722" y="159" width="78" height="61" as="geometry" />
        </mxCell>
        <mxCell id="5PwwvBwdqip06TG52Kvb-39" value="" style="shape=image;verticalLabelPosition=bottom;labelBackgroundColor=default;verticalAlign=top;aspect=fixed;imageAspect=0;image=data:image/png,iVBORw0KGgoAAAANSUhEUgAAAVcAAABPCAMAAABoHXZoAAAAAXNSR0IArs4c6QAAAARnQU1BAACxjwv8YQUAAAClUExURQAAAAAAAAAAAAAAAAAAAAAAAAAAAAAAAAAAAAAAAAAAAAAAAAAAAAAAAAAAAAAAAAAAAAAAAAAAAAAAAAAAAAAAAAAAAAAAAAAAAAAAAAAAAAAAAAAAAAAAAAAAAAAAAAAAAAAAAAAAAAAAAAAAAAAAAAAAAAAAAAAAAAAAAAAAAAAAAAAAAAAAAAAAAAAAAAAAAAAAAAAAAAAAAAAAAAAAAAAAAFT+SeEAAAA2dFJOUwAECAoQFRggISgrMDY4PEBHSFBYXWBiaHB3eICHjY+Sl5+nr7K3v8DHzM3P0tff4efu7/T3+Z2X5VAAAAAJcEhZcwAAFxEAABcRAcom8z8AAAagSURBVHhe7ZttW6NGFIaRpclmrc3GFMmamDWmUlsaihTn//+0PufMDDCGEHKFa0X33B90gDGBZ84roCcIgiAIgiAIgiAIgiAIwtsRLMHDyGy1csJU4SrOlcrNRjsnTBU8L1Jqa4bHOGGqALGWZniME6YK90pN9Wj2FOgBs9yYQUU1VWhjOp2OvZ1SPm/5mUoqYZeuhu5U4TAjWB94UCoxey7zSljIGpph01ThELNCpdF0/gi91mZXTVhH1qapQjPTQsUkoQ+x5noXsMI6sjZPHRJwJCY1296oqKJYYg72YhIQpk4Sx+v5xBwj/FRlusLH0TEPGC2sI+uhqQNisuWrvC+vcI0tq+v0iY4VCxvhziKIUMNDTWQaZhPjR1wlopVSEQ9ghOUqEyQsDlayHp46IJBy67GfzLXKuhMS4NpsnE3InxyqbDqdrfLsygvx3bb69AuV6cx++brUh7COrC1TBwQZaOXotFXpSvHr3ow7EqD8YfaNfGx0ZRObZMXECzbW8kh0cxYYLfTIAp9Kax/XNnU44NzUrRlrc610nSobyDrgR5uU/tpQfkiJo6u3UDH+JrGmB+2MYyDJX+qRAeI7dWzL1AFxDQ1KJ1sr8rlSElhvZ3uIKKDUOKarrwr8xMrphI4cqTPQCBHdKfUhazhOa8IemHoR/aXU7lv0PIwKAVdmfZGC7aImCax351xiC7h6kMYl+4bk6uqlZGuINHrlsCpauFtkMx4YSFb8bU3Y5ql+/PLtk/dVqZdfzZ63hXS1yWMBr6zpCnPtmrQoLm/n7YvwStcndpPUfDkCEIs1waBe12lZHWEbp/r/suFf/KH++0XveWOQU62uZK7wLasrzLVrk1hfnIO80jVhS82NvSI0z/ArSBA9IaRNextV0G4wKTuvxql3ujKAvAOpEHC1VhIyV9o0usIGr/ToKCh0j1/OK10LMjAso3YJNCgb37tMt1iiyLsutCFWsuo6liVsmvr5Wbv/5+fj6/tjqHQlc+VNrSvMtevSk80fT8yurlAUq0ZLyZszfES2U49+oFT+hN+0M0gqWUnYnL+kaeqd+vsTHfttMI0tTs7oulBFUNMV5tq1iEECeTLDFlxdQ7XjtbMFByXMnE4ExVNhbS7Qp2K4NOezPxVhVdvAzVDCK/fYfL8Y5gqPKnXFJdfzRysIdA9m2IKj6ziHD48TY5gEOgp2c7+pp3DZm2rdH+FV2+0AsLpGqkAPcGV1XfNmN9Dzl63FYeq6zhIIMc/Vtr2E6Ap0Zfe/GVBji2qFdU3YPimzk64oYjqbK2XoLT1yrrN/n8nqysTzVabSvu49GHtFdB1KeGVRSNdrbZ9W161NKF2o968WNnqHuq4PXoDgaPuRs4H///PF+/q8NGXBEDC6anO1uiLDd+5guQPa47CuqX+dU9wIOaD3wx195cvvA0pbFByhqzFX1hX1zxZXz0ctk3Adx5vb5oyCjn1lbmOV7M+sxdc5fwlizQmL18rFd6X+/GK7g0EQs67GXFnXMZmrE/oCekyXoPrPGsMXPuLEvPXErVyoivojg7NBOLAV2tvDul7bYlXrunU72FmuihAGOMLcff/mJv7EOsssXNKvfdmyYBAgf2yqC2RdcdV1+S4LleuO9sAtg+j0vkCvHJazr5KAuBnKzSwCxraBmqaXYV0fHTMaIbNZmZvvJNPNmlrDeQBHVywdVQOvHONM7oam67YUknRFn1gXDw0tF7gExk2ehvhwXB9HV1PIQd7+PBfhtcNttR8FUhJKAisk6Zo5D7Xg+1XntWo+cerSNs21QoXVVfEWFKVi4KQ6+V3BD/ZLvydd3Q4WJlolJRh3o0FAb9QK7cq6uhpFx8WAUnivsK6l37OuTrmO6FrlFjh8Y5PkI/ASO/MUpuk5DJKU1lXnQFSvpCi2sfcDcgs5qsdEHAfqdgd/rT2cyw8m8KhgYUv2xAqxQPq9jEQfW6uCFgCf31s/OySoYa+04rxlxgySWJWS4Mrmmd0+QfjA78cYXuvqvEfEj6yCqv3l7Q/GCE2nGQJ6r8JJJIioVRbDGvRZF/3MIHBWPSqctkPDKnQAUpZeijDQ/Wa30ArstdTVKbmEs4CWNo+h+u/+upbQDlKVyVsBSqTh3C569ySq4GdVE8ja121oAXpmKoum4QYtwUcsM9+O0ZZr92wlsbVvpmiNGu67CueyGtALDx8J+g8OdLv+/TD/ref9cq9Uvlql9ff7hB7w+V7VToJs7yyWyz6fnQqCIAiCIAiCIAiCIAg/I573P4ZOMaq5RVeVAAAAAElFTkSuQmCC;" parent="1" vertex="1">
          <mxGeometry x="714.86" y="178.75" width="92.28" height="21.25" as="geometry" />
        </mxCell>
        <mxCell id="5PwwvBwdqip06TG52Kvb-51" value="" style="rounded=0;whiteSpace=wrap;html=1;fillColor=#e1d5e7;strokeColor=#000000;" parent="1" vertex="1">
          <mxGeometry x="576" y="210" width="120" height="110" as="geometry" />
        </mxCell>
        <mxCell id="5PwwvBwdqip06TG52Kvb-52" value="&lt;span style=&quot;font-size: 11px;&quot;&gt;&lt;b&gt;X&lt;sup&gt;I&lt;/sup&gt;&lt;/b&gt;&lt;/span&gt;" style="text;html=1;align=center;verticalAlign=middle;whiteSpace=wrap;rounded=0;" parent="1" vertex="1">
          <mxGeometry x="586" y="160" width="100" height="30" as="geometry" />
        </mxCell>
        <mxCell id="5PwwvBwdqip06TG52Kvb-53" value="" style="endArrow=none;html=1;rounded=0;exitX=0.009;exitY=0.124;exitDx=0;exitDy=0;exitPerimeter=0;entryX=1.006;entryY=0.124;entryDx=0;entryDy=0;entryPerimeter=0;fillColor=#e1d5e7;strokeColor=#000000;" parent="1" edge="1">
          <mxGeometry width="50" height="50" relative="1" as="geometry">
            <mxPoint x="576.08" y="223.764" as="sourcePoint" />
            <mxPoint x="695.72" y="223.764" as="targetPoint" />
          </mxGeometry>
        </mxCell>
        <mxCell id="5PwwvBwdqip06TG52Kvb-54" value="" style="endArrow=none;html=1;rounded=0;exitX=0.009;exitY=0.124;exitDx=0;exitDy=0;exitPerimeter=0;entryX=1.006;entryY=0.124;entryDx=0;entryDy=0;entryPerimeter=0;fillColor=#e1d5e7;strokeColor=#000000;" parent="1" edge="1">
          <mxGeometry width="50" height="50" relative="1" as="geometry">
            <mxPoint x="576" y="234.64" as="sourcePoint" />
            <mxPoint x="696" y="234.64" as="targetPoint" />
          </mxGeometry>
        </mxCell>
        <mxCell id="5PwwvBwdqip06TG52Kvb-55" value="" style="endArrow=none;html=1;rounded=0;exitX=0.009;exitY=0.124;exitDx=0;exitDy=0;exitPerimeter=0;entryX=1.006;entryY=0.124;entryDx=0;entryDy=0;entryPerimeter=0;fillColor=#e1d5e7;strokeColor=#000000;" parent="1" edge="1">
          <mxGeometry width="50" height="50" relative="1" as="geometry">
            <mxPoint x="576.08" y="243.824" as="sourcePoint" />
            <mxPoint x="695.72" y="243.824" as="targetPoint" />
          </mxGeometry>
        </mxCell>
        <mxCell id="5PwwvBwdqip06TG52Kvb-56" value="" style="endArrow=none;html=1;rounded=0;exitX=0.009;exitY=0.124;exitDx=0;exitDy=0;exitPerimeter=0;entryX=1.006;entryY=0.124;entryDx=0;entryDy=0;entryPerimeter=0;fillColor=#e1d5e7;strokeColor=#000000;" parent="1" edge="1">
          <mxGeometry width="50" height="50" relative="1" as="geometry">
            <mxPoint x="576" y="254.7" as="sourcePoint" />
            <mxPoint x="696" y="254.7" as="targetPoint" />
          </mxGeometry>
        </mxCell>
        <mxCell id="5PwwvBwdqip06TG52Kvb-57" value="" style="endArrow=none;html=1;rounded=0;exitX=0.009;exitY=0.124;exitDx=0;exitDy=0;exitPerimeter=0;entryX=1.006;entryY=0.124;entryDx=0;entryDy=0;entryPerimeter=0;fillColor=#e1d5e7;strokeColor=#000000;" parent="1" edge="1">
          <mxGeometry width="50" height="50" relative="1" as="geometry">
            <mxPoint x="576.08" y="264.004" as="sourcePoint" />
            <mxPoint x="695.72" y="264.004" as="targetPoint" />
          </mxGeometry>
        </mxCell>
        <mxCell id="5PwwvBwdqip06TG52Kvb-58" value="" style="endArrow=none;html=1;rounded=0;exitX=0.009;exitY=0.124;exitDx=0;exitDy=0;exitPerimeter=0;entryX=1.006;entryY=0.124;entryDx=0;entryDy=0;entryPerimeter=0;fillColor=#e1d5e7;strokeColor=#000000;" parent="1" edge="1">
          <mxGeometry width="50" height="50" relative="1" as="geometry">
            <mxPoint x="576" y="274.88" as="sourcePoint" />
            <mxPoint x="696" y="274.88" as="targetPoint" />
          </mxGeometry>
        </mxCell>
        <mxCell id="5PwwvBwdqip06TG52Kvb-59" value="" style="endArrow=none;html=1;rounded=0;exitX=0.009;exitY=0.124;exitDx=0;exitDy=0;exitPerimeter=0;entryX=1.006;entryY=0.124;entryDx=0;entryDy=0;entryPerimeter=0;fillColor=#e1d5e7;strokeColor=#000000;" parent="1" edge="1">
          <mxGeometry width="50" height="50" relative="1" as="geometry">
            <mxPoint x="576.08" y="284.064" as="sourcePoint" />
            <mxPoint x="695.72" y="284.064" as="targetPoint" />
          </mxGeometry>
        </mxCell>
        <mxCell id="5PwwvBwdqip06TG52Kvb-60" value="" style="endArrow=none;html=1;rounded=0;exitX=0.009;exitY=0.124;exitDx=0;exitDy=0;exitPerimeter=0;entryX=1.006;entryY=0.124;entryDx=0;entryDy=0;entryPerimeter=0;fillColor=#e1d5e7;strokeColor=#000000;" parent="1" edge="1">
          <mxGeometry width="50" height="50" relative="1" as="geometry">
            <mxPoint x="576" y="294.94" as="sourcePoint" />
            <mxPoint x="696" y="294.94" as="targetPoint" />
          </mxGeometry>
        </mxCell>
        <mxCell id="5PwwvBwdqip06TG52Kvb-61" value="" style="endArrow=none;html=1;rounded=0;exitX=0.009;exitY=0.124;exitDx=0;exitDy=0;exitPerimeter=0;entryX=1.006;entryY=0.124;entryDx=0;entryDy=0;entryPerimeter=0;fillColor=#e1d5e7;strokeColor=#000000;" parent="1" edge="1">
          <mxGeometry width="50" height="50" relative="1" as="geometry">
            <mxPoint x="576" y="308.39" as="sourcePoint" />
            <mxPoint x="696" y="308.39" as="targetPoint" />
          </mxGeometry>
        </mxCell>
        <mxCell id="5PwwvBwdqip06TG52Kvb-64" value="" style="endArrow=none;html=1;rounded=0;entryX=0.122;entryY=0.001;entryDx=0;entryDy=0;entryPerimeter=0;exitX=0.121;exitY=1;exitDx=0;exitDy=0;exitPerimeter=0;" parent="1" source="5PwwvBwdqip06TG52Kvb-51" target="5PwwvBwdqip06TG52Kvb-51" edge="1">
          <mxGeometry width="50" height="50" relative="1" as="geometry">
            <mxPoint x="576" y="390" as="sourcePoint" />
            <mxPoint x="626" y="340" as="targetPoint" />
          </mxGeometry>
        </mxCell>
        <mxCell id="5PwwvBwdqip06TG52Kvb-65" value="" style="endArrow=none;html=1;rounded=0;entryX=0.122;entryY=0.001;entryDx=0;entryDy=0;entryPerimeter=0;exitX=0.121;exitY=1;exitDx=0;exitDy=0;exitPerimeter=0;" parent="1" edge="1">
          <mxGeometry width="50" height="50" relative="1" as="geometry">
            <mxPoint x="606" y="320" as="sourcePoint" />
            <mxPoint x="606" y="210" as="targetPoint" />
          </mxGeometry>
        </mxCell>
        <mxCell id="5PwwvBwdqip06TG52Kvb-66" value="" style="endArrow=none;html=1;rounded=0;entryX=0.122;entryY=0.001;entryDx=0;entryDy=0;entryPerimeter=0;exitX=0.121;exitY=1;exitDx=0;exitDy=0;exitPerimeter=0;" parent="1" edge="1">
          <mxGeometry width="50" height="50" relative="1" as="geometry">
            <mxPoint x="623" y="320" as="sourcePoint" />
            <mxPoint x="623" y="210" as="targetPoint" />
          </mxGeometry>
        </mxCell>
        <mxCell id="5PwwvBwdqip06TG52Kvb-67" value="" style="endArrow=none;html=1;rounded=0;entryX=0.122;entryY=0.001;entryDx=0;entryDy=0;entryPerimeter=0;exitX=0.121;exitY=1;exitDx=0;exitDy=0;exitPerimeter=0;" parent="1" edge="1">
          <mxGeometry width="50" height="50" relative="1" as="geometry">
            <mxPoint x="639" y="320" as="sourcePoint" />
            <mxPoint x="639" y="210" as="targetPoint" />
          </mxGeometry>
        </mxCell>
        <mxCell id="5PwwvBwdqip06TG52Kvb-68" value="" style="endArrow=none;dashed=1;html=1;dashPattern=1 3;strokeWidth=2;rounded=0;" parent="1" edge="1">
          <mxGeometry width="50" height="50" relative="1" as="geometry">
            <mxPoint x="646" y="219.57" as="sourcePoint" />
            <mxPoint x="676" y="219.57" as="targetPoint" />
          </mxGeometry>
        </mxCell>
        <mxCell id="5PwwvBwdqip06TG52Kvb-70" value="" style="endArrow=classic;html=1;rounded=0;exitX=1;exitY=0.5;exitDx=0;exitDy=0;entryX=-0.003;entryY=0.465;entryDx=0;entryDy=0;entryPerimeter=0;edgeStyle=orthogonalEdgeStyle;" parent="1" source="5PwwvBwdqip06TG52Kvb-51" target="5PwwvBwdqip06TG52Kvb-34" edge="1">
          <mxGeometry width="50" height="50" relative="1" as="geometry">
            <mxPoint x="736" y="500" as="sourcePoint" />
            <mxPoint x="786" y="450" as="targetPoint" />
          </mxGeometry>
        </mxCell>
        <mxCell id="5PwwvBwdqip06TG52Kvb-71" value="" style="endArrow=classic;html=1;rounded=0;exitX=1;exitY=0.5;exitDx=0;exitDy=0;entryX=0;entryY=0.5;entryDx=0;entryDy=0;edgeStyle=orthogonalEdgeStyle;" parent="1" source="5PwwvBwdqip06TG52Kvb-51" edge="1">
          <mxGeometry width="50" height="50" relative="1" as="geometry">
            <mxPoint x="696" y="430" as="sourcePoint" />
            <mxPoint x="722.3" y="345" as="targetPoint" />
            <Array as="points">
              <mxPoint x="709" y="265" />
              <mxPoint x="709" y="345" />
            </Array>
          </mxGeometry>
        </mxCell>
        <mxCell id="5PwwvBwdqip06TG52Kvb-73" value="" style="endArrow=none;dashed=1;html=1;rounded=0;strokeWidth=1;" parent="1" edge="1">
          <mxGeometry width="50" height="50" relative="1" as="geometry">
            <mxPoint x="811" y="404" as="sourcePoint" />
            <mxPoint x="811" y="144" as="targetPoint" />
          </mxGeometry>
        </mxCell>
        <mxCell id="5PwwvBwdqip06TG52Kvb-75" value="" style="rounded=1;whiteSpace=wrap;html=1;fillColor=#bac8d3;strokeColor=#23445d;" parent="1" vertex="1">
          <mxGeometry x="701.72" y="480" width="958.28" height="280" as="geometry" />
        </mxCell>
        <mxCell id="5PwwvBwdqip06TG52Kvb-76" value="" style="endArrow=classic;startArrow=classic;html=1;rounded=0;" parent="1" edge="1">
          <mxGeometry width="50" height="50" relative="1" as="geometry">
            <mxPoint x="576" y="330" as="sourcePoint" />
            <mxPoint x="696" y="330" as="targetPoint" />
          </mxGeometry>
        </mxCell>
        <mxCell id="5PwwvBwdqip06TG52Kvb-77" value="&lt;i&gt;d&lt;sub&gt;model&lt;/sub&gt;=d&lt;/i&gt;" style="text;html=1;align=center;verticalAlign=middle;whiteSpace=wrap;rounded=0;" parent="1" vertex="1">
          <mxGeometry x="606" y="324" width="60" height="30" as="geometry" />
        </mxCell>
        <mxCell id="5PwwvBwdqip06TG52Kvb-78" value="" style="endArrow=classic;startArrow=classic;html=1;rounded=0;" parent="1" edge="1">
          <mxGeometry width="50" height="50" relative="1" as="geometry">
            <mxPoint x="569" y="320" as="sourcePoint" />
            <mxPoint x="569" y="210" as="targetPoint" />
          </mxGeometry>
        </mxCell>
        <mxCell id="5PwwvBwdqip06TG52Kvb-79" value="N" style="text;html=1;align=center;verticalAlign=middle;whiteSpace=wrap;rounded=0;" parent="1" vertex="1">
          <mxGeometry x="556" y="250" width="10" height="30" as="geometry" />
        </mxCell>
        <mxCell id="5PwwvBwdqip06TG52Kvb-80" value="" style="endArrow=none;html=1;rounded=0;entryX=0.122;entryY=0.001;entryDx=0;entryDy=0;entryPerimeter=0;exitX=0.121;exitY=1;exitDx=0;exitDy=0;exitPerimeter=0;" parent="1" edge="1">
          <mxGeometry width="50" height="50" relative="1" as="geometry">
            <mxPoint x="682" y="320" as="sourcePoint" />
            <mxPoint x="682" y="210" as="targetPoint" />
          </mxGeometry>
        </mxCell>
        <mxCell id="hMHybNNGIAyjDT_4vl0r-26" style="edgeStyle=orthogonalEdgeStyle;rounded=0;orthogonalLoop=1;jettySize=auto;html=1;entryX=0;entryY=0.5;entryDx=0;entryDy=0;" edge="1" parent="1" source="hMHybNNGIAyjDT_4vl0r-1" target="hMHybNNGIAyjDT_4vl0r-21">
          <mxGeometry relative="1" as="geometry" />
        </mxCell>
        <mxCell id="hMHybNNGIAyjDT_4vl0r-1" value="" style="rounded=0;whiteSpace=wrap;html=1;fillColor=#d5e8d4;strokeColor=#82b366;" vertex="1" parent="1">
          <mxGeometry x="723" y="234.5" width="78" height="61" as="geometry" />
        </mxCell>
        <mxCell id="5PwwvBwdqip06TG52Kvb-40" value="" style="shape=image;verticalLabelPosition=bottom;labelBackgroundColor=default;verticalAlign=top;aspect=fixed;imageAspect=0;image=data:image/png,iVBORw0KGgoAAAANSUhEUgAAAVcAAABFCAMAAADJhlUOAAAAAXNSR0IArs4c6QAAAARnQU1BAACxjwv8YQUAAACfUExURQAAAAAAAAAAAAAAAAAAAAAAAAAAAAAAAAAAAAAAAAAAAAAAAAAAAAAAAAAAAAAAAAAAAAAAAAAAAAAAAAAAAAAAAAAAAAAAAAAAAAAAAAAAAAAAAAAAAAAAAAAAAAAAAAAAAAAAAAAAAAAAAAAAAAAAAAAAAAAAAAAAAAAAAAAAAAAAAAAAAAAAAAAAAAAAAAAAAAAAAAAAAAAAAAAAALeTPkQAAAA0dFJOUwAECAoQFRggISgrMDY4PEBHSFBYXWBiaHB4gIeNj5edn6Knr7K3v8fNz9LX3+Hn7u/09/noumrVAAAACXBIWXMAABcRAAAXEQHKJvM/AAAGYUlEQVR4Xu2bcXuaSBCHKaVaz0s9tYnG1NTTButpKaX7/T/b/WZ2ll0UFa8+Decz7x9xIVuQl9nZWUgjRVEURVEURVEURVEURVFekWQGlh3ZOkXznkoU3aW5MblsnKR5T4WYGLOS5hma91TY1kyaZ2jeU4miZ2MG3Bhuu/xpmS2k4Sl7KqcZDAbdaGNMTBvx1uy82FnVYaWncorOvDBgYczG7ujuvFhovZdmTU/lOP3cZJPB4AXC5rLLi61orenZKnC/mbJW6SAM3GDDGGOu9M0hJmSTps/3PfkdA1nrBJ8xfju2u7zYfa2HPdtEb8XXuCyvb44t53WQ0u+KKV3BFUgmKDZhc0tHBQs6fOozZrwzmS3xsd9nVSu2ovVIzzYRZ/hq2zL1x5S1ykvtYMOMZOMKjPnY9/g5GD7l2V003gVlEtRNuIEo3HHDQmJxu73W2p4P+Ko/3slGC6AAfZZ2FE3JZOmVLPvfNSPBNM3URHnXeaWNXlb0ohh1klUUxUiZ9v7292p9iK1ore/5/pv5+lbaLQBX6UOGo9d7HSALNF98x5MFCXCUR/EgvLxX3MM1fqbOEYJZylN0mNqWgHu/C25Tfc/4W6tWCCMokIihS0UK9EZwPdULPMWE74mnxivSYeAVlpHWEXJ25kGmlykIs3zftiwY9pnZeLH1Pd9/b9UUhpgsvSJcKRE4I368NcBWFru0pKJGqHiNdnziwjzy1tpNQcjqRXhamrKQCrzY+p4fzM8/pdkGyKsbP1N4DLzCcRnJ56A0/TI+dxeqXtd84rWkcOQQa+sRVQI3LLYSCMXW9/xE6fXNF3yPVkxfGIfOK4UrVS7iFZuN1zJ0dxqUuVWvGz5xJqd3tnqYLINDWa0VsbU9YZSmMMxeZZi8Kpij3RehcA28Ilwb11gYmk0e11W95jQcMEDsVI9D0OmSDdIn9vStRKc1FFvbE9MWpde/2pINvFcOV58HsPnCjQZQ0Nfl030qXnGqIW1JybHELB9Hve0KsT+JBjlHoteK8MxFbG1Pm14fzN8tqbWS0uvEFAlrtl6RMZuoYpDoqGY6S8XriIZHkrmhfIczZ1vzEieFydf4xL5k47Xi7uU5f6O6njD6410v/fmR2q0AX9JWgxu6wtJrp7jgQTwG5FKaJwm9dmh4dJwWMEW6zOkW42jFk92XVDJRX250Xc9P+OItSa0W53XEA7L0Or9kSYAlvy2WzuC99qZr3MYxco2vIWJZpLnP4xz25FUBlwRtAfeevXK4ll4RrjI+m4AZekWvRkNsKVTFeSU2o6fMZNcq5XlV0KoSFk7Iqw3X0uvc5M3DlY5xAEf9HoFXJBmslhrXx+f4QFVrq5ay4tWGq/OKcG2+gqUa9JBTXuMRT1dIAxcMipM8yKqAftaNlN8PciO8Sriy1zsKV7+C7dpxTb+e2KZPicLGmCd5jFVSlyKdV34sgdOgsr/k9h1HVgUPxozffGlHkk3Zq4Qre+36hyFE/xn7Cpb5iGRsdodTFI4h0/JpvFcU97SYQ/VaeWXwX5EMgCxrzD9/2H2vDHtF+NgaxnpdVVewfrpHYKY1gbhottwKveLWUQ2VXlDNncA9zPr43XxuSUmA2WMBX3J57FWuuQQp2EYV9HPtsM+k+oT/KIFXuXf7p7odEGsLXJ2U3Ox1VQ0iLDittX5+ZL6lFzZN9IRecU6qBqD3IF3fBOTViySvZVIQsAzn1RS0HquLkEz8S7LjhF5hlOZG6L3O1NU2MCshfzqR5HW7tyjF6p8ufZgXR6t4WrIvzyySOPADr2J0EZQet8QMSvy4J6/7K1iswqFjaoqh7KjhCf8sG58xi4MHXilgcaLLVnb/H9hrOe7Z69515ijkk4WxD5OOENOfnoCtvIWpfQ+DBGO94idA9UpnKrdvC4zy4G0Gec2qYddDAKcoXM+sOSdU2wYcuhqirrB/l7GzkT/HgQGOf7X1bHtAuARzOXndm0fQIZ1BxrmXMsn9cs1GLQdeeWA4+LFq4te/wWPWG6GDNac0QYytvWkEBcOI3h7caqH5WmCN1eW3XY3fIioNSJBw8UEBe4vTy6uBSZyrMARsZRWm/BqYbvihS4xy61SlpVwGyiBXFWnAXg/6W037AJ5KsDtuKb8OVZ3yWAAz104zwXWw/8eAF7a26L/Nh0+KoiiKoiiKoijKbyKK/gW6aiL4HaQMRQAAAABJRU5ErkJggg==;" parent="1" vertex="1">
          <mxGeometry x="721.15" y="258.13" width="87.7" height="17.65" as="geometry" />
        </mxCell>
        <mxCell id="hMHybNNGIAyjDT_4vl0r-2" value="" style="rounded=0;whiteSpace=wrap;html=1;fillColor=#d5e8d4;strokeColor=#82b366;" vertex="1" parent="1">
          <mxGeometry x="723.17" y="315" width="78" height="61" as="geometry" />
        </mxCell>
        <mxCell id="5PwwvBwdqip06TG52Kvb-41" value="" style="shape=image;verticalLabelPosition=bottom;labelBackgroundColor=default;verticalAlign=top;aspect=fixed;imageAspect=0;image=data:image/png,iVBORw0KGgoAAAANSUhEUgAAAVYAAABFCAMAAAAmRD4wAAAAAXNSR0IArs4c6QAAAARnQU1BAACxjwv8YQUAAAClUExURQAAAAAAAAAAAAAAAAAAAAAAAAAAAAAAAAAAAAAAAAAAAAAAAAAAAAAAAAAAAAAAAAAAAAAAAAAAAAAAAAAAAAAAAAAAAAAAAAAAAAAAAAAAAAAAAAAAAAAAAAAAAAAAAAAAAAAAAAAAAAAAAAAAAAAAAAAAAAAAAAAAAAAAAAAAAAAAAAAAAAAAAAAAAAAAAAAAAAAAAAAAAAAAAAAAAAAAAAAAAFT+SeEAAAA2dFJOUwAECAoQFRgZHSAhKDA2ODxAQkhQWF1gYmhwd3iAhoeNj5KXn6evsre/x83P0tff4efu7/T3+RPTncQAAAAJcEhZcwAAFxEAABcRAcom8z8AAAY1SURBVHhe7ZrhduI2EEYVL6WloVk3pBQamtAEFm/ZUOoq8/6P1m9GI0uOHfAechqX1f0RJBABX49mJBuTSCQSiUQikUgkEolEIpFIJP5TJgV40M5Buo9MmPzBEnWS1X1kAjwSTbV5hO4jE+Yz0Uga2UAelFrHUY1MHKekUh6zzTZSOdottBXwIxOHyPLbxWI0JlpL97Kk4HW0o22m7cbIxAGme2Iws+fuiXHwylZD6DZG9oyr3DHWPsIgz7Vp3Et5PtT+SYz1nzn0yRqoP8tLc/UEX/71ymvdasvIXpFhhSIs9QkzR0ebmGKOyvkpFPrPKsrNovaP4eqGH2dEtprt6rVhtTmyV4zkaMtr7ZqMZ5e2zXjLL24vtXsa2dSSxfLdTV+yi3VJVIRgm/hzm2NyS0MQr7D6FKy+MrJXSEiGBMXBWmk1N+jswvGcyAPt8PeRHvGpM7sfmxso9stOnE+NPHxoNXcAe93RLqyjXh3ZKzgir7RtjMSStiUuoteOM9LMmedt75oGrbBl9wOTrasMExTdEU1cywGvsdUDI/vEBuqqL80eI61Lcg66kK+4gnhY4EtqWvG/IWew8yukVVV9kJZqNRIZIE6sB0b2CeT/oHVL7EY7Mt06fu8R1joxx7XmtMdfJB1nDInXzezhizdztQrrLPDqyF7xAAle64Qsp1PtfUXuGkvyKFYLT9tysq51JB97pVlgUClCeY9niKwBqnUWaB35c0F/fjDm4g/68p0+9c4sIq1bWqK6Vlq3tO+2fsFcpnJ6rLbVtWaStiFXZjQqpyvqGXJ9dE50ZQWvn/WrtI38lU/qjcn+wkNzh/suRFqRWcfToBXdjnsYpLvy+OK2rhVTGG/x0YrHJ3ka6TyqkmpVvG6c15aRH59/+fFvWlzcrz/c92U3exuOY4vvFLQis+66BSsv0jqU5LpW6IEwTGT5DEiWxrRErsdZnsuzldXIa/tIaL0x338wvdHKHl1l5WCNtKKadFy+YKGz1eYh6lpvpGTxmRSQnCdmeGdzBOF4sLJ8piOrxlxb9do20nyk55/48d7tv96foLXgQ6y0Ili7uGLq6fBV6loLLoczspo8eNLseLt3jYZu+0a7YJW9uje2jUR2/YdrVfYXV64+wEtVXzVwiJVWBKsuD49iiard7wFqWudUDs3M2uqNnCrX2CdnSNQb3S8PI6v4gvrYNvJeVgKw25Ng5Y2187eW+cgVjHsI1q5ZCtW807Lca93k+Xxjy/F4FV2MAF7bSOb6IRojLz7Jt+1PsIpWzqEuWCutCFb/5Y/BWvkeaMxKX4vxWpn94vqJ7F0tGk8ASytovfgkmaAXXOIg+XqHC1avFcHqMlkH+MS8hAW+xGvlrcPcDDdUvtmOHloX5uL+uS8pwMUatGqweq3LzttWeWuDQ1ofuarjIycl3bpXToaXrT8UPbLqtWqwslaLWmH9tvVB5rREbibNolH0eSXZZTZHJetWzlpuO5W6Dsj+6osssXoCNpHQiohzMxJacfBL2quoa+xLaSOBnMkdpKXf6QbwbNgYvU6kFTmGs+9d193xUX6n59/6Uq0covXBL1JFK4K1iknshsjfH8CKpi3jPhHNtHmISKtWRNjtyRb+7WGt8KjlQ7QiWEMUYVXqp3jRvp1Fce/yk51Yq67f5l+Rwv9nYJZPl9WOirUGyQxe1xYyResOAdsd20wNDWKtfDHAhWtb+J8D0HYbPLLWIJkpqitcG0mITbKy088galr1aoBchzhLkBnL4BFabS1YsUbQI5/wfrMV3vE+Hl0M1LWq0C0V0j075JZ25RFaX4QeMqdMfUzYVwsTahntZ0fizmvVm9BbaaAi+puv5wVrDZNetNb83OmBL2qpoc4AIV2DBb5krVr1VhTClZfvi+oi1nnBt17DpGet9Qx667SO7MEsOEN+jWhqHfOFJ0fhPk5+3MHszzFeMcmjMOTcWs+gSJy8uFwfu12Yuw2Zo1nblvqKIM9cagdI/9sCkxVar6t9V+JNyPm2dvbUmwvEZ8KId6xz2mg38TYMoHVorb8ukHgjoHV1vpdE3o09df7FQKI7/Gu3N7rcnAhgG9Z+iSVxCuvzvSj6nlzmaRWQSCQSiUQikUgkvhGM+Rda1yVBtSKxAAAAAABJRU5ErkJggg==;" parent="1" vertex="1">
          <mxGeometry x="723.17" y="336.74" width="86.83" height="17.52" as="geometry" />
        </mxCell>
        <mxCell id="hMHybNNGIAyjDT_4vl0r-3" style="edgeStyle=orthogonalEdgeStyle;rounded=0;orthogonalLoop=1;jettySize=auto;html=1;exitX=1;exitY=0.5;exitDx=0;exitDy=0;entryX=0.016;entryY=0.437;entryDx=0;entryDy=0;entryPerimeter=0;" edge="1" parent="1" source="5PwwvBwdqip06TG52Kvb-51" target="5PwwvBwdqip06TG52Kvb-40">
          <mxGeometry relative="1" as="geometry" />
        </mxCell>
        <mxCell id="hMHybNNGIAyjDT_4vl0r-4" value="" style="rounded=0;whiteSpace=wrap;html=1;fillColor=#d5e8d4;strokeColor=#82b366;" vertex="1" parent="1">
          <mxGeometry x="718.41" y="500.5" width="64" height="64" as="geometry" />
        </mxCell>
        <mxCell id="hMHybNNGIAyjDT_4vl0r-5" value="" style="rounded=0;whiteSpace=wrap;html=1;fillColor=#d5e8d4;strokeColor=#82b366;" vertex="1" parent="1">
          <mxGeometry x="721.5799999999999" y="503.5" width="64" height="64" as="geometry" />
        </mxCell>
        <mxCell id="hMHybNNGIAyjDT_4vl0r-6" value="" style="rounded=0;whiteSpace=wrap;html=1;fillColor=#d5e8d4;strokeColor=#82b366;align=center;" vertex="1" parent="1">
          <mxGeometry x="724.5799999999999" y="506.5" width="64" height="64" as="geometry" />
        </mxCell>
        <mxCell id="hMHybNNGIAyjDT_4vl0r-7" value="" style="rounded=0;whiteSpace=wrap;html=1;fillColor=#d5e8d4;strokeColor=#82b366;" vertex="1" parent="1">
          <mxGeometry x="718.41" y="587.5" width="64" height="64" as="geometry" />
        </mxCell>
        <mxCell id="hMHybNNGIAyjDT_4vl0r-8" value="" style="rounded=0;whiteSpace=wrap;html=1;fillColor=#d5e8d4;strokeColor=#82b366;" vertex="1" parent="1">
          <mxGeometry x="721.5799999999999" y="590.5" width="64" height="64" as="geometry" />
        </mxCell>
        <mxCell id="hMHybNNGIAyjDT_4vl0r-9" value="" style="rounded=0;whiteSpace=wrap;html=1;fillColor=#d5e8d4;strokeColor=#82b366;" vertex="1" parent="1">
          <mxGeometry x="724.5799999999999" y="593.5" width="64" height="64" as="geometry" />
        </mxCell>
        <mxCell id="hMHybNNGIAyjDT_4vl0r-13" value="" style="rounded=0;whiteSpace=wrap;html=1;fillColor=#d5e8d4;strokeColor=#82b366;" vertex="1" parent="1">
          <mxGeometry x="718.5" y="670" width="64" height="64" as="geometry" />
        </mxCell>
        <mxCell id="hMHybNNGIAyjDT_4vl0r-14" value="" style="rounded=0;whiteSpace=wrap;html=1;fillColor=#d5e8d4;strokeColor=#82b366;" vertex="1" parent="1">
          <mxGeometry x="721.67" y="673" width="64" height="64" as="geometry" />
        </mxCell>
        <mxCell id="hMHybNNGIAyjDT_4vl0r-130" style="edgeStyle=orthogonalEdgeStyle;rounded=0;orthogonalLoop=1;jettySize=auto;html=1;exitX=1;exitY=0.5;exitDx=0;exitDy=0;entryX=0.5;entryY=1;entryDx=0;entryDy=0;" edge="1" parent="1" source="hMHybNNGIAyjDT_4vl0r-15" target="hMHybNNGIAyjDT_4vl0r-127">
          <mxGeometry relative="1" as="geometry" />
        </mxCell>
        <mxCell id="hMHybNNGIAyjDT_4vl0r-15" value="" style="rounded=0;whiteSpace=wrap;html=1;fillColor=#d5e8d4;strokeColor=#82b366;" vertex="1" parent="1">
          <mxGeometry x="724.67" y="676" width="64" height="64" as="geometry" />
        </mxCell>
        <mxCell id="hMHybNNGIAyjDT_4vl0r-16" value="&lt;font style=&quot;font-size: 10px;&quot;&gt;&lt;b&gt;Self Attention&lt;/b&gt;&lt;/font&gt;" style="text;html=1;align=center;verticalAlign=middle;whiteSpace=wrap;rounded=0;" vertex="1" parent="1">
          <mxGeometry x="1092" y="140" width="111" height="30" as="geometry" />
        </mxCell>
        <mxCell id="hMHybNNGIAyjDT_4vl0r-17" value="&lt;font style=&quot;font-size: 10px;&quot;&gt;&lt;b&gt;Multi-head Attention&lt;/b&gt;&lt;/font&gt;" style="text;html=1;align=center;verticalAlign=middle;whiteSpace=wrap;rounded=0;" vertex="1" parent="1">
          <mxGeometry x="1147" y="480" width="111" height="30" as="geometry" />
        </mxCell>
        <mxCell id="hMHybNNGIAyjDT_4vl0r-19" value="d&lt;sub&gt;model&amp;nbsp;&lt;/sub&gt;= h x d&lt;sub&gt;head&lt;/sub&gt;" style="text;html=1;align=center;verticalAlign=middle;whiteSpace=wrap;rounded=0;" vertex="1" parent="1">
          <mxGeometry x="878.86" y="780" width="120" height="30" as="geometry" />
        </mxCell>
        <mxCell id="hMHybNNGIAyjDT_4vl0r-20" value="Q" style="rounded=0;whiteSpace=wrap;html=1;fillColor=#ffe6cc;strokeColor=#d79b00;" vertex="1" parent="1">
          <mxGeometry x="827" y="160" width="78" height="61" as="geometry" />
        </mxCell>
        <mxCell id="hMHybNNGIAyjDT_4vl0r-21" value="K&lt;sup&gt;T&lt;/sup&gt;" style="rounded=0;whiteSpace=wrap;html=1;fillColor=#b0e3e6;strokeColor=#0e8088;" vertex="1" parent="1">
          <mxGeometry x="827" y="235" width="78" height="61" as="geometry" />
        </mxCell>
        <mxCell id="hMHybNNGIAyjDT_4vl0r-22" value="" style="ellipse;whiteSpace=wrap;html=1;aspect=fixed;fillColor=none;" vertex="1" parent="1">
          <mxGeometry x="861" y="223.5" width="10" height="10" as="geometry" />
        </mxCell>
        <mxCell id="hMHybNNGIAyjDT_4vl0r-23" value="" style="endArrow=none;html=1;rounded=0;entryX=1;entryY=0;entryDx=0;entryDy=0;exitX=0.46;exitY=-0.047;exitDx=0;exitDy=0;exitPerimeter=0;" edge="1" parent="1" source="hMHybNNGIAyjDT_4vl0r-21" target="hMHybNNGIAyjDT_4vl0r-22">
          <mxGeometry width="50" height="50" relative="1" as="geometry">
            <mxPoint x="840" y="280" as="sourcePoint" />
            <mxPoint x="890" y="230" as="targetPoint" />
          </mxGeometry>
        </mxCell>
        <mxCell id="hMHybNNGIAyjDT_4vl0r-24" value="" style="endArrow=none;html=1;rounded=0;entryX=0;entryY=0;entryDx=0;entryDy=0;exitX=1;exitY=1;exitDx=0;exitDy=0;" edge="1" parent="1" source="hMHybNNGIAyjDT_4vl0r-22" target="hMHybNNGIAyjDT_4vl0r-22">
          <mxGeometry width="50" height="50" relative="1" as="geometry">
            <mxPoint x="864" y="242" as="sourcePoint" />
            <mxPoint x="871" y="235" as="targetPoint" />
          </mxGeometry>
        </mxCell>
        <mxCell id="hMHybNNGIAyjDT_4vl0r-27" value="QK&lt;sup&gt;T&lt;/sup&gt;" style="rounded=0;whiteSpace=wrap;html=1;fillColor=#dae8fc;strokeColor=#6c8ebf;" vertex="1" parent="1">
          <mxGeometry x="912.86" y="198" width="78" height="61" as="geometry" />
        </mxCell>
        <mxCell id="hMHybNNGIAyjDT_4vl0r-28" value="" style="endArrow=none;dashed=1;html=1;rounded=0;strokeWidth=1;" edge="1" parent="1">
          <mxGeometry width="50" height="50" relative="1" as="geometry">
            <mxPoint x="998.86" y="405" as="sourcePoint" />
            <mxPoint x="998.86" y="145" as="targetPoint" />
          </mxGeometry>
        </mxCell>
        <mxCell id="hMHybNNGIAyjDT_4vl0r-30" value="" style="rounded=0;whiteSpace=wrap;html=1;fillColor=#dae8fc;strokeColor=#6c8ebf;" vertex="1" parent="1">
          <mxGeometry x="1009" y="242" width="78" height="61" as="geometry" />
        </mxCell>
        <mxCell id="hMHybNNGIAyjDT_4vl0r-35" value="" style="shape=image;verticalLabelPosition=bottom;labelBackgroundColor=default;verticalAlign=top;aspect=fixed;imageAspect=0;image=data:image/png,iVBORw0KGgoAAAANSUhEUgAAAL0AAABwCAMAAAB8f4FoAAAAAXNSR0IArs4c6QAAAARnQU1BAACxjwv8YQUAAABjUExURQAAAAAAAAAAAAAAAAAAAAAAAAAAAAAAAAAAAAAAAAAAAAAAAAAAAAAAAAAAAAAAAAAAAAAAAAAAAAAAAAAAAAAAAAAAAAAAAAAAAAAAAAAAAAAAAAAAAAAAAAAAAAAAAAAAAGZodN4AAAAgdFJOUwAIEBggKDA4QEhQWGBocHiAh4+Xn6evt7/Hz9ff5+/3v+H4wgAAAAlwSFlzAAAXEQAAFxEByibzPwAABA1JREFUeF7tnGtzqyAQhmNMjPWoJeaixgv7/3/leUFi0MY5dqZTlzk8H1pw2nQhy+4LWbrzeDwej8fj8axjH8dxaNqOsc8bAvJs+k6RdNTkcdYRZeaJQwii+374Xg5PHCIjqnUjJmp0wyFCSfKgW3+ICt1wiDvR59AqiZKh5QwhQo2OlEEBtw/0M3c4Y8nC5eMzIs7VNeOVuwx0l9g8AuGlNa2BeZ8LLSLOTYj0ZPqK/VnSw7QV8z4bAsz63F/yHg8r0wHzPh8iot40DXEjL0gBo7XzPieOtvX6TUhKRP/2Ze28zwo4hVIJiuLxbH2xlqv1NVGuG2FphXtXrE8w+QLa/tLbucoV63dIsRpp9ILGGet3p9uD2iqbbKzcsf4d3vrt8NZvR2c2i0/mfdYcoB9s7TbvM0aImxKV7UUMSXje5001cnvb93g8Ho/Hs4zeA/4g5mV/CfNHfwzzsh6Px/N/oQoVVhGZX+CD2riuhd3ZSKTNasz29R+w+0Q6p4cQgp9LrKM0n0A4SSDJ1XkHMfH8LHkdgq6m5SI1pablIHuir/V0Jx0dHah4Sd4VIYSiQwpwYDEX70uiMiLpwLF3S1Zty4uUaXHClMPCFJ+JHKjPTBem+O5Emdr1WVU3A7pzrLrgS/8+shzIhQwczcuL8EgVVGPROpCBc5p+HBVVWuzfSieqksuJTAhuRHUaZ7UaAf9cBXU81PFqAsy4DpPw+q8exY+pOsbMG2d/OJGrhC0TsL/tTOaC94uhxZnaTklIUM8tYkv0YZp8gTp+paQjdJnpqSpT/rkqsb37U1dUa070ks2iQgRiqTYL27vH6ka1HF656gStzLIMeaqO4S3PXkNWGoAbsbwUcbDrbkJYb2K/Olw7Dk2AHpuNb1i89Es6OjpQJpuxIPhYuSofR7U10RU2jhLgah+iYaUa66HQ7FKuK3X4ijW98ZWmqCQprQXZW/6hPUd3IwlL1c+Yo4Z2eIeQwHr7ksGv89GJffG8J6N8ZSLhMS4lK49tkWi5k0ptLEal3qGgo8fGDgTPCGGkCSH5VMJjXH0aC1kGsP4Rn01dNToIRRBwLG7VwEijZqbqeBdCHoB7oJQnuAw/Vaht+6npecQdCIJhscLGqRoI711fanmT1O14B6iiNr1SY62QTUE81P4er0qhGGOLLMzmCqIK7EpZTtTxIgikqVIOTEK+viKmZr1+f4g2Q+cqDPj9uckGqOsaEdTxqnPKu067LaNKZOz77lN1vEync9VFH5Pz2KeryT8UtkxYBPtzJaLh/Z+7jMkxQ4eM1a6yBZpHrw51RiKZSE0sRbnuyCOrKp0UjmV321TlWEC0OHHSt4DSu2y2HN9GaTU2+ef7FO79+wGLfcxFdnk8Ho9nid3uLxBhcuJ21oviAAAAAElFTkSuQmCC;" vertex="1" parent="1">
          <mxGeometry x="1007" y="242.18" width="20.25" height="12" as="geometry" />
        </mxCell>
        <mxCell id="hMHybNNGIAyjDT_4vl0r-36" value="" style="shape=image;verticalLabelPosition=bottom;labelBackgroundColor=default;verticalAlign=top;aspect=fixed;imageAspect=0;image=data:image/png,iVBORw0KGgoAAAANSUhEUgAAAL0AAABwCAMAAAB8f4FoAAAAAXNSR0IArs4c6QAAAARnQU1BAACxjwv8YQUAAABjUExURQAAAAAAAAAAAAAAAAAAAAAAAAAAAAAAAAAAAAAAAAAAAAAAAAAAAAAAAAAAAAAAAAAAAAAAAAAAAAAAAAAAAAAAAAAAAAAAAAAAAAAAAAAAAAAAAAAAAAAAAAAAAAAAAAAAAGZodN4AAAAgdFJOUwAIEBggKDA4QEhQWGBocHiAh4+Xn6evt7/Hz9ff5+/3v+H4wgAAAAlwSFlzAAAXEQAAFxEByibzPwAABGNJREFUeF7tnOtyozAMhUPIhVJIHRIChJve/yn3yDhgkjDLzuxs5Fl/P1qbMq1wZOnYyN14PB6Px+PxeNaxjaIoNG3H2J5qAv3Z9J0ibqk+RWlLlJorDqGIbtvhezFccYiUqNKNiKjWDYcIe+p3uvVNlOmGQ9yIfoZWQRQPLWcIEWp0pAwyuH2gr7nDGVMWLh+dEXGurhnP7jLQXiJzCYSXxrTQTouK+vIqMZc1iDi5UsnR9Jntuae7aW8qoi5XFziYfYsMAoz6s7+cOlwsTWdD1PANCEjTxyGFA0bWNA1R3V+QAizrB4+ClhDnO3vbev0hxAWifzNZ/yAnGtKCJOAkrBKY7P5ovbMeM3f8sRgwKU+6ERZWuH+1Hi52NU1BxBh8BW1/6exc9Wp9SY28oYe/wHymN3pB82J9Rt3BNGVxzO/UlOksoDxb/0P9l2k6wJP1iVPGP1nvmPFz62PHjJ9Zv+9pMP4oL1u9pzWLRRDUj4TwWMVIZwf98Aj+Z2qVpqHEXJKMUjmLzOaieMyx7B35Hm4QTTmSo/dl2ozMfOXxeDwejyRMyv9rmF/7jzB/9K9hfq3H4/H8X3ChwirkrbB4IbuW+R6hAA7arNosX3+DuDfSJ7orpVxddBdmw8lJgp4c3uyIBL7MXI+S+EpqNZUTO5QLbN+9Rz7q6OhAxUs8FSVMhKpFCnBgMmfvS6JSon56ByqWxlQiPJEIFAWv7BaG+EzkQH1msjDENyfK1K4L76OgOyW+23+iex9ZdhLLiV44PJcX4RIXVGPSOpCBT8SvpyYOpRb7eeFEVXIxkwlBTlQlUVrxE8jPVVDH1ivwACOuwyS8/tWj5DFXxxh54+x3J3KVsmUC1retyVzwfjW0JFPZKQkJ6rFEbMjUVkgG6nhKSXvoMtPjKlP5uSq2vftHV1RrjjTJZlUiAolUm5nt3WN1oz7FMeaqI7TymxWAAGbqGN7y6NVkpQG4kchDEbupDofLh8ZiXd5c2w9NgJ6YhW+YTfolGR0dsMnmWRB8rFx1ElOCfLjCxlECXO1NNMxUYz0U2lTaxXe1+Io5/eEjTYeC+t6akJ3lH9pzdPfQw1K+x2w1NMMnhATWffQEwVerttnjnAz7ykzC47lYVu6bLNZyJxmOO+Cp+BMKWrp/2IHgGVxpZkLIaS7h8VxdEqm+CGD9PTqbump0EIog4EScqoGRRs3M1fEmhDwAt4CVJ7gMd2W8bD/WnYy4A0EwTFbYOFcD4a3tCi1v4qoZzwCV1CRXqq0Z8lEQD7W/R6tSKJ6xQRYWcwSRAzsry5k6XgSBNGHlIKaOFysoHvXq/SbaEzpX4YHF1PHycY0D1PGqfcqbTruNnb4+DNZ9t7k6XqbVueqit8llrNN58HeZLRMWwfqcRTS8/2eTCtlmaJGxmlW2QPPo2cF7JL0QqYmp2K/b8kjLUieFfdHmUs5JQrQ4sdO3AOtdMUuOP4a1mpj88+dk7v37AYttJEV2eTwej2eJzeYXftR1QCqPoQ8AAAAASUVORK5CYII=;" vertex="1" parent="1">
          <mxGeometry x="1020" y="242.18" width="20.25" height="12" as="geometry" />
        </mxCell>
        <mxCell id="hMHybNNGIAyjDT_4vl0r-37" value="" style="shape=image;verticalLabelPosition=bottom;labelBackgroundColor=default;verticalAlign=top;aspect=fixed;imageAspect=0;image=data:image/png,iVBORw0KGgoAAAANSUhEUgAAAL0AAAB9CAMAAADA4ZK2AAAAAXNSR0IArs4c6QAAAARnQU1BAACxjwv8YQUAAABjUExURQAAAAAAAAAAAAAAAAAAAAAAAAAAAAAAAAAAAAAAAAAAAAAAAAAAAAAAAAAAAAAAAAAAAAAAAAAAAAAAAAAAAAAAAAAAAAAAAAAAAAAAAAAAAAAAAAAAAAAAAAAAAAAAAAAAAGZodN4AAAAgdFJOUwAIEBggKDA4QEhQWGBocHiAh4+Xn6evt7/Hz9ff5+/3v+H4wgAAAAlwSFlzAAAXEQAAFxEByibzPwAABaFJREFUeF7tnOlyozoQhVm84J1gYrDN0u//lPe0aIzk2DfMVCo0Nfp+OMJOZSS5dfogWhN4PB6Px+PxeH6KIzmk8vZMyKnN0vRKhNeSKJG3Z8KddngtqcFrRBSZN+dCRAX/aLofdOPX+bBIl3hdScCXR36dGwc9AR8dL2VbZodQrg2bssPEtbRNsBhyLQEf5y1RBQ2h+1reYlZn1sPKREaYcpuqg/mEuSsJ+E0N7eN5PGAQdvfRwyE8bmifpQ2gNZk0J2VH1EoXkYacCYWY36UZYWR2WtoS7aU5JeuW2o20Q3wLW2kzFdGHNBHmjrggkhbSnJCYw0baQXBxoiNEsMhg9s9T3eWqqcmI6ljaQYB1WkoTQNJFVzbtc5w0dJHWhCwQzidpA8RDLU3wWAZfO4+BKchSn5heK34R3SRNgA9z/rlpHyujBwN7fuv3CTH1VqgEBSRdmgCLlqd8+7Xz/IvTL1qoJQ0JyIj60PsYH66C4DRoUk8Mm0AndjuTgtho7XzfkLUYIeltskMK/jLzO+MaJg98yOXgXDqRGVIS5KhDqYtcPHWNb/mGbIVMmycfWBl9vlUGYsPJrUhW7cNm8orGhzyi6eXlFWwcsS57QoT9kGo5jJDH2D0oSEwv4Mi2LD1/FcNgMOlGf07dKPSB5GSlVhZxy2JCj8ycx4ggFWb4GfT+Kk3Aa9gSf+SqbkVjGLVz06UExL2lJxhLM/SSc1Vn+xO0NHj5Z5BqB5+7cTvJi0DGggyscdtjiR72yzSCthhPJmBF998Li6YlTWqAn5cFucAEF3Z04562F0oOIo2iGUPhjTXYssOxO89q/3CffHeuMWMtYMKaEp6Aamdh7qA4sJGdzicYGrWpQtEPj588szfeVx2IjIksy050Lt2FxtAHEHRL9ucG36NMfqvx17Cb7KRHY0r9Fghny5N/vs2x+0tMfs3Pcmb2CErYsz5So9HNjGF1KvKdShfv8Xg8Ho9nAoyx+UHkz/4S8o/+GPJnPR6P598iSkaib3ONtyzHYtcIqIC3jonu3cbld6h7mnWkW5qmSvdbv6XQ+lh/DGGr8hHPSBK7PGd2pM6Dt7lxVflgdiTRq4qEtVFHu5REKdtXT5XjtEYKmMFizl6XUxzssh29VK9L6vcKTcFXFm+m+GMoR1bM/s0UX9z6L6XkdlGvBXynjmMO/0vzWlkWToGsVlZfi9JXSRLzop1BBj7Sp7Q6Vlx8QfRZuNW+SikcmxBy9cI+OfBhmhnkKrhjq6w7xIwbmeRaOw3HHL7BdceYeQn22yxyVWrbBNzf9lWMiP4ZFABc7ZSEBNXfIlZa65BtnKOmS/gyueKDP/pz1daO7tNQBLi2ijHTEgqk0m1mdnSjk33gpFauWsMra6wrfXLHiJb+6m5XyCKM1G1BMYvnGmTRft5cG2rWcKXmxjfOBv+yt6tducsyFoiPlauOKk4XMis+GvawALm9iYaVKr3noimr2jE39fp8nsA5bfPrrApqW2tBNnZNI0eOuVy16Cn/jmw1VN03hATWOAdxf5tNnUYZVF26tXItPMbFtnJZZVtjd/at6SxGxd9QWNNt4gBCZFhnMo6uhce4mn2StkWI3t+SDykPxwWkCAYuH1b4dKCT4mZcdxzEpoiaq8K50pTo3P1Wxrft67uS2kE+PWAWK/rouoH4UjeFsTfba3Xutb+kap/TXUvVL/TQxHsyKoVijHzyX83RNxZ2dpaOO34LhHTPzkGJ5D+OWF1fb6I9YXIVBvx632QCuuNt0bh9yotJu5WiYn3c911cd/ye2uSqs9km13GfzpO/yGyb8Bbcn7OJRvSfgoOSbQb+/xSqUX2B5zGrg/dIWiVWE0uxHbflcZD/zmVZ1J+TuhwLPj/r2oRZwX5XzS3HH8NeTU3++XMyrcfeRxElWmyXx+PxeN4RBP8Bj1CTGWSvonQAAAAASUVORK5CYII=;" vertex="1" parent="1">
          <mxGeometry x="1020" y="195.44" width="52.61" height="34.79" as="geometry" />
        </mxCell>
        <mxCell id="hMHybNNGIAyjDT_4vl0r-38" value="" style="endArrow=none;dashed=1;html=1;rounded=0;strokeWidth=1;" edge="1" parent="1">
          <mxGeometry width="50" height="50" relative="1" as="geometry">
            <mxPoint x="1095" y="405" as="sourcePoint" />
            <mxPoint x="1095" y="145" as="targetPoint" />
          </mxGeometry>
        </mxCell>
        <mxCell id="hMHybNNGIAyjDT_4vl0r-40" value="" style="rounded=0;whiteSpace=wrap;html=1;fillColor=#dae8fc;strokeColor=#6c8ebf;" vertex="1" parent="1">
          <mxGeometry x="1111" y="242" width="78" height="61" as="geometry" />
        </mxCell>
        <mxCell id="hMHybNNGIAyjDT_4vl0r-41" value="" style="shape=image;verticalLabelPosition=bottom;labelBackgroundColor=default;verticalAlign=top;aspect=fixed;imageAspect=0;image=data:image/png,iVBORw0KGgoAAAANSUhEUgAAAUoAAACFCAMAAAAKPkHiAAAAAXNSR0IArs4c6QAAAARnQU1BAACxjwv8YQUAAABjUExURQAAAAAAAAAAAAAAAAAAAAAAAAAAAAAAAAAAAAAAAAAAAAAAAAAAAAAAAAAAAAAAAAAAAAAAAAAAAAAAAAAAAAAAAAAAAAAAAAAAAAAAAAAAAAAAAAAAAAAAAAAAAAAAAAAAAGZodN4AAAAgdFJOUwAIEBggKDA4QEhQWGBocHiAh4+Xn6evt7/Hz9ff5+/3v+H4wgAAAAlwSFlzAAAXEQAAFxEByibzPwAADhlJREFUeF7tXdliozgQDL7vEJ/4Av3/V26VaJAQEOMYs2OgHmYUAtgq+qhuyc5Xjx49evTo0aNHjx49evTo0aPHcxjK/3Wh7vt9DibRXEb14Oc6kFHXMArVRob14KgCT4bdwuCm9jKsCd5VHWTYKXgXda3bhsaR+pFhl3BQ0ViG9WGl1FKG3cFSqZUM68Re3buWxod3dZLh37BRGfhyeHDvXLh82b33Ktr6/lkp/BsoNZPD3XNxuPdWhn/EVTMWqBD/DpQygvLSLRf37ur+WvYexPEhjP9TF/4bY6I65eIIdC964chnfABtOkgGttTfKTWRYfsBo7TM6AWsrSCZYqjUUYbth68KK8bB5hhEwXZtu/48iKFjoYxN6t/bQTLFsTtmOYyKIuVwHyl1Q0pW16kcAiZwVxzWzHt4BPxhrX9DXAute9ods9wWpe/5HUdpYmswanEJuowXXzDeyRhA5i7UATitG2Y5iFSUkytQR5EQhpxk2xpE41WGuDLV4sSipGLCzbphlsgVuYlOQW/Su0RSUgsZAzeVtigQGjMxFg4/kmEGvEMntCXCodvxRRlpuSrShvFiDz4txKKQyRphLNAL8KPUtwzbjDFc2U06iJ5WiYJME8hQS0fJ0vPIdeewzI9nJii0GbAYtxoZIQZaVgS/vcvQipx5JsFyWRceVm6nrpYCs3RzxQGWZwU9hEQlQ/073WufR7mFILBctjaEW1iZvqWYw78dWe3BKI1Hf32doB1lqLMOmV/kmeR5hVkHwKuEdbfo/znAXmzaCGgXZWS3loUplagCqRG/TYJPMIQSUN8lnTo+HUsFtBPwbzfAwYczhhpaagnSMZotC5L+11IXkWXBMqMC2gkmZLcSAbt2R52npEIcuT1GGWclQBw1QaKdwBRdLThyiMIpxjlR6+xnP3DXJ8UNn0dZIG0JQI2rBeHDmbgG30yFp8Q8sluWrIvBC5805A8DZ2hX0QT7PZbPewiVaZijcUG7sxJ8sqoueGbtAkRKrlnLcGgJFxppymwS8r5jSp8A7tpuOYQJ5qpGyCNT3Gi1aBpDSO7atoaw5ufW1fhE8h32FgGqJtesBZVnGQJMQkZkQqDHEQ+cPrewRkHa6mBpx8EEiJVWegaxxjHJR2xaM4zcevN3ILy2eeWx0FRQ7Bh9xGBqKKOXCq8ogYoWH8qBvPPcBZ8FV/dojHEwyTMD2JK1UxChNTFY6iFX2/8KLgq1OO8wEeerZkxaUsoItney5n81ioYG/ZS6eZr7zwKrbRlaGCKCarG5YPVtMUlVmfY+uFz2jEzPhorWAUZXVACOkNjDAMFN3e3JL5G/lfqO9eQMNKvIry4uacbP6adPAtdpCp3U2xxodJfM7peBbv0EQZzCj/EPT7gsuHfbee0BNWPpBmc4vyUvawBMvb3NIYrDUtnMBnCtO6qPuKEMG8Pw+3iOEkd6J8hWaSZgpyOObTVJGIj9plfD/VAFfILvb+9Rn5Q/MGgivRN4d6mHS6fj1AC2KsSz22RaCm/Cz6+TG8Ms79wT7Xbh/ojnm5wvAi/I+sPzG9BgdLlfbH+FX0MV1fVGeLsmheUgctOcV7729CqoHGVYiMn3ab+sLbwxydVk4JUAo3R0LHLDu54ltGPJJp93gLVSk6uO91wiQAZ6VwKCaG5Q6VHFNrgmwb0S2XzJLbkyrB2YW5P1R20vNwOcHSXTmStFMt1/wsMR+1HOhOjBLNnO5OVu8jWJD00lzA3MC+Nk60l9IpXej+4EKHXdpTOZcK83jhh9sPJZ+GpIE3GdXAfAy8fHKE6oE+rOO8kc65FN5oTJRKnDfC9BfomgEcaaZwWXtvqTOO3TqByd1W03n63ASxLmPWi6YD1bgrw0qx2DAOxe2CUQKzrp9syZR2Ca81CBiuvX10I/BHXzeIgwyyweS+fVbEaG46i7UnecpMtpKjvrIwzs1TRM5ZMbEfI4qUhnjuE9cVb6rW4keHcVGZXMYi2bYwZm8vPoNGSmGCzVdqQ/nTCdR4dxRvqm9+U2cd20nkYHvV8St12qaBtaeabhPFBHlgNB8o79ZAcoijLZlvNtd/whvZwcszDBc84ubKDCcUQ7Jsd+yEvJfyKXYJNyt2QpZcYuOGx0ieolmn+NreqGVFqrDW8HnPJVKqepH431x9e0xEo+lGBxpT3QMZOtozOv6nqLxRmjaHwyRtJYxH0TX0clYy7EfX+8i1u2fSCVeMvJBzcEcMNErMIQjUyG9Tjb32Fc9joWbREhksBI9ovDcaQbhuuTyuhsXwiKj9tcP43lR8NUvtxlY1Vhc0lzSLQMKlPj0zmB7gZPzj4+g+uCsVsje8jD4A79JKuAX6vkw0/5sFhIJY7VBLmhQR1UjjmTvUmdiI+ppcP30s2MpFj8U4DYkPEJs9yPwCBL/RgJS7hvwhduZV/IyJm9M/CJVH6N4W7qnoYqTCzdqICYlhamsFBn1R1EZyaLK0U7IYjKbzAS18WrJE7sXIhz8h+cwXPKU/lGgMqC9c1nQRlp8iz8OI1buH86xoSdeh/Bz94VTkeVFGyCqPkEIV4iiQ+IxnYTBHfO+fcnph2NMSuZeMpc6EsslNNJwyNIsecPgHRLvTB9SFhkEI0jBjKRHKPklsDKLox1IXdh5GfxqVTqD7vFNscpJAtQCH6pT5Nim7iYHDvEmcAK5zRBUwyO/MnZMEqjCxCrz3hKWe0P8H3Ym87fDTz9eqg0PFDRJPPCk0o1S0YXaeBI5sXh7xIqcTMJt/BdOcbYF1PJhrVZeR3cwhFqAsfg4/fRcOHopIIn4SeWBvOR2Ru3zSQaJGBnZvi1ZsTbxdQb4o2ChL0xWsDbacPa2keh1FBaDnlnsIg7pQdSNE/lay8XJHOGIUkKQXkXj7g7x5QgoMdZ4F/HQhGVtS5n6JEiqfA0RJmCXgTbPZ8IPIj3Hd22eGy41Sqa+ovBiSTiUkj7wT3zAs/PbcBWYRVkA1WMl6mMpCiBuJQ6hWt5+hhTkeV24NWubAC67GmxuYoLw7QkQJJUuRlS+W5+1PeBr4er2Xd48kDlZfajTrhBGCtKML6dn8NMwMRNntmAQXVcFQWcvRxPmAuig+9DP55Skb6OVLjzT5G6WWWxZXMpwBMQSomNgCcZ1woM8GW8gj5jCL6Ao6cTPCj2+GG5i76pVmPOp+lg2k/kAc4Ez5Idv8co2GjF+b2273eyOSKcqfPeDvtjHrsdVmJZGqAnN7HB7qou2yTC7YJASF0HQSK5B3t134uxDY/38KTpWpxvOww26raTx7MNrz+JbhDgPTyhmTfq4vt+kedWA12sgOF3AO7ZpMoDIJmcQvU3nEwt8Sdwg2W+5HoLYCNOqHw3HmwpyAIx4+8WScDr8oLsLUBUzn2E5s3QnXgZP8TsVX3NoJ7te70LeGj5Mvm9YFLKJqJf4L8afpj4nGD9HniXd3xB7O9gaV7Z5Sj0XwLDiatQ3gIkHUefvx/MqVUTAeJPtlQiplr4VIzwSHI19NgeYRJA4v00HCljped09UqxKKqfhz7ed9VshHrk5bXbx9io66Fy0KoRqF+qtoa2xZqQpW1FEwDpTSeDBnHOLRaX4lacfZEsKxaDXIxqPIQ1B1SiFTX6qMT4kJYr8sMc17BubhKbypFuVWJ8x8r8UFY2LVEaBFO4VPUPsC9J9Yi2FQXOIdfYbhXY96qmhsJi62UbVIaPgLhc70eq/jFAy1Tqe03yFjWZzYbMOlVrINhvVeH1kYBsrqT1Ng7jySZOXJ9ZXC4HE3jFUz8TbGhUiXWnTNUomzjX3ChRVaCzL/RaZ+kfB/NOhQzsRXYzLt3EyWqpaiqB7nqxs/SvAxGsQmc722Azmzgv1VdrcGrDje2mAVoqkOHbfE/MJk6zhekRqBWqya6PBUJYhRr6bEcBswTPZcyKrQPummukw/b/geHuYWsbJmVosDZxcmdORX6Q31qtKgnEsIc+urCDAArApMGDpJV23vwA+bzcvquHgs/Fj73VpgRbmwZrEydMLU0l0/VvN2KorLyK9KmgdH606phpsFkRIbO5BN5ergUQkhto+/7fgJU9KMNH9tclOps4Ta8HP5Uv/kCJNrQE/n8Cjlkgh4ZbowJXdveb/AmxSOWWQN/8Yt3cd5NfGWod+Lkzd5oTrg6mZd7e3pbB+iimkqWglZX3uiGvdzDlFjmW1Rc+PhrpFsUEk5OKwG9qlqHdsk03cU4i0MZz5DncYttFqg5zCQYv0XJ9HmPupt753R9soR6Fo0m2eJZNnGNrEycPg2LaLv/MWc7Ph1EHvqtfA9Iya0eYtvUNtJts8Rxv4vQjs4lTs4QfkNi9k9rnSYP5Vij02wCwkF9VBWNSaWcbbAWbOPXhLQvQ6bXo+1/46eIOJB0NmGVuqtSbOtuAsGxxmN3EmWjMQN1We3UtWghD0umIUWqzzM8VUkfHyNnjaggA4fzreoU6/NIdo+Rk82mBApL9oEyDrRTQSCsWkgXSEr/qjFFqs8xvDECFQns8P+4cAVqgg/2CmubcJaPU081FOfALmT6otifoqAufW0EnDUq+AzWjwTj9TgoLyEZHEFppySH+VpCdzl+Z1TCk79Y3KrOA9Mstl9EsR/kvNyjCKG5HIix+o6i3uYRIKsrqbcZZXXOOfEfCuFVacoUX64jK5dzIlpYw9065N4E55/IscglKPvnhV6zlq5HGp/vBrpy8c9fcmwBvrovzz+q8tuS6VWHX3JvAtF1VyJZZeT/3MRb5P6zXDRzU2QmXbGqU9nMfYxS+9CA+GF6QC5fbl5ZkLu1fZSzD4Oia4GD2Sqibt3oXYI8ePXr06NGjR49/FF9f/wF79V/BxrEtnAAAAABJRU5ErkJggg==;" vertex="1" parent="1">
          <mxGeometry x="1100" y="192.67999999999998" width="100" height="40.3" as="geometry" />
        </mxCell>
        <mxCell id="hMHybNNGIAyjDT_4vl0r-42" value="" style="endArrow=none;dashed=1;html=1;rounded=0;strokeWidth=1;" edge="1" parent="1">
          <mxGeometry width="50" height="50" relative="1" as="geometry">
            <mxPoint x="1204" y="405" as="sourcePoint" />
            <mxPoint x="1204" y="145" as="targetPoint" />
          </mxGeometry>
        </mxCell>
        <mxCell id="hMHybNNGIAyjDT_4vl0r-43" value="" style="rounded=0;whiteSpace=wrap;html=1;fillColor=#dae8fc;strokeColor=#6c8ebf;" vertex="1" parent="1">
          <mxGeometry x="1210" y="200" width="78" height="61" as="geometry" />
        </mxCell>
        <mxCell id="hMHybNNGIAyjDT_4vl0r-44" value="" style="ellipse;whiteSpace=wrap;html=1;aspect=fixed;fillColor=none;" vertex="1" parent="1">
          <mxGeometry x="1248" y="268" width="10" height="10" as="geometry" />
        </mxCell>
        <mxCell id="hMHybNNGIAyjDT_4vl0r-45" value="" style="endArrow=none;html=1;rounded=0;entryX=1;entryY=0;entryDx=0;entryDy=0;exitX=0.46;exitY=-0.047;exitDx=0;exitDy=0;exitPerimeter=0;" edge="1" parent="1" target="hMHybNNGIAyjDT_4vl0r-44">
          <mxGeometry width="50" height="50" relative="1" as="geometry">
            <mxPoint x="1250" y="276.5" as="sourcePoint" />
            <mxPoint x="1277" y="274.5" as="targetPoint" />
          </mxGeometry>
        </mxCell>
        <mxCell id="hMHybNNGIAyjDT_4vl0r-46" value="" style="endArrow=none;html=1;rounded=0;entryX=0;entryY=0;entryDx=0;entryDy=0;exitX=1;exitY=1;exitDx=0;exitDy=0;" edge="1" parent="1" source="hMHybNNGIAyjDT_4vl0r-44" target="hMHybNNGIAyjDT_4vl0r-44">
          <mxGeometry width="50" height="50" relative="1" as="geometry">
            <mxPoint x="1251" y="286.5" as="sourcePoint" />
            <mxPoint x="1258" y="279.5" as="targetPoint" />
          </mxGeometry>
        </mxCell>
        <mxCell id="hMHybNNGIAyjDT_4vl0r-47" value="" style="endArrow=classic;html=1;rounded=0;exitX=1;exitY=0.5;exitDx=0;exitDy=0;entryX=0.5;entryY=1;entryDx=0;entryDy=0;edgeStyle=orthogonalEdgeStyle;" edge="1" parent="1" source="hMHybNNGIAyjDT_4vl0r-2" target="hMHybNNGIAyjDT_4vl0r-44">
          <mxGeometry width="50" height="50" relative="1" as="geometry">
            <mxPoint x="890" y="370" as="sourcePoint" />
            <mxPoint x="940" y="320" as="targetPoint" />
          </mxGeometry>
        </mxCell>
        <mxCell id="hMHybNNGIAyjDT_4vl0r-48" value="" style="shape=flexArrow;endArrow=classic;html=1;rounded=0;exitX=0.072;exitY=0.926;exitDx=0;exitDy=0;exitPerimeter=0;entryX=0.91;entryY=0.926;entryDx=0;entryDy=0;entryPerimeter=0;fillColor=#f8cecc;strokeColor=#b85450;" edge="1" parent="1" source="5PwwvBwdqip06TG52Kvb-74" target="5PwwvBwdqip06TG52Kvb-74">
          <mxGeometry width="50" height="50" relative="1" as="geometry">
            <mxPoint x="910" y="450" as="sourcePoint" />
            <mxPoint x="960" y="400" as="targetPoint" />
          </mxGeometry>
        </mxCell>
        <mxCell id="hMHybNNGIAyjDT_4vl0r-49" value="" style="shape=image;verticalLabelPosition=bottom;labelBackgroundColor=default;verticalAlign=top;aspect=fixed;imageAspect=0;image=data:image/png,iVBORw0KGgoAAAANSUhEUgAAAUoAAACFCAMAAAAKPkHiAAAAAXNSR0IArs4c6QAAAARnQU1BAACxjwv8YQUAAABjUExURQAAAAAAAAAAAAAAAAAAAAAAAAAAAAAAAAAAAAAAAAAAAAAAAAAAAAAAAAAAAAAAAAAAAAAAAAAAAAAAAAAAAAAAAAAAAAAAAAAAAAAAAAAAAAAAAAAAAAAAAAAAAAAAAAAAAGZodN4AAAAgdFJOUwAIEBggKDA4QEhQWGBocHiAh4+Xn6evt7/Hz9ff5+/3v+H4wgAAAAlwSFlzAAAXEQAAFxEByibzPwAADshJREFUeF7tXWljqjoULLhUW2upK26Q//8r30wSIAvUeFX6BObDvSmXxQxnmXMSe98GDBgwYMCAAQMGDBgwYMCAAQOuYaT/fhAefLtXwjSf69FD8HOK9ah3GGdiqYcPwU6kkR72DPFZbPTwMYhOYquH/UJ0FKcHG9EkFz962CtsRT7Rw4dhIcSnHvYIn0Is9PCB2IhL79L46CL2evhvWAoLiToaX/oXLu92743IV0lyEAJ/pkLM9OH+uTjce6WH/4iTpCwVGf6MhSgV5bFnLh5dxOW+7B2r+JCpv8SRf0pMRb9cHIHuTjccJ4wP4E0GydSQ+mshpnrYA8AoKzO6B19VkCwxEmKnhz1AImorxni5S/N09WW6/jxVkLFQj6vUvzGCZIldj8xylNdFytEmF+KMlCxO7/oQMIW/4rBkPsIr4A9f8l+IU511v/fILFd16Xt+wVGa2BcYNbgEXZUXHzFe6zGAzF2nA3BWT8wyzkXu6RWoo1wThpxk2hpE40kPcWWhxSU+6ism3KsnZolc4c30HfQWvUskJfGhx8BZlD0KhEYrxsLhx3pogjfoh7ZEOHQ7vigjDVdF3qi8OIJPa2JRydhGqAS6jx8hvvWw05jAld2kg+hp1CjINKkeSumos/Q8d905a3DkWRUTOg2YjFuOjBEDDTOC31700IicPpNguaELDyM3M1dXgWm6uWILyzOCHkKi0EP5b7LXPs+9hSCw3LA2hDsYib6rmMO/HVkdwSgrj35720M76qHMOmT+w2eS59VlHQAPyR7cof8fAgZj0kZAvIhKdktdWFKJMpAi8btK8AVGUALiu75Tx5djiICOAv7tBjj4sGWomaGWIB3z2WdN0n/7lEVkQ7C0REBHwYTsliJg1+yo85RSiCO3KzRw1gCE0SpGdBSYo6sFxw5ROKXyTtQ6m9kP/PU2dcPX0RBHOwNQ42pB+LAV2OCcpfDUQY/sNiTrevC62+z45cApmlU0wX6P4fMRQmUZ52hd0O4sBW8rq2teWccAleI1axkODeVCIy2ZLWLet6I0HLhpx+UQZuhVjZBHVXEj1WLVGEJyl8Y1gjXftK7GF+I12DsFqBqvWQsqD3oIMAlVIhMCXYU8cHrTwhr1aLeDpRkHCyBWGukZxFaeSUKUbc0wcuvNX4Ho2umVx1pbQbFT6SMG04oyuqnmFSVQzeJDM5B3bjr/1eDqHokJDhZ5JoYxGTsFEVoLg6UecrX9b+CaUJfzDhOxXzVj1jqljGF7e4OAUyVpaNC3yJtbqX81sNrWQwMjRFApNj9YfRtMUlWWvQ8ul90g0+1I0T3A6OoKwDESe5YiuomLOftP5G8hvpWenIFmkSfB4pJWfJN8ei1wnabWSaPllkZ3tHa/xLL1k6Yqhe/UD+E+C+rdbl6HQM3YuMMZzm/Iy/sBS+9wc4jisFE3swH8yB3VO9xPD9vD6Ht3yAtHeibIVmMqYKdDBbfHaBho/dZXw5NMpHyFz+/vUaA0vzBoIrkTeH18CJdOw2mqYi0gP8Fa/+Dv3roDK5Hh5S2tlsKT8GPPzsEEZnnhnmi3C/dvcHqcFFoSR2ky0BLEQxMTnsj6I0paEGH0uV9sfyFnlz3og/Bu5q34poAi7dEPHys849zNc1Hj2tPdoHLUw1pMv/ebz0fFN+Y4y7759OpV0kMe+30pGKUjZJEbnmWg0I71m3yeAZZKVheK5FV1Oazyzu3wLi5eIsAznpWAEK7ak3oUsVY9wDxUegV7yV5j5S5wr4T9brglVw8fDsykxQLEfZoKxTplr27pwc0AJ9W/z1wpYnX/iQhHzHc500THs2I/U+TdZKqOvBdRLq4ejJONN/V/oFJ5HI0ybINW9CM7AUKc1uVMptzrjSOVQFgkLHwltK1/FdcBeOZkl6uEOmW+u/DZEzkyyJyqaL6db4og/4mgkSnNs4BLG26E8/4nVMIowzp244M4r+ezBXgpwnyEoJt+zT5BXpnWdmkKdo+GUt3L9syBR/CkeSZAxQmaTOmIc8RDRBmwI1bOi9lMSgtF8EJccJIspyntjK8wsFnTLpVWG4opXVMJowz8XuBe5OqKS8E9/Vam/ugi8kols1hTr6lAjKfpyc/z/YiZIv4Uq7H8dsL7PN9OTO1b3pa7xFVyfM+3cr8kbvsp8lVm5BkvETwX+OhWkjOorJrNVwCC9CdOih2guFZvy/k2O/64u5NjPqrgOWcXNhXZJKcdk+Mk46XkX8sl2KS+GaxZXTdjFxxG+glNnM/fJkZ1QyqN1YZnAz7ZQCV0Eiu8ALyXfjSRX1+T1xZfSjC4kh7omAmCiPW+TuJ0VuqMUVSdjJFqLOK2haujkDGuw31/oqPb9P5jKvl4RSXedGAVgmuKL25owA8LtYp3U8lk3NPZ/w7rMuUWbREhksBI7xeH56g3ZHykg3UdON6tvI9Ls2iXSqu2UlSCGHw6PafrYFVhcsmbFKkfeazyaU+gu8GTs1dncF1QuTWyh3oZ3KBfJBXQa7oMfvTDYi2VOPYg6BuWaKQSFhCsziecyaZKnYiPpanD98rNjLy5/XoQGyynqJb7ERj0Uj9GiiXctqALd7KuY+j0XvwfU8nlEFKJsiRcnb9N4G/iUoYqTKzcqYCgVlamsFDnpiDamiyu1NoJQVT/C0bKdfGQwofd63CO/80ZvCefyucBVNrLm5rK422rupSRVVsCflzGLTygHGPCzrYT2L65K5yOqh9bBdHyo8gPpoBgbPVAcGfPv6UTtEul5SmaytKpgjFhJaOmTMsuLJTTKcMjSLEIkKSbb4yqQY0YRFXEQCZSx6i4dVzFedZ1+LjONIi/phKTw+SPWnTfAH7ZTdkcp1BoewS/0qdJsUmAYscMcVVghXNWQVO9VfKnT4ZRVrKAsfqAt+R9YH4Oc9P5k4GXb1PJ4Cls1RaIkgcqmmJeuF2ZvSxdJIEj1tPh7zpU4mY63MJ31TGGPkUlq1tj4TU+Z2PUBI7Bq8/RbuFoZwJJZSnpApAUlgbz0bOv3NZKNMjAzszwz5KSaK2or4ivJCTsjdEiliYsjX2c6RJKfcboABZxp+pIAVzQLpX205iLgTJVXEVanAtD0ikE9Z0acXdOVYKAHqcl/6WUIkprWc7QI7WkwtvQyhT0Ithu8EbgQbzt+LzCW8OdFvn7W/IR70kiLoUMji/WA3C7G6mM2SoMgR2oJLynIXMCN/wiuFxbMMRloekn+hhTkeF24NWRqvTZ/cfypF0YpqUDJEnVN8MHWs93vA9cPVvMvrN9BCqPsx+xj5inlKIE46v5IbMCJm5yywYMquNQ+K/IDyeKymB1LpNBvk0ShNd9KdK/cpGtk30uzkZZbNhcCfW0TO/dQcDTGdcIDHBmPIFnjFTw2UUyv4PhiGYtjvKmUo0536aDaft5vRGcCd4lO37X4acSTs/e9wvnvO1dTpc7hDNx2Jhhf8Jj5+3CNG7Q400sXp/EcVVEuHWaalK/0rSQ3PFGXDbK2Ea7S7aXbH0czmsOluK81q9nlZ1+nJ4gPkPNnsAmLMUxSZIazw0DPcwm+Juc//P9fgP8s0WVR0AzOYXqb9jfkCBqwA2WfsX1HMBGwuPGQ3BlS4ENBI27LAhO5+ux5wBh2fsKzZMhO/F6fBWzW+JqDRjTy7ruucBbu7EWvRtMSnYi+gXJneGHec+J1U9ChFq0nSdVYGke7HMU+veA0cQVKM8Bko6jz58PJtXQTID4Y5dKxLsUPmERHjnuBrnwz5imkHg/LUdKJfWcrl4jPtxWKjFK8LkDsxHKEWvt9klYitM2OGg9EKhfQltDq/oGDkvbMBMA523ngjZxMBeWfse5Pv0iWYaV8VyLaj2CtQhUooEafdxgfMjLYQQxxbUsm1vFMjjSLRqML3i1kLKybYXSJpjCdVV/BZuGVI9oG6Zwtl5fu1tg4ytMDWX11ss2qB5eAcLyLU2g1wO0TNAX3qe+SU1nsxGzTmANBPMN1V2vCejmILG3dBgvdnHiemtxuRFM4GFnvirY0AiJdXuratS7OL/k4kxo2go981XBvBOQgaPcbMaVuzhZLQXmEsiu+xpL/38ghAUsQ9sNtmoX5zF4nQ1nttzXbh2gJYCMxOR7ihJJy3VETL0ufwWUCmGq63WBGBZQQx/MKFAtwXMZM6x1wE1z7XTY/g4Md1d727CpigdjFyd35oQRhPTWbVVJIIhd9dEPMwigAiw6PEhaZectSZHPG+07OBK8Mn7MrTYNWJk8gLHCv2FrZS55//rlRgyVwYtILwtq52urjlaDzYgI1uYSeHujFkBEbqPt+9eAlV0pw8fm70t0dnFWzR781Lj4AyHa1hL4XwKOWSOHRqtKBi7M9jf508QilRsCfdls3dx34y8MdQ/84pk7zymXB8s6b2Nuy2B9pKhkLWik5Y1syMsdTO4ix2f4usdrAyrdbjRM9yIHv6VZZmbPttzFOc1BG8/R7+GsbBe5OnMzDJ7QdX2u4H3ZY35J4hXUo+ZoalfPehfnxNzFCYBi2i7/mzPXz0d5H35XvwSkpW1HmDe/oK0T8tKuntUuziQ3dnHyMH5AYo/2YuOxBusNqPM7AbDgL6uCMV1p2w22ul2cxIoF6Pup5ve/8MvFfUg6EjBLb67UmzLbgDC7OLR3cRYaMxXnxUacalbCkHT6YpTSLP3JQurIGDm7Xg0BIJz/u16dED/2yCg5Wz8vUECyH2Q12BoBjbRgIelLS/xLf4xSmqW/MQAlCu3xcL1zBEiBDvb9oubQK6OU8/WiHPiFTI/D9gTtZOFz9ltpEPJ9qBkrTMrfSWEA2WgHQoOWHNRvBVnL/GUuhyF9d79RaQPaz1suo1mO/V9uUIex6kciLn6jqDe4hEaqSerdxqHma10XZIxz0Jor3FhGVC7n5oa0hLX3y70JTNpLtMglqPn0D7/iS/9qpMn+sjUqp+jQO/cmwJvr4vxvde5ac12JrHfuTWDeripky6yxn3sdH/7/q9cTbMXBCZdsajT1c69jnN3zHl4aUeqFy9U9azLHHqwyNiHeuSYYz+6IdfNu7wIcMGDAgAEDBgwY8BJ4e/sPyud71971I9EAAAAASUVORK5CYII=;" vertex="1" parent="1">
          <mxGeometry x="1203" y="160" width="100" height="40.3" as="geometry" />
        </mxCell>
        <mxCell id="hMHybNNGIAyjDT_4vl0r-50" value="" style="rounded=0;whiteSpace=wrap;html=1;fillColor=#6d8764;strokeColor=#3A5431;fontColor=#ffffff;" vertex="1" parent="1">
          <mxGeometry x="1332" y="220" width="120" height="110" as="geometry" />
        </mxCell>
        <mxCell id="hMHybNNGIAyjDT_4vl0r-51" value="" style="endArrow=none;html=1;rounded=0;exitX=0.009;exitY=0.124;exitDx=0;exitDy=0;exitPerimeter=0;entryX=1.006;entryY=0.124;entryDx=0;entryDy=0;entryPerimeter=0;fillColor=#e1d5e7;strokeColor=#000000;" edge="1" parent="1">
          <mxGeometry width="50" height="50" relative="1" as="geometry">
            <mxPoint x="1332.08" y="233.764" as="sourcePoint" />
            <mxPoint x="1451.72" y="233.764" as="targetPoint" />
          </mxGeometry>
        </mxCell>
        <mxCell id="hMHybNNGIAyjDT_4vl0r-52" value="" style="endArrow=none;html=1;rounded=0;exitX=0.009;exitY=0.124;exitDx=0;exitDy=0;exitPerimeter=0;entryX=1.006;entryY=0.124;entryDx=0;entryDy=0;entryPerimeter=0;fillColor=#e1d5e7;strokeColor=#000000;" edge="1" parent="1">
          <mxGeometry width="50" height="50" relative="1" as="geometry">
            <mxPoint x="1332" y="244.64" as="sourcePoint" />
            <mxPoint x="1452" y="244.64" as="targetPoint" />
          </mxGeometry>
        </mxCell>
        <mxCell id="hMHybNNGIAyjDT_4vl0r-53" value="" style="endArrow=none;html=1;rounded=0;exitX=0.009;exitY=0.124;exitDx=0;exitDy=0;exitPerimeter=0;entryX=1.006;entryY=0.124;entryDx=0;entryDy=0;entryPerimeter=0;fillColor=#e1d5e7;strokeColor=#000000;" edge="1" parent="1">
          <mxGeometry width="50" height="50" relative="1" as="geometry">
            <mxPoint x="1332.08" y="253.824" as="sourcePoint" />
            <mxPoint x="1451.72" y="253.824" as="targetPoint" />
          </mxGeometry>
        </mxCell>
        <mxCell id="hMHybNNGIAyjDT_4vl0r-54" value="" style="endArrow=none;html=1;rounded=0;exitX=0.009;exitY=0.124;exitDx=0;exitDy=0;exitPerimeter=0;entryX=1.006;entryY=0.124;entryDx=0;entryDy=0;entryPerimeter=0;fillColor=#e1d5e7;strokeColor=#000000;" edge="1" parent="1">
          <mxGeometry width="50" height="50" relative="1" as="geometry">
            <mxPoint x="1332" y="264.7" as="sourcePoint" />
            <mxPoint x="1452" y="264.7" as="targetPoint" />
          </mxGeometry>
        </mxCell>
        <mxCell id="hMHybNNGIAyjDT_4vl0r-55" value="" style="endArrow=none;html=1;rounded=0;exitX=0.009;exitY=0.124;exitDx=0;exitDy=0;exitPerimeter=0;entryX=1.006;entryY=0.124;entryDx=0;entryDy=0;entryPerimeter=0;fillColor=#e1d5e7;strokeColor=#000000;" edge="1" parent="1">
          <mxGeometry width="50" height="50" relative="1" as="geometry">
            <mxPoint x="1332.08" y="274.004" as="sourcePoint" />
            <mxPoint x="1451.72" y="274.004" as="targetPoint" />
          </mxGeometry>
        </mxCell>
        <mxCell id="hMHybNNGIAyjDT_4vl0r-56" value="" style="endArrow=none;html=1;rounded=0;exitX=0.009;exitY=0.124;exitDx=0;exitDy=0;exitPerimeter=0;entryX=1.006;entryY=0.124;entryDx=0;entryDy=0;entryPerimeter=0;fillColor=#e1d5e7;strokeColor=#000000;" edge="1" parent="1">
          <mxGeometry width="50" height="50" relative="1" as="geometry">
            <mxPoint x="1332" y="284.88" as="sourcePoint" />
            <mxPoint x="1452" y="284.88" as="targetPoint" />
          </mxGeometry>
        </mxCell>
        <mxCell id="hMHybNNGIAyjDT_4vl0r-57" value="" style="endArrow=none;html=1;rounded=0;exitX=0.009;exitY=0.124;exitDx=0;exitDy=0;exitPerimeter=0;entryX=1.006;entryY=0.124;entryDx=0;entryDy=0;entryPerimeter=0;fillColor=#e1d5e7;strokeColor=#000000;" edge="1" parent="1">
          <mxGeometry width="50" height="50" relative="1" as="geometry">
            <mxPoint x="1332.08" y="294.064" as="sourcePoint" />
            <mxPoint x="1451.72" y="294.064" as="targetPoint" />
          </mxGeometry>
        </mxCell>
        <mxCell id="hMHybNNGIAyjDT_4vl0r-58" value="" style="endArrow=none;html=1;rounded=0;exitX=0.009;exitY=0.124;exitDx=0;exitDy=0;exitPerimeter=0;entryX=1.006;entryY=0.124;entryDx=0;entryDy=0;entryPerimeter=0;fillColor=#e1d5e7;strokeColor=#000000;" edge="1" parent="1">
          <mxGeometry width="50" height="50" relative="1" as="geometry">
            <mxPoint x="1332" y="304.94" as="sourcePoint" />
            <mxPoint x="1452" y="304.94" as="targetPoint" />
          </mxGeometry>
        </mxCell>
        <mxCell id="hMHybNNGIAyjDT_4vl0r-59" value="" style="endArrow=none;html=1;rounded=0;exitX=0.009;exitY=0.124;exitDx=0;exitDy=0;exitPerimeter=0;entryX=1.006;entryY=0.124;entryDx=0;entryDy=0;entryPerimeter=0;fillColor=#e1d5e7;strokeColor=#000000;" edge="1" parent="1">
          <mxGeometry width="50" height="50" relative="1" as="geometry">
            <mxPoint x="1332" y="318.39" as="sourcePoint" />
            <mxPoint x="1452" y="318.39" as="targetPoint" />
          </mxGeometry>
        </mxCell>
        <mxCell id="hMHybNNGIAyjDT_4vl0r-60" value="" style="endArrow=none;html=1;rounded=0;entryX=0.122;entryY=0.001;entryDx=0;entryDy=0;entryPerimeter=0;exitX=0.121;exitY=1;exitDx=0;exitDy=0;exitPerimeter=0;" edge="1" parent="1" source="hMHybNNGIAyjDT_4vl0r-50" target="hMHybNNGIAyjDT_4vl0r-50">
          <mxGeometry width="50" height="50" relative="1" as="geometry">
            <mxPoint x="1332" y="400" as="sourcePoint" />
            <mxPoint x="1382" y="350" as="targetPoint" />
          </mxGeometry>
        </mxCell>
        <mxCell id="hMHybNNGIAyjDT_4vl0r-61" value="" style="endArrow=none;html=1;rounded=0;entryX=0.122;entryY=0.001;entryDx=0;entryDy=0;entryPerimeter=0;exitX=0.121;exitY=1;exitDx=0;exitDy=0;exitPerimeter=0;" edge="1" parent="1">
          <mxGeometry width="50" height="50" relative="1" as="geometry">
            <mxPoint x="1362" y="330" as="sourcePoint" />
            <mxPoint x="1362" y="220" as="targetPoint" />
          </mxGeometry>
        </mxCell>
        <mxCell id="hMHybNNGIAyjDT_4vl0r-62" value="" style="endArrow=none;html=1;rounded=0;entryX=0.122;entryY=0.001;entryDx=0;entryDy=0;entryPerimeter=0;exitX=0.121;exitY=1;exitDx=0;exitDy=0;exitPerimeter=0;" edge="1" parent="1">
          <mxGeometry width="50" height="50" relative="1" as="geometry">
            <mxPoint x="1379" y="330" as="sourcePoint" />
            <mxPoint x="1379" y="220" as="targetPoint" />
          </mxGeometry>
        </mxCell>
        <mxCell id="hMHybNNGIAyjDT_4vl0r-63" value="" style="endArrow=none;html=1;rounded=0;entryX=0.122;entryY=0.001;entryDx=0;entryDy=0;entryPerimeter=0;exitX=0.121;exitY=1;exitDx=0;exitDy=0;exitPerimeter=0;" edge="1" parent="1">
          <mxGeometry width="50" height="50" relative="1" as="geometry">
            <mxPoint x="1395" y="330" as="sourcePoint" />
            <mxPoint x="1395" y="220" as="targetPoint" />
          </mxGeometry>
        </mxCell>
        <mxCell id="hMHybNNGIAyjDT_4vl0r-64" value="" style="endArrow=none;dashed=1;html=1;dashPattern=1 3;strokeWidth=2;rounded=0;" edge="1" parent="1">
          <mxGeometry width="50" height="50" relative="1" as="geometry">
            <mxPoint x="1402" y="229.57" as="sourcePoint" />
            <mxPoint x="1432" y="229.57" as="targetPoint" />
          </mxGeometry>
        </mxCell>
        <mxCell id="hMHybNNGIAyjDT_4vl0r-65" value="" style="endArrow=classic;startArrow=classic;html=1;rounded=0;" edge="1" parent="1">
          <mxGeometry width="50" height="50" relative="1" as="geometry">
            <mxPoint x="1332" y="340" as="sourcePoint" />
            <mxPoint x="1452" y="340" as="targetPoint" />
          </mxGeometry>
        </mxCell>
        <mxCell id="hMHybNNGIAyjDT_4vl0r-66" value="&lt;i&gt;d&lt;sub&gt;model&lt;/sub&gt;=d&lt;/i&gt;" style="text;html=1;align=center;verticalAlign=middle;whiteSpace=wrap;rounded=0;" vertex="1" parent="1">
          <mxGeometry x="1362" y="334" width="60" height="30" as="geometry" />
        </mxCell>
        <mxCell id="hMHybNNGIAyjDT_4vl0r-67" value="" style="endArrow=classic;startArrow=classic;html=1;rounded=0;" edge="1" parent="1">
          <mxGeometry width="50" height="50" relative="1" as="geometry">
            <mxPoint x="1325" y="330" as="sourcePoint" />
            <mxPoint x="1325" y="220" as="targetPoint" />
          </mxGeometry>
        </mxCell>
        <mxCell id="hMHybNNGIAyjDT_4vl0r-68" value="" style="endArrow=none;html=1;rounded=0;entryX=0.122;entryY=0.001;entryDx=0;entryDy=0;entryPerimeter=0;exitX=0.121;exitY=1;exitDx=0;exitDy=0;exitPerimeter=0;" edge="1" parent="1">
          <mxGeometry width="50" height="50" relative="1" as="geometry">
            <mxPoint x="1438" y="330" as="sourcePoint" />
            <mxPoint x="1438" y="220" as="targetPoint" />
          </mxGeometry>
        </mxCell>
        <mxCell id="hMHybNNGIAyjDT_4vl0r-69" value="N" style="text;html=1;align=center;verticalAlign=middle;whiteSpace=wrap;rounded=0;" vertex="1" parent="1">
          <mxGeometry x="1310" y="261" width="10" height="30" as="geometry" />
        </mxCell>
        <mxCell id="hMHybNNGIAyjDT_4vl0r-70" value="" style="rounded=0;whiteSpace=wrap;html=1;fillColor=#e1d5e7;strokeColor=#9673a6;" vertex="1" parent="1">
          <mxGeometry x="436" y="530" width="45" height="110" as="geometry" />
        </mxCell>
        <mxCell id="hMHybNNGIAyjDT_4vl0r-71" value="" style="rounded=0;whiteSpace=wrap;html=1;fillColor=#e1d5e7;strokeColor=#9673a6;" vertex="1" parent="1">
          <mxGeometry x="482" y="530" width="45" height="110" as="geometry" />
        </mxCell>
        <mxCell id="hMHybNNGIAyjDT_4vl0r-72" value="" style="rounded=0;whiteSpace=wrap;html=1;fillColor=#e1d5e7;strokeColor=#9673a6;" vertex="1" parent="1">
          <mxGeometry x="528" y="530" width="45" height="110" as="geometry" />
        </mxCell>
        <mxCell id="hMHybNNGIAyjDT_4vl0r-75" value="" style="endArrow=none;dashed=1;html=1;dashPattern=1 3;strokeWidth=2;rounded=0;exitX=1.014;exitY=0.534;exitDx=0;exitDy=0;exitPerimeter=0;" edge="1" parent="1" source="hMHybNNGIAyjDT_4vl0r-72">
          <mxGeometry width="50" height="50" relative="1" as="geometry">
            <mxPoint x="630" y="650" as="sourcePoint" />
            <mxPoint x="610" y="589" as="targetPoint" />
          </mxGeometry>
        </mxCell>
        <mxCell id="hMHybNNGIAyjDT_4vl0r-76" value="" style="rounded=0;whiteSpace=wrap;html=1;fillColor=#e1d5e7;strokeColor=#9673a6;" vertex="1" parent="1">
          <mxGeometry x="606" y="530" width="45" height="110" as="geometry" />
        </mxCell>
        <mxCell id="hMHybNNGIAyjDT_4vl0r-77" value="" style="endArrow=classic;startArrow=classic;html=1;rounded=0;" edge="1" parent="1">
          <mxGeometry width="50" height="50" relative="1" as="geometry">
            <mxPoint x="436" y="652" as="sourcePoint" />
            <mxPoint x="650" y="652" as="targetPoint" />
          </mxGeometry>
        </mxCell>
        <mxCell id="hMHybNNGIAyjDT_4vl0r-78" value="&lt;i&gt;d&lt;sub&gt;model&amp;nbsp;&lt;/sub&gt;= h x d&lt;sub&gt;head&lt;/sub&gt;&amp;nbsp;&lt;/i&gt;" style="text;html=1;align=center;verticalAlign=middle;whiteSpace=wrap;rounded=0;" vertex="1" parent="1">
          <mxGeometry x="504.5" y="651.5" width="113" height="30" as="geometry" />
        </mxCell>
        <mxCell id="hMHybNNGIAyjDT_4vl0r-81" value="" style="endArrow=classic;html=1;rounded=0;exitX=0.546;exitY=-0.009;exitDx=0;exitDy=0;exitPerimeter=0;entryX=-0.002;entryY=0.149;entryDx=0;entryDy=0;entryPerimeter=0;edgeStyle=orthogonalEdgeStyle;" edge="1" parent="1" source="hMHybNNGIAyjDT_4vl0r-70" target="hMHybNNGIAyjDT_4vl0r-4">
          <mxGeometry width="50" height="50" relative="1" as="geometry">
            <mxPoint x="470" y="520" as="sourcePoint" />
            <mxPoint x="520" y="470" as="targetPoint" />
            <Array as="points">
              <mxPoint x="461" y="510" />
            </Array>
          </mxGeometry>
        </mxCell>
        <mxCell id="hMHybNNGIAyjDT_4vl0r-82" value="" style="endArrow=classic;html=1;rounded=0;entryX=0.006;entryY=0.545;entryDx=0;entryDy=0;entryPerimeter=0;edgeStyle=orthogonalEdgeStyle;" edge="1" parent="1" target="hMHybNNGIAyjDT_4vl0r-7">
          <mxGeometry width="50" height="50" relative="1" as="geometry">
            <mxPoint x="680" y="510" as="sourcePoint" />
            <mxPoint x="730" y="570" as="targetPoint" />
            <Array as="points">
              <mxPoint x="680" y="622" />
            </Array>
          </mxGeometry>
        </mxCell>
        <mxCell id="hMHybNNGIAyjDT_4vl0r-84" value="" style="endArrow=classic;html=1;rounded=0;entryX=0.007;entryY=0.463;entryDx=0;entryDy=0;entryPerimeter=0;edgeStyle=orthogonalEdgeStyle;" edge="1" parent="1" target="hMHybNNGIAyjDT_4vl0r-13">
          <mxGeometry width="50" height="50" relative="1" as="geometry">
            <mxPoint x="680" y="620" as="sourcePoint" />
            <mxPoint x="690" y="680" as="targetPoint" />
            <Array as="points">
              <mxPoint x="680" y="700" />
            </Array>
          </mxGeometry>
        </mxCell>
        <mxCell id="hMHybNNGIAyjDT_4vl0r-88" value="" style="endArrow=classic;startArrow=classic;html=1;rounded=0;entryX=0.207;entryY=0.071;entryDx=0;entryDy=0;entryPerimeter=0;" edge="1" parent="1">
          <mxGeometry width="50" height="50" relative="1" as="geometry">
            <mxPoint x="797" y="512" as="sourcePoint" />
            <mxPoint x="786.8959599999998" y="491.8800000000001" as="targetPoint" />
          </mxGeometry>
        </mxCell>
        <mxCell id="hMHybNNGIAyjDT_4vl0r-89" value="h" style="text;html=1;align=center;verticalAlign=middle;whiteSpace=wrap;rounded=0;" vertex="1" parent="1">
          <mxGeometry x="780" y="473.5" width="30" height="30" as="geometry" />
        </mxCell>
        <mxCell id="hMHybNNGIAyjDT_4vl0r-90" value="&lt;div&gt;h = 8 - Vanilla&lt;/div&gt;h = 12 - BERT&lt;div&gt;h = 2 - BERT-Tiny&lt;/div&gt;" style="text;html=1;align=center;verticalAlign=middle;whiteSpace=wrap;rounded=0;" vertex="1" parent="1">
          <mxGeometry x="475.5" y="734" width="150" height="40" as="geometry" />
        </mxCell>
        <mxCell id="hMHybNNGIAyjDT_4vl0r-92" value="" style="endArrow=none;dashed=1;html=1;rounded=0;strokeWidth=1;" edge="1" parent="1">
          <mxGeometry width="50" height="50" relative="1" as="geometry">
            <mxPoint x="799.58" y="752.5" as="sourcePoint" />
            <mxPoint x="799.58" y="492.5" as="targetPoint" />
          </mxGeometry>
        </mxCell>
        <mxCell id="hMHybNNGIAyjDT_4vl0r-93" style="edgeStyle=orthogonalEdgeStyle;rounded=0;orthogonalLoop=1;jettySize=auto;html=1;entryX=0;entryY=0.5;entryDx=0;entryDy=0;" edge="1" parent="1">
          <mxGeometry relative="1" as="geometry">
            <mxPoint x="789.98" y="619.25" as="sourcePoint" />
            <mxPoint x="815.9799999999999" y="619.75" as="targetPoint" />
          </mxGeometry>
        </mxCell>
        <mxCell id="hMHybNNGIAyjDT_4vl0r-96" value="" style="ellipse;whiteSpace=wrap;html=1;aspect=fixed;fillColor=none;" vertex="1" parent="1">
          <mxGeometry x="849.58" y="572" width="10" height="10" as="geometry" />
        </mxCell>
        <mxCell id="hMHybNNGIAyjDT_4vl0r-97" value="" style="endArrow=none;html=1;rounded=0;entryX=1;entryY=0;entryDx=0;entryDy=0;exitX=0.46;exitY=-0.047;exitDx=0;exitDy=0;exitPerimeter=0;" edge="1" parent="1" target="hMHybNNGIAyjDT_4vl0r-96">
          <mxGeometry width="50" height="50" relative="1" as="geometry">
            <mxPoint x="851.4599999999998" y="580.633" as="sourcePoint" />
            <mxPoint x="878.58" y="578.5" as="targetPoint" />
          </mxGeometry>
        </mxCell>
        <mxCell id="hMHybNNGIAyjDT_4vl0r-98" value="" style="endArrow=none;html=1;rounded=0;entryX=0;entryY=0;entryDx=0;entryDy=0;exitX=1;exitY=1;exitDx=0;exitDy=0;" edge="1" parent="1" source="hMHybNNGIAyjDT_4vl0r-96" target="hMHybNNGIAyjDT_4vl0r-96">
          <mxGeometry width="50" height="50" relative="1" as="geometry">
            <mxPoint x="852.58" y="590.5" as="sourcePoint" />
            <mxPoint x="859.58" y="583.5" as="targetPoint" />
          </mxGeometry>
        </mxCell>
        <mxCell id="hMHybNNGIAyjDT_4vl0r-99" value="" style="rounded=0;whiteSpace=wrap;html=1;fillColor=#ffe6cc;strokeColor=#d79b00;" vertex="1" parent="1">
          <mxGeometry x="816.4899999999999" y="516.5" width="64" height="32" as="geometry" />
        </mxCell>
        <mxCell id="hMHybNNGIAyjDT_4vl0r-100" value="" style="rounded=0;whiteSpace=wrap;html=1;fillColor=#ffe6cc;strokeColor=#d79b00;" vertex="1" parent="1">
          <mxGeometry x="819.6599999999999" y="519.5" width="64" height="32" as="geometry" />
        </mxCell>
        <mxCell id="hMHybNNGIAyjDT_4vl0r-101" value="" style="rounded=0;whiteSpace=wrap;html=1;fillColor=#ffe6cc;strokeColor=#d79b00;" vertex="1" parent="1">
          <mxGeometry x="822.6599999999999" y="522.5" width="64" height="32" as="geometry" />
        </mxCell>
        <mxCell id="hMHybNNGIAyjDT_4vl0r-103" value="" style="rounded=0;whiteSpace=wrap;html=1;fillColor=#b0e3e6;strokeColor=#0e8088;" vertex="1" parent="1">
          <mxGeometry x="816.5799999999999" y="603.5" width="64" height="32" as="geometry" />
        </mxCell>
        <mxCell id="hMHybNNGIAyjDT_4vl0r-104" value="" style="rounded=0;whiteSpace=wrap;html=1;fillColor=#b0e3e6;strokeColor=#0e8088;" vertex="1" parent="1">
          <mxGeometry x="819.7499999999999" y="606.5" width="64" height="32" as="geometry" />
        </mxCell>
        <mxCell id="hMHybNNGIAyjDT_4vl0r-105" value="" style="rounded=0;whiteSpace=wrap;html=1;fillColor=#b0e3e6;strokeColor=#0e8088;" vertex="1" parent="1">
          <mxGeometry x="822.7499999999999" y="609.5" width="64" height="32" as="geometry" />
        </mxCell>
        <mxCell id="hMHybNNGIAyjDT_4vl0r-106" style="edgeStyle=orthogonalEdgeStyle;rounded=0;orthogonalLoop=1;jettySize=auto;html=1;entryX=0;entryY=0.5;entryDx=0;entryDy=0;" edge="1" parent="1">
          <mxGeometry relative="1" as="geometry">
            <mxPoint x="789.58" y="535.25" as="sourcePoint" />
            <mxPoint x="815.5799999999999" y="535.75" as="targetPoint" />
          </mxGeometry>
        </mxCell>
        <mxCell id="hMHybNNGIAyjDT_4vl0r-111" value="" style="rounded=0;whiteSpace=wrap;html=1;fillColor=#dae8fc;strokeColor=#6c8ebf;" vertex="1" parent="1">
          <mxGeometry x="912.8599999999999" y="558" width="64" height="32" as="geometry" />
        </mxCell>
        <mxCell id="hMHybNNGIAyjDT_4vl0r-112" value="" style="rounded=0;whiteSpace=wrap;html=1;fillColor=#dae8fc;strokeColor=#6c8ebf;" vertex="1" parent="1">
          <mxGeometry x="916.0299999999999" y="561" width="64" height="32" as="geometry" />
        </mxCell>
        <mxCell id="hMHybNNGIAyjDT_4vl0r-113" value="" style="rounded=0;whiteSpace=wrap;html=1;fillColor=#dae8fc;strokeColor=#6c8ebf;" vertex="1" parent="1">
          <mxGeometry x="919.0299999999999" y="564" width="64" height="32" as="geometry" />
        </mxCell>
        <mxCell id="hMHybNNGIAyjDT_4vl0r-114" value="" style="endArrow=none;dashed=1;html=1;rounded=0;strokeWidth=1;" edge="1" parent="1">
          <mxGeometry width="50" height="50" relative="1" as="geometry">
            <mxPoint x="990.86" y="755.5" as="sourcePoint" />
            <mxPoint x="990.86" y="495.5" as="targetPoint" />
          </mxGeometry>
        </mxCell>
        <mxCell id="hMHybNNGIAyjDT_4vl0r-115" value="" style="rounded=0;whiteSpace=wrap;html=1;fillColor=#dae8fc;strokeColor=#6c8ebf;" vertex="1" parent="1">
          <mxGeometry x="998.8599999999999" y="603.5" width="64" height="32" as="geometry" />
        </mxCell>
        <mxCell id="hMHybNNGIAyjDT_4vl0r-116" value="" style="rounded=0;whiteSpace=wrap;html=1;fillColor=#dae8fc;strokeColor=#6c8ebf;" vertex="1" parent="1">
          <mxGeometry x="1002.0299999999999" y="606.5" width="64" height="32" as="geometry" />
        </mxCell>
        <mxCell id="hMHybNNGIAyjDT_4vl0r-117" value="" style="rounded=0;whiteSpace=wrap;html=1;fillColor=#dae8fc;strokeColor=#6c8ebf;" vertex="1" parent="1">
          <mxGeometry x="1005.0299999999999" y="609.5" width="64" height="32" as="geometry" />
        </mxCell>
        <mxCell id="hMHybNNGIAyjDT_4vl0r-118" value="" style="endArrow=none;dashed=1;html=1;rounded=0;strokeWidth=1;" edge="1" parent="1">
          <mxGeometry width="50" height="50" relative="1" as="geometry">
            <mxPoint x="1076.8600000000001" y="755.5" as="sourcePoint" />
            <mxPoint x="1076.8600000000001" y="495.5" as="targetPoint" />
          </mxGeometry>
        </mxCell>
        <mxCell id="hMHybNNGIAyjDT_4vl0r-119" value="" style="rounded=0;whiteSpace=wrap;html=1;fillColor=#dae8fc;strokeColor=#6c8ebf;" vertex="1" parent="1">
          <mxGeometry x="1087" y="606.5" width="64" height="32" as="geometry" />
        </mxCell>
        <mxCell id="hMHybNNGIAyjDT_4vl0r-120" value="" style="rounded=0;whiteSpace=wrap;html=1;fillColor=#dae8fc;strokeColor=#6c8ebf;" vertex="1" parent="1">
          <mxGeometry x="1090.1699999999998" y="609.5" width="64" height="32" as="geometry" />
        </mxCell>
        <mxCell id="hMHybNNGIAyjDT_4vl0r-121" value="" style="rounded=0;whiteSpace=wrap;html=1;fillColor=#dae8fc;strokeColor=#6c8ebf;" vertex="1" parent="1">
          <mxGeometry x="1093.1699999999998" y="612.5" width="64" height="32" as="geometry" />
        </mxCell>
        <mxCell id="hMHybNNGIAyjDT_4vl0r-122" value="" style="endArrow=none;dashed=1;html=1;rounded=0;strokeWidth=1;" edge="1" parent="1">
          <mxGeometry width="50" height="50" relative="1" as="geometry">
            <mxPoint x="1170.0000000000002" y="755.5" as="sourcePoint" />
            <mxPoint x="1170.0000000000002" y="495.5" as="targetPoint" />
          </mxGeometry>
        </mxCell>
        <mxCell id="hMHybNNGIAyjDT_4vl0r-123" value="" style="rounded=0;whiteSpace=wrap;html=1;fillColor=#dae8fc;strokeColor=#6c8ebf;" vertex="1" parent="1">
          <mxGeometry x="1177.83" y="609.5" width="64" height="32" as="geometry" />
        </mxCell>
        <mxCell id="hMHybNNGIAyjDT_4vl0r-124" value="" style="rounded=0;whiteSpace=wrap;html=1;fillColor=#dae8fc;strokeColor=#6c8ebf;" vertex="1" parent="1">
          <mxGeometry x="1180.9999999999998" y="612.5" width="64" height="32" as="geometry" />
        </mxCell>
        <mxCell id="hMHybNNGIAyjDT_4vl0r-125" value="" style="rounded=0;whiteSpace=wrap;html=1;fillColor=#dae8fc;strokeColor=#6c8ebf;" vertex="1" parent="1">
          <mxGeometry x="1183.9999999999998" y="615.5" width="64" height="32" as="geometry" />
        </mxCell>
        <mxCell id="hMHybNNGIAyjDT_4vl0r-127" value="" style="ellipse;whiteSpace=wrap;html=1;aspect=fixed;fillColor=none;" vertex="1" parent="1">
          <mxGeometry x="1211" y="654" width="10" height="10" as="geometry" />
        </mxCell>
        <mxCell id="hMHybNNGIAyjDT_4vl0r-128" value="" style="endArrow=none;html=1;rounded=0;entryX=1;entryY=0;entryDx=0;entryDy=0;exitX=0.46;exitY=-0.047;exitDx=0;exitDy=0;exitPerimeter=0;" edge="1" parent="1" target="hMHybNNGIAyjDT_4vl0r-127">
          <mxGeometry width="50" height="50" relative="1" as="geometry">
            <mxPoint x="1213" y="662.5" as="sourcePoint" />
            <mxPoint x="1240" y="660.5" as="targetPoint" />
          </mxGeometry>
        </mxCell>
        <mxCell id="hMHybNNGIAyjDT_4vl0r-129" value="" style="endArrow=none;html=1;rounded=0;entryX=0;entryY=0;entryDx=0;entryDy=0;exitX=1;exitY=1;exitDx=0;exitDy=0;" edge="1" parent="1" source="hMHybNNGIAyjDT_4vl0r-127" target="hMHybNNGIAyjDT_4vl0r-127">
          <mxGeometry width="50" height="50" relative="1" as="geometry">
            <mxPoint x="1214" y="672.5" as="sourcePoint" />
            <mxPoint x="1221" y="665.5" as="targetPoint" />
          </mxGeometry>
        </mxCell>
        <mxCell id="hMHybNNGIAyjDT_4vl0r-131" value="" style="endArrow=none;dashed=1;html=1;rounded=0;strokeWidth=1;" edge="1" parent="1">
          <mxGeometry width="50" height="50" relative="1" as="geometry">
            <mxPoint x="1252.8000000000002" y="755.5" as="sourcePoint" />
            <mxPoint x="1252.8000000000002" y="495.5" as="targetPoint" />
          </mxGeometry>
        </mxCell>
        <mxCell id="hMHybNNGIAyjDT_4vl0r-132" value="Z&lt;sub&gt;1&lt;/sub&gt;" style="rounded=0;whiteSpace=wrap;html=1;fillColor=#ffcccc;strokeColor=#36393d;" vertex="1" parent="1">
          <mxGeometry x="1265.9999999999998" y="527.5" width="64" height="32" as="geometry" />
        </mxCell>
        <mxCell id="hMHybNNGIAyjDT_4vl0r-133" value="Z&lt;sub&gt;2&lt;/sub&gt;" style="rounded=0;whiteSpace=wrap;html=1;fillColor=#ffcccc;strokeColor=#36393d;" vertex="1" parent="1">
          <mxGeometry x="1265.9999999999998" y="574" width="64" height="32" as="geometry" />
        </mxCell>
        <mxCell id="hMHybNNGIAyjDT_4vl0r-134" value="" style="endArrow=none;dashed=1;html=1;dashPattern=1 3;strokeWidth=2;rounded=0;entryX=0.5;entryY=1;entryDx=0;entryDy=0;exitX=0.5;exitY=0;exitDx=0;exitDy=0;" edge="1" parent="1" source="hMHybNNGIAyjDT_4vl0r-135" target="hMHybNNGIAyjDT_4vl0r-133">
          <mxGeometry width="50" height="50" relative="1" as="geometry">
            <mxPoint x="1290" y="651" as="sourcePoint" />
            <mxPoint x="1330" y="661" as="targetPoint" />
          </mxGeometry>
        </mxCell>
        <mxCell id="hMHybNNGIAyjDT_4vl0r-135" value="Z&lt;sub&gt;h&lt;/sub&gt;" style="rounded=0;whiteSpace=wrap;html=1;fillColor=#ffcccc;strokeColor=#36393d;" vertex="1" parent="1">
          <mxGeometry x="1265.9999999999998" y="702.5" width="64" height="32" as="geometry" />
        </mxCell>
        <mxCell id="hMHybNNGIAyjDT_4vl0r-136" value="" style="shape=curlyBracket;whiteSpace=wrap;html=1;rounded=1;labelPosition=left;verticalLabelPosition=middle;align=right;verticalAlign=middle;rotation=-180;" vertex="1" parent="1">
          <mxGeometry x="1340" y="530" width="10" height="204.5" as="geometry" />
        </mxCell>
        <mxCell id="hMHybNNGIAyjDT_4vl0r-137" value="" style="endArrow=none;dashed=1;html=1;rounded=0;strokeWidth=1;" edge="1" parent="1">
          <mxGeometry width="50" height="50" relative="1" as="geometry">
            <mxPoint x="1360.0000000000002" y="755.5" as="sourcePoint" />
            <mxPoint x="1360.0000000000002" y="495.5" as="targetPoint" />
          </mxGeometry>
        </mxCell>
        <mxCell id="hMHybNNGIAyjDT_4vl0r-138" value="Concatanation" style="text;html=1;align=center;verticalAlign=middle;whiteSpace=wrap;rounded=0;" vertex="1" parent="1">
          <mxGeometry x="1253" y="501" width="90" height="30" as="geometry" />
        </mxCell>
        <mxCell id="hMHybNNGIAyjDT_4vl0r-139" value="" style="endArrow=none;dashed=1;html=1;rounded=0;strokeWidth=1;" edge="1" parent="1">
          <mxGeometry width="50" height="50" relative="1" as="geometry">
            <mxPoint x="1303" y="405" as="sourcePoint" />
            <mxPoint x="1303" y="145" as="targetPoint" />
          </mxGeometry>
        </mxCell>
        <mxCell id="hMHybNNGIAyjDT_4vl0r-140" value="" style="rounded=0;whiteSpace=wrap;html=1;fillColor=#d5e8d4;strokeColor=#82b366;" vertex="1" parent="1">
          <mxGeometry x="1477" y="221" width="120" height="110" as="geometry" />
        </mxCell>
        <mxCell id="hMHybNNGIAyjDT_4vl0r-141" value="" style="shape=image;verticalLabelPosition=bottom;labelBackgroundColor=default;verticalAlign=top;aspect=fixed;imageAspect=0;image=data:image/png,iVBORw0KGgoAAAANSUhEUgAAAGYAAAA+CAMAAADu3J7KAAAAAXNSR0IArs4c6QAAAARnQU1BAACxjwv8YQUAAACoUExURQAAAAAAAAAAAAAAAAAAAAAAAAAAAAAAAAAAAAAAAAAAAAAAAAAAAAAAAAAAAAAAAAAAAAAAAAAAAAAAAAAAAAAAAAAAAAAAAAAAAAAAAAAAAAAAAAAAAAAAAAAAAAAAAAAAAAAAAAAAAAAAAAAAAAAAAAAAAAAAAAAAAAAAAAAAAAAAAAAAAAAAAAAAAAAAAAAAAAAAAAAAAAAAAAAAAAAAAAAAAAAAACzfSIYAAAA3dFJOUwAECAoQFRgdICEoKzA2ODxAQkhQWGBibXB3eICEh42Pkpedn6Knr7K3uL/Nz9LX3+Hn7u/09/mX/Z0eAAAACXBIWXMAABcRAAAXEQHKJvM/AAAB+UlEQVRYR+2W21LCMBCGAyqe8IgiioqIVq0VRKz7/m/mn2S33d7oTBMumMl34y4d87FNdoNJJBKJRCKxecxyxzOn5jnPOZr6JzNOw7hbESguOB0g4fBmaZ+sLjkN5AJrlT1OTFFrzDni+TYnwZRE8p5cMZXmAP4DjsOZE2UcmlxrLokmHEYAS8s292mJreLEZLTschiB11qT0WhRafpEIw5jMKs0KKaL4+UTOOcRi7Ea7hoUY6q9QTEDH8VhKifNFlNrMip8EImxaDJ7sERzSnTsgliIpu+6VDRFfcrjcMMaV0yPNejTvv0bD3Sh1fRKW8wea4qYnelgzcQtzJqBGnORwOyExhcjmoLu3LOI4ExB44thzaA5Zjpnb/h4fr3FeSuchovxmm7RGDNnOd1umc4VfezwJ21Au+dSjNeMGmNmSD/+0run94B6sHLeK8nfLEgWmGtqzJwQjSX6OfJRG6xmIs1oNSM9ZrqfVQ37XyJswzZWLqUZoVkt9ZgZEsnvBGhCJgO2o/p/aNRl2igmhkYmi9OoMVPvTDNuAe7l6ltajR4z9/U70++vDbiXq+8PjR4znRf6lmZBHHLS/kJvjY4jo5cO3Jq/UIdLv7/YqGrWWIyaYyhmXTsDZI7BEjSf/2NI34fuLnhcXy2W3YcvXGlPcCUSiQ3FmF/KK1EjQxqMeAAAAABJRU5ErkJggg==;" vertex="1" parent="1">
          <mxGeometry x="1504.09" y="253" width="65.81" height="40" as="geometry" />
        </mxCell>
        <mxCell id="hMHybNNGIAyjDT_4vl0r-142" value="" style="rounded=0;whiteSpace=wrap;html=1;fillColor=#ffcccc;strokeColor=#36393d;" vertex="1" parent="1">
          <mxGeometry x="1384" y="561" width="120" height="110" as="geometry" />
        </mxCell>
        <mxCell id="hMHybNNGIAyjDT_4vl0r-143" value="" style="endArrow=none;html=1;rounded=0;exitX=0.009;exitY=0.124;exitDx=0;exitDy=0;exitPerimeter=0;entryX=1.006;entryY=0.124;entryDx=0;entryDy=0;entryPerimeter=0;fillColor=#e1d5e7;strokeColor=#000000;" edge="1" parent="1">
          <mxGeometry width="50" height="50" relative="1" as="geometry">
            <mxPoint x="1384.08" y="574.764" as="sourcePoint" />
            <mxPoint x="1503.72" y="574.764" as="targetPoint" />
          </mxGeometry>
        </mxCell>
        <mxCell id="hMHybNNGIAyjDT_4vl0r-144" value="" style="endArrow=none;html=1;rounded=0;exitX=0.009;exitY=0.124;exitDx=0;exitDy=0;exitPerimeter=0;entryX=1.006;entryY=0.124;entryDx=0;entryDy=0;entryPerimeter=0;fillColor=#e1d5e7;strokeColor=#000000;" edge="1" parent="1">
          <mxGeometry width="50" height="50" relative="1" as="geometry">
            <mxPoint x="1384" y="585.64" as="sourcePoint" />
            <mxPoint x="1504" y="585.64" as="targetPoint" />
          </mxGeometry>
        </mxCell>
        <mxCell id="hMHybNNGIAyjDT_4vl0r-145" value="" style="endArrow=none;html=1;rounded=0;exitX=0.009;exitY=0.124;exitDx=0;exitDy=0;exitPerimeter=0;entryX=1.006;entryY=0.124;entryDx=0;entryDy=0;entryPerimeter=0;fillColor=#e1d5e7;strokeColor=#000000;" edge="1" parent="1">
          <mxGeometry width="50" height="50" relative="1" as="geometry">
            <mxPoint x="1384.08" y="594.8240000000001" as="sourcePoint" />
            <mxPoint x="1503.72" y="594.8240000000001" as="targetPoint" />
          </mxGeometry>
        </mxCell>
        <mxCell id="hMHybNNGIAyjDT_4vl0r-146" value="" style="endArrow=none;html=1;rounded=0;exitX=0.009;exitY=0.124;exitDx=0;exitDy=0;exitPerimeter=0;entryX=1.006;entryY=0.124;entryDx=0;entryDy=0;entryPerimeter=0;fillColor=#e1d5e7;strokeColor=#000000;" edge="1" parent="1">
          <mxGeometry width="50" height="50" relative="1" as="geometry">
            <mxPoint x="1384" y="605.7" as="sourcePoint" />
            <mxPoint x="1504" y="605.7" as="targetPoint" />
          </mxGeometry>
        </mxCell>
        <mxCell id="hMHybNNGIAyjDT_4vl0r-147" value="" style="endArrow=none;html=1;rounded=0;exitX=0.009;exitY=0.124;exitDx=0;exitDy=0;exitPerimeter=0;entryX=1.006;entryY=0.124;entryDx=0;entryDy=0;entryPerimeter=0;fillColor=#e1d5e7;strokeColor=#000000;" edge="1" parent="1">
          <mxGeometry width="50" height="50" relative="1" as="geometry">
            <mxPoint x="1384.08" y="615.004" as="sourcePoint" />
            <mxPoint x="1503.72" y="615.004" as="targetPoint" />
          </mxGeometry>
        </mxCell>
        <mxCell id="hMHybNNGIAyjDT_4vl0r-148" value="" style="endArrow=none;html=1;rounded=0;exitX=0.009;exitY=0.124;exitDx=0;exitDy=0;exitPerimeter=0;entryX=1.006;entryY=0.124;entryDx=0;entryDy=0;entryPerimeter=0;fillColor=#e1d5e7;strokeColor=#000000;" edge="1" parent="1">
          <mxGeometry width="50" height="50" relative="1" as="geometry">
            <mxPoint x="1384" y="625.88" as="sourcePoint" />
            <mxPoint x="1504" y="625.88" as="targetPoint" />
          </mxGeometry>
        </mxCell>
        <mxCell id="hMHybNNGIAyjDT_4vl0r-149" value="" style="endArrow=none;html=1;rounded=0;exitX=0.009;exitY=0.124;exitDx=0;exitDy=0;exitPerimeter=0;entryX=1.006;entryY=0.124;entryDx=0;entryDy=0;entryPerimeter=0;fillColor=#e1d5e7;strokeColor=#000000;" edge="1" parent="1">
          <mxGeometry width="50" height="50" relative="1" as="geometry">
            <mxPoint x="1384.08" y="635.0640000000001" as="sourcePoint" />
            <mxPoint x="1503.72" y="635.0640000000001" as="targetPoint" />
          </mxGeometry>
        </mxCell>
        <mxCell id="hMHybNNGIAyjDT_4vl0r-150" value="" style="endArrow=none;html=1;rounded=0;exitX=0.009;exitY=0.124;exitDx=0;exitDy=0;exitPerimeter=0;entryX=1.006;entryY=0.124;entryDx=0;entryDy=0;entryPerimeter=0;fillColor=#e1d5e7;strokeColor=#000000;" edge="1" parent="1">
          <mxGeometry width="50" height="50" relative="1" as="geometry">
            <mxPoint x="1384" y="645.94" as="sourcePoint" />
            <mxPoint x="1504" y="645.94" as="targetPoint" />
          </mxGeometry>
        </mxCell>
        <mxCell id="hMHybNNGIAyjDT_4vl0r-151" value="" style="endArrow=none;html=1;rounded=0;exitX=0.009;exitY=0.124;exitDx=0;exitDy=0;exitPerimeter=0;entryX=1.006;entryY=0.124;entryDx=0;entryDy=0;entryPerimeter=0;fillColor=#e1d5e7;strokeColor=#000000;" edge="1" parent="1">
          <mxGeometry width="50" height="50" relative="1" as="geometry">
            <mxPoint x="1384" y="659.39" as="sourcePoint" />
            <mxPoint x="1504" y="659.39" as="targetPoint" />
          </mxGeometry>
        </mxCell>
        <mxCell id="hMHybNNGIAyjDT_4vl0r-152" value="" style="endArrow=none;html=1;rounded=0;entryX=0.122;entryY=0.001;entryDx=0;entryDy=0;entryPerimeter=0;exitX=0.121;exitY=1;exitDx=0;exitDy=0;exitPerimeter=0;" edge="1" parent="1" source="hMHybNNGIAyjDT_4vl0r-142" target="hMHybNNGIAyjDT_4vl0r-142">
          <mxGeometry width="50" height="50" relative="1" as="geometry">
            <mxPoint x="1384" y="741" as="sourcePoint" />
            <mxPoint x="1434" y="691" as="targetPoint" />
          </mxGeometry>
        </mxCell>
        <mxCell id="hMHybNNGIAyjDT_4vl0r-153" value="" style="endArrow=none;html=1;rounded=0;entryX=0.122;entryY=0.001;entryDx=0;entryDy=0;entryPerimeter=0;exitX=0.121;exitY=1;exitDx=0;exitDy=0;exitPerimeter=0;" edge="1" parent="1">
          <mxGeometry width="50" height="50" relative="1" as="geometry">
            <mxPoint x="1414" y="671" as="sourcePoint" />
            <mxPoint x="1414" y="561" as="targetPoint" />
          </mxGeometry>
        </mxCell>
        <mxCell id="hMHybNNGIAyjDT_4vl0r-154" value="" style="endArrow=none;html=1;rounded=0;entryX=0.122;entryY=0.001;entryDx=0;entryDy=0;entryPerimeter=0;exitX=0.121;exitY=1;exitDx=0;exitDy=0;exitPerimeter=0;" edge="1" parent="1">
          <mxGeometry width="50" height="50" relative="1" as="geometry">
            <mxPoint x="1431" y="671" as="sourcePoint" />
            <mxPoint x="1431" y="561" as="targetPoint" />
          </mxGeometry>
        </mxCell>
        <mxCell id="hMHybNNGIAyjDT_4vl0r-155" value="" style="endArrow=none;html=1;rounded=0;entryX=0.122;entryY=0.001;entryDx=0;entryDy=0;entryPerimeter=0;exitX=0.121;exitY=1;exitDx=0;exitDy=0;exitPerimeter=0;" edge="1" parent="1">
          <mxGeometry width="50" height="50" relative="1" as="geometry">
            <mxPoint x="1447" y="671" as="sourcePoint" />
            <mxPoint x="1447" y="561" as="targetPoint" />
          </mxGeometry>
        </mxCell>
        <mxCell id="hMHybNNGIAyjDT_4vl0r-156" value="" style="endArrow=none;dashed=1;html=1;dashPattern=1 3;strokeWidth=2;rounded=0;" edge="1" parent="1">
          <mxGeometry width="50" height="50" relative="1" as="geometry">
            <mxPoint x="1454" y="570.5699999999999" as="sourcePoint" />
            <mxPoint x="1484" y="570.5699999999999" as="targetPoint" />
          </mxGeometry>
        </mxCell>
        <mxCell id="hMHybNNGIAyjDT_4vl0r-157" value="" style="endArrow=classic;startArrow=classic;html=1;rounded=0;" edge="1" parent="1">
          <mxGeometry width="50" height="50" relative="1" as="geometry">
            <mxPoint x="1384" y="681" as="sourcePoint" />
            <mxPoint x="1504" y="681" as="targetPoint" />
          </mxGeometry>
        </mxCell>
        <mxCell id="hMHybNNGIAyjDT_4vl0r-158" value="&lt;i&gt;d&lt;sub&gt;model&lt;/sub&gt;=d&lt;/i&gt;" style="text;html=1;align=center;verticalAlign=middle;whiteSpace=wrap;rounded=0;" vertex="1" parent="1">
          <mxGeometry x="1414" y="675" width="60" height="30" as="geometry" />
        </mxCell>
        <mxCell id="hMHybNNGIAyjDT_4vl0r-159" value="" style="endArrow=classic;startArrow=classic;html=1;rounded=0;" edge="1" parent="1">
          <mxGeometry width="50" height="50" relative="1" as="geometry">
            <mxPoint x="1377" y="671" as="sourcePoint" />
            <mxPoint x="1377" y="561" as="targetPoint" />
          </mxGeometry>
        </mxCell>
        <mxCell id="hMHybNNGIAyjDT_4vl0r-160" value="" style="endArrow=none;html=1;rounded=0;entryX=0.122;entryY=0.001;entryDx=0;entryDy=0;entryPerimeter=0;exitX=0.121;exitY=1;exitDx=0;exitDy=0;exitPerimeter=0;" edge="1" parent="1">
          <mxGeometry width="50" height="50" relative="1" as="geometry">
            <mxPoint x="1490" y="671" as="sourcePoint" />
            <mxPoint x="1490" y="561" as="targetPoint" />
          </mxGeometry>
        </mxCell>
        <mxCell id="hMHybNNGIAyjDT_4vl0r-161" value="N" style="text;html=1;align=center;verticalAlign=middle;whiteSpace=wrap;rounded=0;" vertex="1" parent="1">
          <mxGeometry x="1362" y="602" width="10" height="30" as="geometry" />
        </mxCell>
        <mxCell id="hMHybNNGIAyjDT_4vl0r-162" value="" style="rounded=0;whiteSpace=wrap;html=1;fillColor=#d5e8d4;strokeColor=#82b366;" vertex="1" parent="1">
          <mxGeometry x="1530" y="561" width="120" height="110" as="geometry" />
        </mxCell>
        <mxCell id="hMHybNNGIAyjDT_4vl0r-163" value="" style="shape=image;verticalLabelPosition=bottom;labelBackgroundColor=default;verticalAlign=top;aspect=fixed;imageAspect=0;image=data:image/png,iVBORw0KGgoAAAANSUhEUgAAAGYAAAA+CAMAAADu3J7KAAAAAXNSR0IArs4c6QAAAARnQU1BAACxjwv8YQUAAACoUExURQAAAAAAAAAAAAAAAAAAAAAAAAAAAAAAAAAAAAAAAAAAAAAAAAAAAAAAAAAAAAAAAAAAAAAAAAAAAAAAAAAAAAAAAAAAAAAAAAAAAAAAAAAAAAAAAAAAAAAAAAAAAAAAAAAAAAAAAAAAAAAAAAAAAAAAAAAAAAAAAAAAAAAAAAAAAAAAAAAAAAAAAAAAAAAAAAAAAAAAAAAAAAAAAAAAAAAAAAAAAAAAACzfSIYAAAA3dFJOUwAECAoQFRgdICEoKzA2ODxAQkhQWGBibXB3eICEh42Pkpedn6Knr7K3uL/Nz9LX3+Hn7u/09/mX/Z0eAAAACXBIWXMAABcRAAAXEQHKJvM/AAAB+UlEQVRYR+2W21LCMBCGAyqe8IgiioqIVq0VRKz7/m/mn2S33d7oTBMumMl34y4d87FNdoNJJBKJRCKxecxyxzOn5jnPOZr6JzNOw7hbESguOB0g4fBmaZ+sLjkN5AJrlT1OTFFrzDni+TYnwZRE8p5cMZXmAP4DjsOZE2UcmlxrLokmHEYAS8s292mJreLEZLTschiB11qT0WhRafpEIw5jMKs0KKaL4+UTOOcRi7Ea7hoUY6q9QTEDH8VhKifNFlNrMip8EImxaDJ7sERzSnTsgliIpu+6VDRFfcrjcMMaV0yPNejTvv0bD3Sh1fRKW8wea4qYnelgzcQtzJqBGnORwOyExhcjmoLu3LOI4ExB44thzaA5Zjpnb/h4fr3FeSuchovxmm7RGDNnOd1umc4VfezwJ21Au+dSjNeMGmNmSD/+0run94B6sHLeK8nfLEgWmGtqzJwQjSX6OfJRG6xmIs1oNSM9ZrqfVQ37XyJswzZWLqUZoVkt9ZgZEsnvBGhCJgO2o/p/aNRl2igmhkYmi9OoMVPvTDNuAe7l6ltajR4z9/U70++vDbiXq+8PjR4znRf6lmZBHHLS/kJvjY4jo5cO3Jq/UIdLv7/YqGrWWIyaYyhmXTsDZI7BEjSf/2NI34fuLnhcXy2W3YcvXGlPcCUSiQ3FmF/KK1EjQxqMeAAAAABJRU5ErkJggg==;" vertex="1" parent="1">
          <mxGeometry x="1557.09" y="600" width="65.81" height="40" as="geometry" />
        </mxCell>
        <mxCell id="hMHybNNGIAyjDT_4vl0r-164" value="" style="ellipse;whiteSpace=wrap;html=1;aspect=fixed;fillColor=none;" vertex="1" parent="1">
          <mxGeometry x="1513.09" y="613.5" width="10" height="10" as="geometry" />
        </mxCell>
        <mxCell id="hMHybNNGIAyjDT_4vl0r-165" value="" style="endArrow=none;html=1;rounded=0;entryX=1;entryY=0;entryDx=0;entryDy=0;exitX=0.46;exitY=-0.047;exitDx=0;exitDy=0;exitPerimeter=0;" edge="1" parent="1" target="hMHybNNGIAyjDT_4vl0r-164">
          <mxGeometry width="50" height="50" relative="1" as="geometry">
            <mxPoint x="1515.09" y="622" as="sourcePoint" />
            <mxPoint x="1542.09" y="620" as="targetPoint" />
          </mxGeometry>
        </mxCell>
        <mxCell id="hMHybNNGIAyjDT_4vl0r-166" value="" style="endArrow=none;html=1;rounded=0;entryX=0;entryY=0;entryDx=0;entryDy=0;exitX=1;exitY=1;exitDx=0;exitDy=0;" edge="1" parent="1" source="hMHybNNGIAyjDT_4vl0r-164" target="hMHybNNGIAyjDT_4vl0r-164">
          <mxGeometry width="50" height="50" relative="1" as="geometry">
            <mxPoint x="1516.09" y="632" as="sourcePoint" />
            <mxPoint x="1523.09" y="625" as="targetPoint" />
          </mxGeometry>
        </mxCell>
        <mxCell id="hMHybNNGIAyjDT_4vl0r-167" value="" style="ellipse;whiteSpace=wrap;html=1;aspect=fixed;fillColor=none;" vertex="1" parent="1">
          <mxGeometry x="1462.09" y="274.5" width="10" height="10" as="geometry" />
        </mxCell>
        <mxCell id="hMHybNNGIAyjDT_4vl0r-168" value="" style="endArrow=none;html=1;rounded=0;entryX=1;entryY=0;entryDx=0;entryDy=0;exitX=0.46;exitY=-0.047;exitDx=0;exitDy=0;exitPerimeter=0;" edge="1" parent="1" target="hMHybNNGIAyjDT_4vl0r-167">
          <mxGeometry width="50" height="50" relative="1" as="geometry">
            <mxPoint x="1464.09" y="283" as="sourcePoint" />
            <mxPoint x="1491.09" y="281" as="targetPoint" />
          </mxGeometry>
        </mxCell>
        <mxCell id="hMHybNNGIAyjDT_4vl0r-169" value="" style="endArrow=none;html=1;rounded=0;entryX=0;entryY=0;entryDx=0;entryDy=0;exitX=1;exitY=1;exitDx=0;exitDy=0;" edge="1" parent="1" source="hMHybNNGIAyjDT_4vl0r-167" target="hMHybNNGIAyjDT_4vl0r-167">
          <mxGeometry width="50" height="50" relative="1" as="geometry">
            <mxPoint x="1465.09" y="293" as="sourcePoint" />
            <mxPoint x="1472.09" y="286" as="targetPoint" />
          </mxGeometry>
        </mxCell>
        <mxCell id="hMHybNNGIAyjDT_4vl0r-170" value="" style="rounded=1;whiteSpace=wrap;html=1;fillColor=#cdeb8b;strokeColor=#36393d;" vertex="1" parent="1">
          <mxGeometry x="1692" y="140" width="290" height="270" as="geometry" />
        </mxCell>
        <mxCell id="hMHybNNGIAyjDT_4vl0r-172" value="&lt;font style=&quot;font-size: 10px;&quot;&gt;&lt;b&gt;Add&lt;/b&gt;&lt;/font&gt;" style="text;html=1;align=center;verticalAlign=middle;whiteSpace=wrap;rounded=0;" vertex="1" parent="1">
          <mxGeometry x="1722" y="140" width="111" height="30" as="geometry" />
        </mxCell>
        <mxCell id="hMHybNNGIAyjDT_4vl0r-173" value="&lt;font style=&quot;font-size: 10px;&quot;&gt;&lt;b&gt;Normalize&lt;/b&gt;&lt;/font&gt;" style="text;html=1;align=center;verticalAlign=middle;whiteSpace=wrap;rounded=0;" vertex="1" parent="1">
          <mxGeometry x="1860.5" y="140" width="111" height="30" as="geometry" />
        </mxCell>
        <mxCell id="hMHybNNGIAyjDT_4vl0r-185" style="edgeStyle=orthogonalEdgeStyle;rounded=0;orthogonalLoop=1;jettySize=auto;html=1;exitX=1;exitY=0.5;exitDx=0;exitDy=0;entryX=0;entryY=0.5;entryDx=0;entryDy=0;" edge="1" parent="1" source="hMHybNNGIAyjDT_4vl0r-176" target="hMHybNNGIAyjDT_4vl0r-184">
          <mxGeometry relative="1" as="geometry" />
        </mxCell>
        <mxCell id="hMHybNNGIAyjDT_4vl0r-176" value="" style="rounded=0;whiteSpace=wrap;html=1;fillColor=#e6d0de;strokeColor=#996185;gradientColor=#d5739d;" vertex="1" parent="1">
          <mxGeometry x="1702" y="218" width="120" height="110" as="geometry" />
        </mxCell>
        <mxCell id="hMHybNNGIAyjDT_4vl0r-178" value="&lt;b&gt;&lt;font style=&quot;font-size: 16px;&quot;&gt;+&lt;/font&gt;&lt;/b&gt;" style="text;html=1;align=center;verticalAlign=middle;whiteSpace=wrap;rounded=0;" vertex="1" parent="1">
          <mxGeometry x="1747" y="341" width="30" height="16" as="geometry" />
        </mxCell>
        <mxCell id="hMHybNNGIAyjDT_4vl0r-179" style="edgeStyle=orthogonalEdgeStyle;rounded=0;orthogonalLoop=1;jettySize=auto;html=1;exitX=0.5;exitY=0;exitDx=0;exitDy=0;entryX=0.5;entryY=1;entryDx=0;entryDy=0;" edge="1" parent="1" source="5PwwvBwdqip06TG52Kvb-77" target="hMHybNNGIAyjDT_4vl0r-178">
          <mxGeometry relative="1" as="geometry">
            <Array as="points">
              <mxPoint x="636" y="440" />
              <mxPoint x="1762" y="440" />
            </Array>
          </mxGeometry>
        </mxCell>
        <mxCell id="hMHybNNGIAyjDT_4vl0r-180" value="" style="ellipse;whiteSpace=wrap;html=1;aspect=fixed;fillColor=none;" vertex="1" parent="1">
          <mxGeometry x="1752" y="339" width="19" height="19" as="geometry" />
        </mxCell>
        <mxCell id="hMHybNNGIAyjDT_4vl0r-183" value="" style="endArrow=none;dashed=1;html=1;rounded=0;strokeWidth=1;" edge="1" parent="1">
          <mxGeometry width="50" height="50" relative="1" as="geometry">
            <mxPoint x="1833" y="406" as="sourcePoint" />
            <mxPoint x="1833" y="146" as="targetPoint" />
          </mxGeometry>
        </mxCell>
        <mxCell id="hMHybNNGIAyjDT_4vl0r-184" value="" style="rounded=0;whiteSpace=wrap;html=1;fillColor=#d5e8d4;strokeColor=#82b366;" vertex="1" parent="1">
          <mxGeometry x="1851.5" y="218" width="120" height="110" as="geometry" />
        </mxCell>
        <mxCell id="hMHybNNGIAyjDT_4vl0r-186" value="&lt;b&gt;Feed Forward&lt;/b&gt;&lt;div&gt;Fully Connected Layer&lt;/div&gt;&lt;div&gt;ReLU | GeLU&lt;/div&gt;&lt;div&gt;Fully Connected Layer&lt;/div&gt;" style="shape=trapezoid;perimeter=trapezoidPerimeter;whiteSpace=wrap;html=1;fixedSize=1;rotation=90;fillColor=#d5e8d4;strokeColor=#82b366;" vertex="1" parent="1">
          <mxGeometry x="1958.57" y="202.19" width="260" height="153.13" as="geometry" />
        </mxCell>
        <mxCell id="hMHybNNGIAyjDT_4vl0r-187" value="" style="rounded=1;whiteSpace=wrap;html=1;fillColor=#cdeb8b;strokeColor=#36393d;" vertex="1" parent="1">
          <mxGeometry x="2179" y="141" width="290" height="270" as="geometry" />
        </mxCell>
        <mxCell id="hMHybNNGIAyjDT_4vl0r-188" value="&lt;font style=&quot;font-size: 10px;&quot;&gt;&lt;b&gt;Add&lt;/b&gt;&lt;/font&gt;" style="text;html=1;align=center;verticalAlign=middle;whiteSpace=wrap;rounded=0;" vertex="1" parent="1">
          <mxGeometry x="2209" y="141" width="111" height="30" as="geometry" />
        </mxCell>
        <mxCell id="hMHybNNGIAyjDT_4vl0r-189" value="&lt;font style=&quot;font-size: 10px;&quot;&gt;&lt;b&gt;Normalize&lt;/b&gt;&lt;/font&gt;" style="text;html=1;align=center;verticalAlign=middle;whiteSpace=wrap;rounded=0;" vertex="1" parent="1">
          <mxGeometry x="2347.5" y="141" width="111" height="30" as="geometry" />
        </mxCell>
        <mxCell id="hMHybNNGIAyjDT_4vl0r-190" value="" style="rounded=0;whiteSpace=wrap;html=1;fillColor=#fff2cc;strokeColor=#d6b656;gradientColor=#ffd966;" vertex="1" parent="1">
          <mxGeometry x="2189" y="219" width="120" height="110" as="geometry" />
        </mxCell>
        <mxCell id="hMHybNNGIAyjDT_4vl0r-191" value="" style="ellipse;whiteSpace=wrap;html=1;aspect=fixed;fillColor=none;" vertex="1" parent="1">
          <mxGeometry x="2240" y="339" width="19" height="19" as="geometry" />
        </mxCell>
        <mxCell id="hMHybNNGIAyjDT_4vl0r-192" value="" style="endArrow=none;dashed=1;html=1;rounded=0;strokeWidth=1;" edge="1" parent="1">
          <mxGeometry width="50" height="50" relative="1" as="geometry">
            <mxPoint x="2320" y="407" as="sourcePoint" />
            <mxPoint x="2320" y="147" as="targetPoint" />
          </mxGeometry>
        </mxCell>
        <mxCell id="hMHybNNGIAyjDT_4vl0r-193" value="" style="rounded=0;whiteSpace=wrap;html=1;fillColor=#d5e8d4;strokeColor=#82b366;" vertex="1" parent="1">
          <mxGeometry x="2338.5" y="219" width="120" height="110" as="geometry" />
        </mxCell>
        <mxCell id="hMHybNNGIAyjDT_4vl0r-194" value="&lt;b&gt;&lt;font style=&quot;font-size: 16px;&quot;&gt;+&lt;/font&gt;&lt;/b&gt;" style="text;html=1;align=center;verticalAlign=middle;whiteSpace=wrap;rounded=0;" vertex="1" parent="1">
          <mxGeometry x="2234" y="342" width="30" height="16" as="geometry" />
        </mxCell>
        <mxCell id="hMHybNNGIAyjDT_4vl0r-195" style="edgeStyle=orthogonalEdgeStyle;rounded=0;orthogonalLoop=1;jettySize=auto;html=1;exitX=1;exitY=0.5;exitDx=0;exitDy=0;entryX=0.478;entryY=0.974;entryDx=0;entryDy=0;entryPerimeter=0;" edge="1" parent="1" source="hMHybNNGIAyjDT_4vl0r-184" target="hMHybNNGIAyjDT_4vl0r-186">
          <mxGeometry relative="1" as="geometry" />
        </mxCell>
        <mxCell id="hMHybNNGIAyjDT_4vl0r-197" value="" style="endArrow=classic;html=1;rounded=0;entryX=0.5;entryY=1;entryDx=0;entryDy=0;edgeStyle=orthogonalEdgeStyle;" edge="1" parent="1" target="hMHybNNGIAyjDT_4vl0r-194">
          <mxGeometry width="50" height="50" relative="1" as="geometry">
            <mxPoint x="1992" y="280" as="sourcePoint" />
            <mxPoint x="2422" y="490" as="targetPoint" />
            <Array as="points">
              <mxPoint x="1992" y="440" />
              <mxPoint x="2249" y="440" />
            </Array>
          </mxGeometry>
        </mxCell>
        <mxCell id="hMHybNNGIAyjDT_4vl0r-199" value="Dropout 10%" style="rounded=1;whiteSpace=wrap;html=1;fillColor=#f8cecc;strokeColor=#b85450;horizontal=0;" vertex="1" parent="1">
          <mxGeometry x="1622.9" y="140.3" width="60" height="269.7" as="geometry" />
        </mxCell>
        <mxCell id="hMHybNNGIAyjDT_4vl0r-201" value="" style="rounded=1;whiteSpace=wrap;html=1;fillColor=#cdeb8b;strokeColor=#36393d;" vertex="1" parent="1">
          <mxGeometry x="1739.1" y="481.5" width="290" height="270" as="geometry" />
        </mxCell>
        <mxCell id="hMHybNNGIAyjDT_4vl0r-202" value="&lt;font style=&quot;font-size: 10px;&quot;&gt;&lt;b&gt;Add&lt;/b&gt;&lt;/font&gt;" style="text;html=1;align=center;verticalAlign=middle;whiteSpace=wrap;rounded=0;" vertex="1" parent="1">
          <mxGeometry x="1769.1" y="481.5" width="111" height="30" as="geometry" />
        </mxCell>
        <mxCell id="hMHybNNGIAyjDT_4vl0r-203" value="&lt;font style=&quot;font-size: 10px;&quot;&gt;&lt;b&gt;Normalize&lt;/b&gt;&lt;/font&gt;" style="text;html=1;align=center;verticalAlign=middle;whiteSpace=wrap;rounded=0;" vertex="1" parent="1">
          <mxGeometry x="1907.6" y="481.5" width="111" height="30" as="geometry" />
        </mxCell>
        <mxCell id="hMHybNNGIAyjDT_4vl0r-204" style="edgeStyle=orthogonalEdgeStyle;rounded=0;orthogonalLoop=1;jettySize=auto;html=1;exitX=1;exitY=0.5;exitDx=0;exitDy=0;entryX=0;entryY=0.5;entryDx=0;entryDy=0;" edge="1" parent="1" source="hMHybNNGIAyjDT_4vl0r-205" target="hMHybNNGIAyjDT_4vl0r-209">
          <mxGeometry relative="1" as="geometry" />
        </mxCell>
        <mxCell id="hMHybNNGIAyjDT_4vl0r-205" value="" style="rounded=0;whiteSpace=wrap;html=1;fillColor=#e6d0de;strokeColor=#996185;gradientColor=#d5739d;" vertex="1" parent="1">
          <mxGeometry x="1749.1" y="559.5" width="120" height="110" as="geometry" />
        </mxCell>
        <mxCell id="hMHybNNGIAyjDT_4vl0r-206" value="&lt;b&gt;&lt;font style=&quot;font-size: 16px;&quot;&gt;+&lt;/font&gt;&lt;/b&gt;" style="text;html=1;align=center;verticalAlign=middle;whiteSpace=wrap;rounded=0;" vertex="1" parent="1">
          <mxGeometry x="1794.1" y="682.5" width="30" height="16" as="geometry" />
        </mxCell>
        <mxCell id="hMHybNNGIAyjDT_4vl0r-207" value="" style="ellipse;whiteSpace=wrap;html=1;aspect=fixed;fillColor=none;" vertex="1" parent="1">
          <mxGeometry x="1799.1" y="680.5" width="19" height="19" as="geometry" />
        </mxCell>
        <mxCell id="hMHybNNGIAyjDT_4vl0r-208" value="" style="endArrow=none;dashed=1;html=1;rounded=0;strokeWidth=1;" edge="1" parent="1">
          <mxGeometry width="50" height="50" relative="1" as="geometry">
            <mxPoint x="1880.1" y="747.5" as="sourcePoint" />
            <mxPoint x="1880.1" y="487.5" as="targetPoint" />
          </mxGeometry>
        </mxCell>
        <mxCell id="hMHybNNGIAyjDT_4vl0r-209" value="" style="rounded=0;whiteSpace=wrap;html=1;fillColor=#d5e8d4;strokeColor=#82b366;" vertex="1" parent="1">
          <mxGeometry x="1898.6" y="559.5" width="120" height="110" as="geometry" />
        </mxCell>
        <mxCell id="hMHybNNGIAyjDT_4vl0r-210" value="&lt;b&gt;Feed Forward&lt;/b&gt;&lt;div&gt;Fully Connected Layer&lt;/div&gt;&lt;div&gt;ReLU | GeLU&lt;/div&gt;&lt;div&gt;Fully Connected Layer&lt;/div&gt;" style="shape=trapezoid;perimeter=trapezoidPerimeter;whiteSpace=wrap;html=1;fixedSize=1;rotation=90;fillColor=#d5e8d4;strokeColor=#82b366;" vertex="1" parent="1">
          <mxGeometry x="2005.6699999999998" y="543.69" width="260" height="153.13" as="geometry" />
        </mxCell>
        <mxCell id="hMHybNNGIAyjDT_4vl0r-211" value="" style="rounded=1;whiteSpace=wrap;html=1;fillColor=#cdeb8b;strokeColor=#36393d;" vertex="1" parent="1">
          <mxGeometry x="2226.1" y="482.5" width="290" height="270" as="geometry" />
        </mxCell>
        <mxCell id="hMHybNNGIAyjDT_4vl0r-212" value="&lt;font style=&quot;font-size: 10px;&quot;&gt;&lt;b&gt;Add&lt;/b&gt;&lt;/font&gt;" style="text;html=1;align=center;verticalAlign=middle;whiteSpace=wrap;rounded=0;" vertex="1" parent="1">
          <mxGeometry x="2256.1" y="482.5" width="111" height="30" as="geometry" />
        </mxCell>
        <mxCell id="hMHybNNGIAyjDT_4vl0r-213" value="&lt;font style=&quot;font-size: 10px;&quot;&gt;&lt;b&gt;Normalize&lt;/b&gt;&lt;/font&gt;" style="text;html=1;align=center;verticalAlign=middle;whiteSpace=wrap;rounded=0;" vertex="1" parent="1">
          <mxGeometry x="2394.6" y="482.5" width="111" height="30" as="geometry" />
        </mxCell>
        <mxCell id="hMHybNNGIAyjDT_4vl0r-214" value="" style="rounded=0;whiteSpace=wrap;html=1;fillColor=#fff2cc;strokeColor=#d6b656;gradientColor=#ffd966;" vertex="1" parent="1">
          <mxGeometry x="2236.1" y="560.5" width="120" height="110" as="geometry" />
        </mxCell>
        <mxCell id="hMHybNNGIAyjDT_4vl0r-215" value="" style="ellipse;whiteSpace=wrap;html=1;aspect=fixed;fillColor=none;" vertex="1" parent="1">
          <mxGeometry x="2287.1" y="680.5" width="19" height="19" as="geometry" />
        </mxCell>
        <mxCell id="hMHybNNGIAyjDT_4vl0r-216" value="" style="endArrow=none;dashed=1;html=1;rounded=0;strokeWidth=1;" edge="1" parent="1">
          <mxGeometry width="50" height="50" relative="1" as="geometry">
            <mxPoint x="2367.1" y="748.5" as="sourcePoint" />
            <mxPoint x="2367.1" y="488.5" as="targetPoint" />
          </mxGeometry>
        </mxCell>
        <mxCell id="hMHybNNGIAyjDT_4vl0r-217" value="" style="rounded=0;whiteSpace=wrap;html=1;fillColor=#d5e8d4;strokeColor=#82b366;" vertex="1" parent="1">
          <mxGeometry x="2385.6" y="560.5" width="120" height="110" as="geometry" />
        </mxCell>
        <mxCell id="hMHybNNGIAyjDT_4vl0r-218" value="&lt;b&gt;&lt;font style=&quot;font-size: 16px;&quot;&gt;+&lt;/font&gt;&lt;/b&gt;" style="text;html=1;align=center;verticalAlign=middle;whiteSpace=wrap;rounded=0;" vertex="1" parent="1">
          <mxGeometry x="2281.1" y="683.5" width="30" height="16" as="geometry" />
        </mxCell>
        <mxCell id="hMHybNNGIAyjDT_4vl0r-219" style="edgeStyle=orthogonalEdgeStyle;rounded=0;orthogonalLoop=1;jettySize=auto;html=1;exitX=1;exitY=0.5;exitDx=0;exitDy=0;entryX=0.478;entryY=0.974;entryDx=0;entryDy=0;entryPerimeter=0;" edge="1" parent="1" source="hMHybNNGIAyjDT_4vl0r-209" target="hMHybNNGIAyjDT_4vl0r-210">
          <mxGeometry relative="1" as="geometry" />
        </mxCell>
        <mxCell id="hMHybNNGIAyjDT_4vl0r-220" value="" style="endArrow=classic;html=1;rounded=0;entryX=0.5;entryY=1;entryDx=0;entryDy=0;edgeStyle=orthogonalEdgeStyle;" edge="1" parent="1" target="hMHybNNGIAyjDT_4vl0r-218">
          <mxGeometry width="50" height="50" relative="1" as="geometry">
            <mxPoint x="2039.1" y="621.5" as="sourcePoint" />
            <mxPoint x="2469.1" y="831.5" as="targetPoint" />
            <Array as="points">
              <mxPoint x="2039.1" y="781.5" />
              <mxPoint x="2296.1" y="781.5" />
            </Array>
          </mxGeometry>
        </mxCell>
        <mxCell id="hMHybNNGIAyjDT_4vl0r-221" value="Dropout 10%" style="rounded=1;whiteSpace=wrap;html=1;fillColor=#f8cecc;strokeColor=#b85450;horizontal=0;" vertex="1" parent="1">
          <mxGeometry x="1670" y="481.8" width="60" height="269.7" as="geometry" />
        </mxCell>
        <mxCell id="hMHybNNGIAyjDT_4vl0r-222" value="" style="shape=image;verticalLabelPosition=bottom;labelBackgroundColor=default;verticalAlign=top;aspect=fixed;imageAspect=0;image=data:image/png,iVBORw0KGgoAAAANSUhEUgAAAGYAAABGCAMAAAAJrRFmAAAAAXNSR0IArs4c6QAAAARnQU1BAACxjwv8YQUAAAC6UExURQAAAAAAAAAAAAAAAAAAAAAAAAAAAAAAAAAAAAAAAAAAAAAAAAAAAAAAAAAAAAAAAAAAAAAAAAAAAAAAAAAAAAAAAAAAAAAAAAAAAAAAAAAAAAAAAAAAAAAAAAAAAAAAAAAAAAAAAAAAAAAAAAAAAAAAAAAAAAAAAAAAAAAAAAAAAAAAAAAAAAAAAAAAAAAAAAAAAAAAAAAAAAAAAAAAAAAAAAAAAAAAAAAAAAAAAAAAAAAAAAAAAAAAAKskavMAAAA9dFJOUwAECAoQFRgZHSAhJCgrMDY4PEBCR0hQWF1gYmhtcHeAhIaNj5SXnZ+ip6+yt7i/x8zNz9LX3+Hn7u/09/mj61/pAAAACXBIWXMAABcRAAAXEQHKJvM/AAACVElEQVRYR+2YfVPTQBCHk6AVKkZssYJa0YbXilGr2Eq63/9r+du9vZcC4+B5wRnnnn/4HZm5h7277GUoMplMJvMPKMefiOj7uy0d98OwpfdbRfmWvj3W3/TBPq1fSZjR1/7qeUF0ZNP6uUnpqX64GoYrK0zPayKzZKKZa0xNUEyfGr8zmzkxM79m4folpvxI1/ZlQe7rpIVbE+b7U4+EPR3y2Cf7JJw6bmsWaFPgQoeDjkhj658Ehytcvz/hhOdye9pgoLE4Qu7kSVBN7DkbYLKFZinGaXaRD010fQzFROwMc0V0qVGKcZoJ0WeNto/BEtufsQdnGgdd5/eGnbVGvCzXz4pi3NJ5XC0bmobmqE0HWED7e7DNVxqdwxXJhdNg4tprGuoGGg2zv3ovz5wGxRRu0eBsTLLgkPGxLuOWDRpzBKqf2At3BBpaPjLJgv2ng2K7jevPeD1aCVP+Y60GxUwlBKAcEHmgraZa8sGyGhRTSQgZf4n/sLEaKaZSDYqZ8M90HBqNKWZHNY3vDIlQjRRjNbsdveRnCTEaFMOrpJq5OJMyEs3UrJLR1EGbSYXRmGJUMw/bTCJEM9EtF019s82kADO3uETN+cVgiWJ8myk/RF2Wt2GNLYYHV7VvM+WbVdydfBvMvLDFSDWXrs3sr7CGiTTcX9zLCA1Eps0M2/Xp08gvjDvgmW1nEY0Ohse4xGbJNLhiXJtkzUabSafBhel6Pms22kw6zd5o5Hp+FXyACuk0vyVrIsiaCP4nzZMDdIXTHR31A3/MKv39lyaTyTwMRfELSGZtvtCmT6cAAAAASUVORK5CYII=;" vertex="1" parent="1">
          <mxGeometry x="732.67" y="525.06" width="48" height="32.94" as="geometry" />
        </mxCell>
        <mxCell id="hMHybNNGIAyjDT_4vl0r-223" value="" style="shape=image;verticalLabelPosition=bottom;labelBackgroundColor=default;verticalAlign=top;aspect=fixed;imageAspect=0;image=data:image/png,iVBORw0KGgoAAAANSUhEUgAAAGYAAAA/CAMAAAAlgE1vAAAAAXNSR0IArs4c6QAAAARnQU1BAACxjwv8YQUAAACfUExURQAAAAAAAAAAAAAAAAAAAAAAAAAAAAAAAAAAAAAAAAAAAAAAAAAAAAAAAAAAAAAAAAAAAAAAAAAAAAAAAAAAAAAAAAAAAAAAAAAAAAAAAAAAAAAAAAAAAAAAAAAAAAAAAAAAAAAAAAAAAAAAAAAAAAAAAAAAAAAAAAAAAAAAAAAAAAAAAAAAAAAAAAAAAAAAAAAAAAAAAAAAAAAAAAAAALeTPkQAAAA0dFJOUwAECAoVGBkdICEkKzA2ODxAR0hQWF1gYmhwc4CGjY+Ul52fp6+yt7/Hzc/S3+Hn7u/09/k6GgMKAAAACXBIWXMAABcRAAAXEQHKJvM/AAACQ0lEQVRYR+1X0VLbMBAUbk1Ja2hooCGlMSQY3Lo0gHP//23dO52kmBmmE0XmSftA9uxBm9Vpz47JyMjIyHhnHN0T8PLRmK9M6PcHvZEaS7f2JdH2h1waA3OiCyFL2p4KGQVL2TLetJcvcmEUoDmyZ+f0R9RGQvGXrvExj2x+NRWcaWnOplNlwzs4YBfm6Cc1cUeslfPZ11pWKJQ2cof0zhyN/9TSylb745rXqrQwdyiUmivwZ/Vmc3PAGSvw37+Um7JHpdycgM+UozWNmTzhTyweiR6Umpq/snIzo7AqFHACDokMurNWWvY97Ghhbqn3m8mtEbFoOzsyNdXwpgU20B0MF050KNrO2svATBlkaupLpT6cONacnhgEmRpb4nsDM2FF2xqRsyNnf0CmFYKFqyBT06awDPAuMEAj7SA4VobNeBloLoQwODUriT9s0aVc2xdOpnjmlDqZNXXeDEIDcHMsi/LjZBZshsPKBYaOS2YifLcyxYbNcPL5YkMdfySEyogZJwMzPpmJYGWsGSfTxKf9LUxFxppRmWpnzKSCyMDMNy6sTLMzZvAsi03kACKz0JaLDMyEMXP1FB38AbByazZ6flFszENIxjnimE5m5s4viseZHzOTdrv6HD/GBiiJus6Fkd10fsxMbvBK5l7QDgW2xYcRMijCzARSyrjJIjLDMZNKBs9lP1lY5tWYSSWDB6b//izzKpmpZMKLJmbOzguoIpXMf5BlIpBl9sYxfjjT6kSrcaC/ahhj/nrOyMgYH8b8A11rXFOJn1g2AAAAAElFTkSuQmCC;" vertex="1" parent="1">
          <mxGeometry x="732.3000000000001" y="610.5" width="48" height="29.65" as="geometry" />
        </mxCell>
        <mxCell id="hMHybNNGIAyjDT_4vl0r-224" value="" style="shape=image;verticalLabelPosition=bottom;labelBackgroundColor=default;verticalAlign=top;aspect=fixed;imageAspect=0;image=data:image/png,iVBORw0KGgoAAAANSUhEUgAAAGYAAAA/CAMAAAAlgE1vAAAAAXNSR0IArs4c6QAAAARnQU1BAACxjwv8YQUAAACfUExURQAAAAAAAAAAAAAAAAAAAAAAAAAAAAAAAAAAAAAAAAAAAAAAAAAAAAAAAAAAAAAAAAAAAAAAAAAAAAAAAAAAAAAAAAAAAAAAAAAAAAAAAAAAAAAAAAAAAAAAAAAAAAAAAAAAAAAAAAAAAAAAAAAAAAAAAAAAAAAAAAAAAAAAAAAAAAAAAAAAAAAAAAAAAAAAAAAAAAAAAAAAAAAAAAAAALeTPkQAAAA0dFJOUwAECAoVGBkdICEkKzA2ODw+QEdIUFhdYGJocICGjY+Ul52fp6+yt7/HzM3P3+Hn7u/09/ly92ekAAAACXBIWXMAABcRAAAXEQHKJvM/AAACK0lEQVRYR+2XYVPbMAyGnWzZCAuwssKgrNkoKd0ItJD6//+2vbIkx73b7a6Jwyc/H6jU3OWpbEsJJpFIJBLvy9ISV4jKHUVPH/j7yGTwvH1x4ecXa5tpLK6IhqNsPVUtIH9RTbnbn3E0Ab1mae84mAK/VOVu2JJVM8e5pOZ8NpMovKIafNJ5O56NO6tdLWmFRMLGXbF8ZcmaC127o7mje1WSmAckEppbxK9S29K+faQtor+DyHGz3xKbogs0J4jnEt84zZj9f7b2UUJT485eM0cjSsiaofvvwO6sJCy6DuVIYn7Zzi/mhd2fZesxLRNoalujNkmwgHowWHMzqmVWXoNiil5T266Q0DX/1+H7T/SaGnvh9wbFBD8eQ+3PwJYRoNm4ADeuek1ttzlHBKbN4JZh0DisoWK8Bs6FCxhoRo5M1eSv1KWqWdk2KIamzMiRqZoFFUPNSgmGjnZmJL6zJt9SMdT59GVjW/qIiGhcMapBMb4zI8EaLkY1zchj9Q9mTsPFiKYKxkwsnAbFfKOENU0wZrIfo5rf4zQL2XKnQTE6ZrLbnXsEjAd33pitnF8kW/Poe+SS3v7iaeZ6fpE8z3XMlJv9/ek6kqawtm21GamaVsdM+RNvmvx4jgDWxTcjNEjCMRNVo5PFaQ7GTDQNnst+spDmcMxE0+CB6X8/aQ47M5qmf9HEzAleQJlomv+TNANImqP5dI1Guj+RbBrw1qRM+H9tIpF4B4z5C+S2V4KrIQDhAAAAAElFTkSuQmCC;" vertex="1" parent="1">
          <mxGeometry x="729.58" y="693.18" width="48" height="29.65" as="geometry" />
        </mxCell>
        <mxCell id="hMHybNNGIAyjDT_4vl0r-225" value="" style="shape=image;verticalLabelPosition=bottom;labelBackgroundColor=default;verticalAlign=top;aspect=fixed;imageAspect=0;image=data:image/png,iVBORw0KGgoAAAANSUhEUgAAAL0AAAB9CAMAAADA4ZK2AAAAAXNSR0IArs4c6QAAAARnQU1BAACxjwv8YQUAAABjUExURQAAAAAAAAAAAAAAAAAAAAAAAAAAAAAAAAAAAAAAAAAAAAAAAAAAAAAAAAAAAAAAAAAAAAAAAAAAAAAAAAAAAAAAAAAAAAAAAAAAAAAAAAAAAAAAAAAAAAAAAAAAAAAAAAAAAGZodN4AAAAgdFJOUwAIEBggKDA4QEhQWGBocHiAh4+Xn6evt7/Hz9ff5+/3v+H4wgAAAAlwSFlzAAAXEQAAFxEByibzPwAABaFJREFUeF7tnOlyozoQhVm84J1gYrDN0u//lPe0aIzk2DfMVCo0Nfp+OMJOZSS5dfogWhN4PB6Px+PxeH6KIzmk8vZMyKnN0vRKhNeSKJG3Z8KddngtqcFrRBSZN+dCRAX/aLofdOPX+bBIl3hdScCXR36dGwc9AR8dL2VbZodQrg2bssPEtbRNsBhyLQEf5y1RBQ2h+1reYlZn1sPKREaYcpuqg/mEuSsJ+E0N7eN5PGAQdvfRwyE8bmifpQ2gNZk0J2VH1EoXkYacCYWY36UZYWR2WtoS7aU5JeuW2o20Q3wLW2kzFdGHNBHmjrggkhbSnJCYw0baQXBxoiNEsMhg9s9T3eWqqcmI6ljaQYB1WkoTQNJFVzbtc5w0dJHWhCwQzidpA8RDLU3wWAZfO4+BKchSn5heK34R3SRNgA9z/rlpHyujBwN7fuv3CTH1VqgEBSRdmgCLlqd8+7Xz/IvTL1qoJQ0JyIj60PsYH66C4DRoUk8Mm0AndjuTgtho7XzfkLUYIeltskMK/jLzO+MaJg98yOXgXDqRGVIS5KhDqYtcPHWNb/mGbIVMmycfWBl9vlUGYsPJrUhW7cNm8orGhzyi6eXlFWwcsS57QoT9kGo5jJDH2D0oSEwv4Mi2LD1/FcNgMOlGf07dKPSB5GSlVhZxy2JCj8ycx4ggFWb4GfT+Kk3Aa9gSf+SqbkVjGLVz06UExL2lJxhLM/SSc1Vn+xO0NHj5Z5BqB5+7cTvJi0DGggyscdtjiR72yzSCthhPJmBF998Li6YlTWqAn5cFucAEF3Z04562F0oOIo2iGUPhjTXYssOxO89q/3CffHeuMWMtYMKaEp6Aamdh7qA4sJGdzicYGrWpQtEPj588szfeVx2IjIksy050Lt2FxtAHEHRL9ucG36NMfqvx17Cb7KRHY0r9Fghny5N/vs2x+0tMfs3Pcmb2CErYsz5So9HNjGF1KvKdShfv8Xg8Ho9nAoyx+UHkz/4S8o/+GPJnPR6P598iSkaib3ONtyzHYtcIqIC3jonu3cbld6h7mnWkW5qmSvdbv6XQ+lh/DGGr8hHPSBK7PGd2pM6Dt7lxVflgdiTRq4qEtVFHu5REKdtXT5XjtEYKmMFizl6XUxzssh29VK9L6vcKTcFXFm+m+GMoR1bM/s0UX9z6L6XkdlGvBXynjmMO/0vzWlkWToGsVlZfi9JXSRLzop1BBj7Sp7Q6Vlx8QfRZuNW+SikcmxBy9cI+OfBhmhnkKrhjq6w7xIwbmeRaOw3HHL7BdceYeQn22yxyVWrbBNzf9lWMiP4ZFABc7ZSEBNXfIlZa65BtnKOmS/gyueKDP/pz1daO7tNQBLi2ijHTEgqk0m1mdnSjk33gpFauWsMra6wrfXLHiJb+6m5XyCKM1G1BMYvnGmTRft5cG2rWcKXmxjfOBv+yt6tducsyFoiPlauOKk4XMis+GvawALm9iYaVKr3noimr2jE39fp8nsA5bfPrrApqW2tBNnZNI0eOuVy16Cn/jmw1VN03hATWOAdxf5tNnUYZVF26tXItPMbFtnJZZVtjd/at6SxGxd9QWNNt4gBCZFhnMo6uhce4mn2StkWI3t+SDykPxwWkCAYuH1b4dKCT4mZcdxzEpoiaq8K50pTo3P1Wxrft67uS2kE+PWAWK/rouoH4UjeFsTfba3Xutb+kap/TXUvVL/TQxHsyKoVijHzyX83RNxZ2dpaOO34LhHTPzkGJ5D+OWF1fb6I9YXIVBvx632QCuuNt0bh9yotJu5WiYn3c911cd/ye2uSqs9km13GfzpO/yGyb8Bbcn7OJRvSfgoOSbQb+/xSqUX2B5zGrg/dIWiVWE0uxHbflcZD/zmVZ1J+TuhwLPj/r2oRZwX5XzS3HH8NeTU3++XMyrcfeRxElWmyXx+PxeN4RBP8Bj1CTGWSvonQAAAAASUVORK5CYII=;" vertex="1" parent="1">
          <mxGeometry x="1004.55" y="537.21" width="52.61" height="34.79" as="geometry" />
        </mxCell>
        <mxCell id="hMHybNNGIAyjDT_4vl0r-226" value="" style="shape=image;verticalLabelPosition=bottom;labelBackgroundColor=default;verticalAlign=top;aspect=fixed;imageAspect=0;image=data:image/png,iVBORw0KGgoAAAANSUhEUgAAAUoAAACFCAMAAAAKPkHiAAAAAXNSR0IArs4c6QAAAARnQU1BAACxjwv8YQUAAABjUExURQAAAAAAAAAAAAAAAAAAAAAAAAAAAAAAAAAAAAAAAAAAAAAAAAAAAAAAAAAAAAAAAAAAAAAAAAAAAAAAAAAAAAAAAAAAAAAAAAAAAAAAAAAAAAAAAAAAAAAAAAAAAAAAAAAAAGZodN4AAAAgdFJOUwAIEBggKDA4QEhQWGBocHiAh4+Xn6evt7/Hz9ff5+/3v+H4wgAAAAlwSFlzAAAXEQAAFxEByibzPwAADhlJREFUeF7tXdliozgQDL7vEJ/4Av3/V26VaJAQEOMYs2OgHmYUAtgq+qhuyc5Xjx49evTo0aNHjx49evTo0aPHcxjK/3Wh7vt9DibRXEb14Oc6kFHXMArVRob14KgCT4bdwuCm9jKsCd5VHWTYKXgXda3bhsaR+pFhl3BQ0ViG9WGl1FKG3cFSqZUM68Re3buWxod3dZLh37BRGfhyeHDvXLh82b33Ktr6/lkp/BsoNZPD3XNxuPdWhn/EVTMWqBD/DpQygvLSLRf37ur+WvYexPEhjP9TF/4bY6I65eIIdC964chnfABtOkgGttTfKTWRYfsBo7TM6AWsrSCZYqjUUYbth68KK8bB5hhEwXZtu/48iKFjoYxN6t/bQTLFsTtmOYyKIuVwHyl1Q0pW16kcAiZwVxzWzHt4BPxhrX9DXAute9ods9wWpe/5HUdpYmswanEJuowXXzDeyRhA5i7UATitG2Y5iFSUkytQR5EQhpxk2xpE41WGuDLV4sSipGLCzbphlsgVuYlOQW/Su0RSUgsZAzeVtigQGjMxFg4/kmEGvEMntCXCodvxRRlpuSrShvFiDz4txKKQyRphLNAL8KPUtwzbjDFc2U06iJ5WiYJME8hQS0fJ0vPIdeewzI9nJii0GbAYtxoZIQZaVgS/vcvQipx5JsFyWRceVm6nrpYCs3RzxQGWZwU9hEQlQ/073WufR7mFILBctjaEW1iZvqWYw78dWe3BKI1Hf32doB1lqLMOmV/kmeR5hVkHwKuEdbfo/znAXmzaCGgXZWS3loUplagCqRG/TYJPMIQSUN8lnTo+HUsFtBPwbzfAwYczhhpaagnSMZotC5L+11IXkWXBMqMC2gkmZLcSAbt2R52npEIcuT1GGWclQBw1QaKdwBRdLThyiMIpxjlR6+xnP3DXJ8UNn0dZIG0JQI2rBeHDmbgG30yFp8Q8sluWrIvBC5805A8DZ2hX0QT7PZbPewiVaZijcUG7sxJ8sqoueGbtAkRKrlnLcGgJFxppymwS8r5jSp8A7tpuOYQJ5qpGyCNT3Gi1aBpDSO7atoaw5ufW1fhE8h32FgGqJtesBZVnGQJMQkZkQqDHEQ+cPrewRkHa6mBpx8EEiJVWegaxxjHJR2xaM4zcevN3ILy2eeWx0FRQ7Bh9xGBqKKOXCq8ogYoWH8qBvPPcBZ8FV/dojHEwyTMD2JK1UxChNTFY6iFX2/8KLgq1OO8wEeerZkxaUsoItney5n81ioYG/ZS6eZr7zwKrbRlaGCKCarG5YPVtMUlVmfY+uFz2jEzPhorWAUZXVACOkNjDAMFN3e3JL5G/lfqO9eQMNKvIry4uacbP6adPAtdpCp3U2xxodJfM7peBbv0EQZzCj/EPT7gsuHfbee0BNWPpBmc4vyUvawBMvb3NIYrDUtnMBnCtO6qPuKEMG8Pw+3iOEkd6J8hWaSZgpyOObTVJGIj9plfD/VAFfILvb+9Rn5Q/MGgivRN4d6mHS6fj1AC2KsSz22RaCm/Cz6+TG8Ms79wT7Xbh/ojnm5wvAi/I+sPzG9BgdLlfbH+FX0MV1fVGeLsmheUgctOcV7729CqoHGVYiMn3ab+sLbwxydVk4JUAo3R0LHLDu54ltGPJJp93gLVSk6uO91wiQAZ6VwKCaG5Q6VHFNrgmwb0S2XzJLbkyrB2YW5P1R20vNwOcHSXTmStFMt1/wsMR+1HOhOjBLNnO5OVu8jWJD00lzA3MC+Nk60l9IpXej+4EKHXdpTOZcK83jhh9sPJZ+GpIE3GdXAfAy8fHKE6oE+rOO8kc65FN5oTJRKnDfC9BfomgEcaaZwWXtvqTOO3TqByd1W03n63ASxLmPWi6YD1bgrw0qx2DAOxe2CUQKzrp9syZR2Ca81CBiuvX10I/BHXzeIgwyyweS+fVbEaG46i7UnecpMtpKjvrIwzs1TRM5ZMbEfI4qUhnjuE9cVb6rW4keHcVGZXMYi2bYwZm8vPoNGSmGCzVdqQ/nTCdR4dxRvqm9+U2cd20nkYHvV8St12qaBtaeabhPFBHlgNB8o79ZAcoijLZlvNtd/whvZwcszDBc84ubKDCcUQ7Jsd+yEvJfyKXYJNyt2QpZcYuOGx0ieolmn+NreqGVFqrDW8HnPJVKqepH431x9e0xEo+lGBxpT3QMZOtozOv6nqLxRmjaHwyRtJYxH0TX0clYy7EfX+8i1u2fSCVeMvJBzcEcMNErMIQjUyG9Tjb32Fc9joWbREhksBI9ovDcaQbhuuTyuhsXwiKj9tcP43lR8NUvtxlY1Vhc0lzSLQMKlPj0zmB7gZPzj4+g+uCsVsje8jD4A79JKuAX6vkw0/5sFhIJY7VBLmhQR1UjjmTvUmdiI+ppcP30s2MpFj8U4DYkPEJs9yPwCBL/RgJS7hvwhduZV/IyJm9M/CJVH6N4W7qnoYqTCzdqICYlhamsFBn1R1EZyaLK0U7IYjKbzAS18WrJE7sXIhz8h+cwXPKU/lGgMqC9c1nQRlp8iz8OI1buH86xoSdeh/Bz94VTkeVFGyCqPkEIV4iiQ+IxnYTBHfO+fcnph2NMSuZeMpc6EsslNNJwyNIsecPgHRLvTB9SFhkEI0jBjKRHKPklsDKLox1IXdh5GfxqVTqD7vFNscpJAtQCH6pT5Nim7iYHDvEmcAK5zRBUwyO/MnZMEqjCxCrz3hKWe0P8H3Ym87fDTz9eqg0PFDRJPPCk0o1S0YXaeBI5sXh7xIqcTMJt/BdOcbYF1PJhrVZeR3cwhFqAsfg4/fRcOHopIIn4SeWBvOR2Ru3zSQaJGBnZvi1ZsTbxdQb4o2ChL0xWsDbacPa2keh1FBaDnlnsIg7pQdSNE/lay8XJHOGIUkKQXkXj7g7x5QgoMdZ4F/HQhGVtS5n6JEiqfA0RJmCXgTbPZ8IPIj3Hd22eGy41Sqa+ovBiSTiUkj7wT3zAs/PbcBWYRVkA1WMl6mMpCiBuJQ6hWt5+hhTkeV24NWubAC67GmxuYoLw7QkQJJUuRlS+W5+1PeBr4er2Xd48kDlZfajTrhBGCtKML6dn8NMwMRNntmAQXVcFQWcvRxPmAuig+9DP55Skb6OVLjzT5G6WWWxZXMpwBMQSomNgCcZ1woM8GW8gj5jCL6Ao6cTPCj2+GG5i76pVmPOp+lg2k/kAc4Ez5Idv8co2GjF+b2273eyOSKcqfPeDvtjHrsdVmJZGqAnN7HB7qou2yTC7YJASF0HQSK5B3t134uxDY/38KTpWpxvOww26raTx7MNrz+JbhDgPTyhmTfq4vt+kedWA12sgOF3AO7ZpMoDIJmcQvU3nEwt8Sdwg2W+5HoLYCNOqHw3HmwpyAIx4+8WScDr8oLsLUBUzn2E5s3QnXgZP8TsVX3NoJ7te70LeGj5Mvm9YFLKJqJf4L8afpj4nGD9HniXd3xB7O9gaV7Z5Sj0XwLDiatQ3gIkHUefvx/MqVUTAeJPtlQiplr4VIzwSHI19NgeYRJA4v00HCljped09UqxKKqfhz7ed9VshHrk5bXbx9io66Fy0KoRqF+qtoa2xZqQpW1FEwDpTSeDBnHOLRaX4lacfZEsKxaDXIxqPIQ1B1SiFTX6qMT4kJYr8sMc17BubhKbypFuVWJ8x8r8UFY2LVEaBFO4VPUPsC9J9Yi2FQXOIdfYbhXY96qmhsJi62UbVIaPgLhc70eq/jFAy1Tqe03yFjWZzYbMOlVrINhvVeH1kYBsrqT1Ng7jySZOXJ9ZXC4HE3jFUz8TbGhUiXWnTNUomzjX3ChRVaCzL/RaZ+kfB/NOhQzsRXYzLt3EyWqpaiqB7nqxs/SvAxGsQmc722Azmzgv1VdrcGrDje2mAVoqkOHbfE/MJk6zhekRqBWqya6PBUJYhRr6bEcBswTPZcyKrQPummukw/b/geHuYWsbJmVosDZxcmdORX6Q31qtKgnEsIc+urCDAArApMGDpJV23vwA+bzcvquHgs/Fj73VpgRbmwZrEydMLU0l0/VvN2KorLyK9KmgdH606phpsFkRIbO5BN5ergUQkhto+/7fgJU9KMNH9tclOps4Ta8HP5Uv/kCJNrQE/n8Cjlkgh4ZbowJXdveb/AmxSOWWQN/8Yt3cd5NfGWod+Lkzd5oTrg6mZd7e3pbB+iimkqWglZX3uiGvdzDlFjmW1Rc+PhrpFsUEk5OKwG9qlqHdsk03cU4i0MZz5DncYttFqg5zCQYv0XJ9HmPupt753R9soR6Fo0m2eJZNnGNrEycPg2LaLv/MWc7Ph1EHvqtfA9Iya0eYtvUNtJts8Rxv4vQjs4lTs4QfkNi9k9rnSYP5Vij02wCwkF9VBWNSaWcbbAWbOPXhLQvQ6bXo+1/46eIOJB0NmGVuqtSbOtuAsGxxmN3EmWjMQN1We3UtWghD0umIUWqzzM8VUkfHyNnjaggA4fzreoU6/NIdo+Rk82mBApL9oEyDrRTQSCsWkgXSEr/qjFFqs8xvDECFQns8P+4cAVqgg/2CmubcJaPU081FOfALmT6otifoqAufW0EnDUq+AzWjwTj9TgoLyEZHEFppySH+VpCdzl+Z1TCk79Y3KrOA9Mstl9EsR/kvNyjCKG5HIix+o6i3uYRIKsrqbcZZXXOOfEfCuFVacoUX64jK5dzIlpYw9065N4E55/IscglKPvnhV6zlq5HGp/vBrpy8c9fcmwBvrovzz+q8tuS6VWHX3JvAtF1VyJZZeT/3MRb5P6zXDRzU2QmXbGqU9nMfYxS+9CA+GF6QC5fbl5ZkLu1fZSzD4Oia4GD2Sqibt3oXYI8ePXr06NGjR49/FF9f/wF79V/BxrEtnAAAAABJRU5ErkJggg==;" vertex="1" parent="1">
          <mxGeometry x="1075.17" y="534.4599999999999" width="100" height="40.3" as="geometry" />
        </mxCell>
        <mxCell id="hMHybNNGIAyjDT_4vl0r-227" value="" style="shape=image;verticalLabelPosition=bottom;labelBackgroundColor=default;verticalAlign=top;aspect=fixed;imageAspect=0;image=data:image/png,iVBORw0KGgoAAAANSUhEUgAAAUoAAACFCAMAAAAKPkHiAAAAAXNSR0IArs4c6QAAAARnQU1BAACxjwv8YQUAAABjUExURQAAAAAAAAAAAAAAAAAAAAAAAAAAAAAAAAAAAAAAAAAAAAAAAAAAAAAAAAAAAAAAAAAAAAAAAAAAAAAAAAAAAAAAAAAAAAAAAAAAAAAAAAAAAAAAAAAAAAAAAAAAAAAAAAAAAGZodN4AAAAgdFJOUwAIEBggKDA4QEhQWGBocHiAh4+Xn6evt7/Hz9ff5+/3v+H4wgAAAAlwSFlzAAAXEQAAFxEByibzPwAADshJREFUeF7tXWljqjoULLhUW2upK26Q//8r30wSIAvUeFX6BObDvSmXxQxnmXMSe98GDBgwYMCAAQMGDBgwYMCAAQOuYaT/fhAefLtXwjSf69FD8HOK9ah3GGdiqYcPwU6kkR72DPFZbPTwMYhOYquH/UJ0FKcHG9EkFz962CtsRT7Rw4dhIcSnHvYIn0Is9PCB2IhL79L46CL2evhvWAoLiToaX/oXLu92743IV0lyEAJ/pkLM9OH+uTjce6WH/4iTpCwVGf6MhSgV5bFnLh5dxOW+7B2r+JCpv8SRf0pMRb9cHIHuTjccJ4wP4E0GydSQ+mshpnrYA8AoKzO6B19VkCwxEmKnhz1AImorxni5S/N09WW6/jxVkLFQj6vUvzGCZIldj8xylNdFytEmF+KMlCxO7/oQMIW/4rBkPsIr4A9f8l+IU511v/fILFd16Xt+wVGa2BcYNbgEXZUXHzFe6zGAzF2nA3BWT8wyzkXu6RWoo1wThpxk2hpE40kPcWWhxSU+6ism3KsnZolc4c30HfQWvUskJfGhx8BZlD0KhEYrxsLhx3pogjfoh7ZEOHQ7vigjDVdF3qi8OIJPa2JRydhGqAS6jx8hvvWw05jAld2kg+hp1CjINKkeSumos/Q8d905a3DkWRUTOg2YjFuOjBEDDTOC31700IicPpNguaELDyM3M1dXgWm6uWILyzOCHkKi0EP5b7LXPs+9hSCw3LA2hDsYib6rmMO/HVkdwSgrj35720M76qHMOmT+w2eS59VlHQAPyR7cof8fAgZj0kZAvIhKdktdWFKJMpAi8btK8AVGUALiu75Tx5djiICOAv7tBjj4sGWomaGWIB3z2WdN0n/7lEVkQ7C0REBHwYTsliJg1+yo85RSiCO3KzRw1gCE0SpGdBSYo6sFxw5ROKXyTtQ6m9kP/PU2dcPX0RBHOwNQ42pB+LAV2OCcpfDUQY/sNiTrevC62+z45cApmlU0wX6P4fMRQmUZ52hd0O4sBW8rq2teWccAleI1axkODeVCIy2ZLWLet6I0HLhpx+UQZuhVjZBHVXEj1WLVGEJyl8Y1gjXftK7GF+I12DsFqBqvWQsqD3oIMAlVIhMCXYU8cHrTwhr1aLeDpRkHCyBWGukZxFaeSUKUbc0wcuvNX4Ho2umVx1pbQbFT6SMG04oyuqnmFSVQzeJDM5B3bjr/1eDqHokJDhZ5JoYxGTsFEVoLg6UecrX9b+CaUJfzDhOxXzVj1jqljGF7e4OAUyVpaNC3yJtbqX81sNrWQwMjRFApNj9YfRtMUlWWvQ8ul90g0+1I0T3A6OoKwDESe5YiuomLOftP5G8hvpWenIFmkSfB4pJWfJN8ei1wnabWSaPllkZ3tHa/xLL1k6Yqhe/UD+E+C+rdbl6HQM3YuMMZzm/Iy/sBS+9wc4jisFE3swH8yB3VO9xPD9vD6Ht3yAtHeibIVmMqYKdDBbfHaBho/dZXw5NMpHyFz+/vUaA0vzBoIrkTeH18CJdOw2mqYi0gP8Fa/+Dv3roDK5Hh5S2tlsKT8GPPzsEEZnnhnmi3C/dvcHqcFFoSR2ky0BLEQxMTnsj6I0paEGH0uV9sfyFnlz3og/Bu5q34poAi7dEPHys849zNc1Hj2tPdoHLUw1pMv/ebz0fFN+Y4y7759OpV0kMe+30pGKUjZJEbnmWg0I71m3yeAZZKVheK5FV1Oazyzu3wLi5eIsAznpWAEK7ak3oUsVY9wDxUegV7yV5j5S5wr4T9brglVw8fDsykxQLEfZoKxTplr27pwc0AJ9W/z1wpYnX/iQhHzHc500THs2I/U+TdZKqOvBdRLq4ejJONN/V/oFJ5HI0ybINW9CM7AUKc1uVMptzrjSOVQFgkLHwltK1/FdcBeOZkl6uEOmW+u/DZEzkyyJyqaL6db4og/4mgkSnNs4BLG26E8/4nVMIowzp244M4r+ezBXgpwnyEoJt+zT5BXpnWdmkKdo+GUt3L9syBR/CkeSZAxQmaTOmIc8RDRBmwI1bOi9lMSgtF8EJccJIspyntjK8wsFnTLpVWG4opXVMJowz8XuBe5OqKS8E9/Vam/ugi8kols1hTr6lAjKfpyc/z/YiZIv4Uq7H8dsL7PN9OTO1b3pa7xFVyfM+3cr8kbvsp8lVm5BkvETwX+OhWkjOorJrNVwCC9CdOih2guFZvy/k2O/64u5NjPqrgOWcXNhXZJKcdk+Mk46XkX8sl2KS+GaxZXTdjFxxG+glNnM/fJkZ1QyqN1YZnAz7ZQCV0Eiu8ALyXfjSRX1+T1xZfSjC4kh7omAmCiPW+TuJ0VuqMUVSdjJFqLOK2haujkDGuw31/oqPb9P5jKvl4RSXedGAVgmuKL25owA8LtYp3U8lk3NPZ/w7rMuUWbREhksBI7xeH56g3ZHykg3UdON6tvI9Ls2iXSqu2UlSCGHw6PafrYFVhcsmbFKkfeazyaU+gu8GTs1dncF1QuTWyh3oZ3KBfJBXQa7oMfvTDYi2VOPYg6BuWaKQSFhCsziecyaZKnYiPpanD98rNjLy5/XoQGyynqJb7ERj0Uj9GiiXctqALd7KuY+j0XvwfU8nlEFKJsiRcnb9N4G/iUoYqTKzcqYCgVlamsFDnpiDamiyu1NoJQVT/C0bKdfGQwofd63CO/80ZvCefyucBVNrLm5rK422rupSRVVsCflzGLTygHGPCzrYT2L65K5yOqh9bBdHyo8gPpoBgbPVAcGfPv6UTtEul5SmaytKpgjFhJaOmTMsuLJTTKcMjSLEIkKSbb4yqQY0YRFXEQCZSx6i4dVzFedZ1+LjONIi/phKTw+SPWnTfAH7ZTdkcp1BoewS/0qdJsUmAYscMcVVghXNWQVO9VfKnT4ZRVrKAsfqAt+R9YH4Oc9P5k4GXb1PJ4Cls1RaIkgcqmmJeuF2ZvSxdJIEj1tPh7zpU4mY63MJ31TGGPkUlq1tj4TU+Z2PUBI7Bq8/RbuFoZwJJZSnpApAUlgbz0bOv3NZKNMjAzszwz5KSaK2or4ivJCTsjdEiliYsjX2c6RJKfcboABZxp+pIAVzQLpX205iLgTJVXEVanAtD0ikE9Z0acXdOVYKAHqcl/6WUIkprWc7QI7WkwtvQyhT0Ithu8EbgQbzt+LzCW8OdFvn7W/IR70kiLoUMji/WA3C7G6mM2SoMgR2oJLynIXMCN/wiuFxbMMRloekn+hhTkeF24NWRqvTZ/cfypF0YpqUDJEnVN8MHWs93vA9cPVvMvrN9BCqPsx+xj5inlKIE46v5IbMCJm5yywYMquNQ+K/IDyeKymB1LpNBvk0ShNd9KdK/cpGtk30uzkZZbNhcCfW0TO/dQcDTGdcIDHBmPIFnjFTw2UUyv4PhiGYtjvKmUo0536aDaft5vRGcCd4lO37X4acSTs/e9wvnvO1dTpc7hDNx2Jhhf8Jj5+3CNG7Q400sXp/EcVVEuHWaalK/0rSQ3PFGXDbK2Ea7S7aXbH0czmsOluK81q9nlZ1+nJ4gPkPNnsAmLMUxSZIazw0DPcwm+Juc//P9fgP8s0WVR0AzOYXqb9jfkCBqwA2WfsX1HMBGwuPGQ3BlS4ENBI27LAhO5+ux5wBh2fsKzZMhO/F6fBWzW+JqDRjTy7ruucBbu7EWvRtMSnYi+gXJneGHec+J1U9ChFq0nSdVYGke7HMU+veA0cQVKM8Bko6jz58PJtXQTID4Y5dKxLsUPmERHjnuBrnwz5imkHg/LUdKJfWcrl4jPtxWKjFK8LkDsxHKEWvt9klYitM2OGg9EKhfQltDq/oGDkvbMBMA523ngjZxMBeWfse5Pv0iWYaV8VyLaj2CtQhUooEafdxgfMjLYQQxxbUsm1vFMjjSLRqML3i1kLKybYXSJpjCdVV/BZuGVI9oG6Zwtl5fu1tg4ytMDWX11ss2qB5eAcLyLU2g1wO0TNAX3qe+SU1nsxGzTmANBPMN1V2vCejmILG3dBgvdnHiemtxuRFM4GFnvirY0AiJdXuratS7OL/k4kxo2go981XBvBOQgaPcbMaVuzhZLQXmEsiu+xpL/38ghAUsQ9sNtmoX5zF4nQ1nttzXbh2gJYCMxOR7ihJJy3VETL0ufwWUCmGq63WBGBZQQx/MKFAtwXMZM6x1wE1z7XTY/g4Md1d727CpigdjFyd35oQRhPTWbVVJIIhd9dEPMwigAiw6PEhaZectSZHPG+07OBK8Mn7MrTYNWJk8gLHCv2FrZS55//rlRgyVwYtILwtq52urjlaDzYgI1uYSeHujFkBEbqPt+9eAlV0pw8fm70t0dnFWzR781Lj4AyHa1hL4XwKOWSOHRqtKBi7M9jf508QilRsCfdls3dx34y8MdQ/84pk7zymXB8s6b2Nuy2B9pKhkLWik5Y1syMsdTO4ix2f4usdrAyrdbjRM9yIHv6VZZmbPttzFOc1BG8/R7+GsbBe5OnMzDJ7QdX2u4H3ZY35J4hXUo+ZoalfPehfnxNzFCYBi2i7/mzPXz0d5H35XvwSkpW1HmDe/oK0T8tKuntUuziQ3dnHyMH5AYo/2YuOxBusNqPM7AbDgL6uCMV1p2w22ul2cxIoF6Pup5ve/8MvFfUg6EjBLb67UmzLbgDC7OLR3cRYaMxXnxUacalbCkHT6YpTSLP3JQurIGDm7Xg0BIJz/u16dED/2yCg5Wz8vUECyH2Q12BoBjbRgIelLS/xLf4xSmqW/MQAlCu3xcL1zBEiBDvb9oubQK6OU8/WiHPiFTI/D9gTtZOFz9ltpEPJ9qBkrTMrfSWEA2WgHQoOWHNRvBVnL/GUuhyF9d79RaQPaz1suo1mO/V9uUIex6kciLn6jqDe4hEaqSerdxqHma10XZIxz0Jor3FhGVC7n5oa0hLX3y70JTNpLtMglqPn0D7/iS/9qpMn+sjUqp+jQO/cmwJvr4vxvde5ac12JrHfuTWDeripky6yxn3sdH/7/q9cTbMXBCZdsajT1c69jnN3zHl4aUeqFy9U9azLHHqwyNiHeuSYYz+6IdfNu7wIcMGDAgAEDBgwY8BJ4e/sPyud71971I9EAAAAASUVORK5CYII=;" vertex="1" parent="1">
          <mxGeometry x="1169.15" y="537.21" width="81.36" height="32.79" as="geometry" />
        </mxCell>
        <mxCell id="hMHybNNGIAyjDT_4vl0r-228" value="" style="shape=flexArrow;endArrow=classic;html=1;rounded=0;exitX=0.072;exitY=0.926;exitDx=0;exitDy=0;exitPerimeter=0;entryX=0.91;entryY=0.926;entryDx=0;entryDy=0;entryPerimeter=0;fillColor=#f8cecc;strokeColor=#b85450;" edge="1" parent="1">
          <mxGeometry width="50" height="50" relative="1" as="geometry">
            <mxPoint x="797" y="744" as="sourcePoint" />
            <mxPoint x="1558" y="744" as="targetPoint" />
          </mxGeometry>
        </mxCell>
        <mxCell id="hMHybNNGIAyjDT_4vl0r-229" value="" style="shape=image;verticalLabelPosition=bottom;labelBackgroundColor=default;verticalAlign=top;aspect=fixed;imageAspect=0;image=data:image/png,iVBORw0KGgoAAAANSUhEUgAAAn4AAAB0CAMAAAAsCs8dAAAAAXNSR0IArs4c6QAAAARnQU1BAACxjwv8YQUAAACcUExURQAAAAAAAAAAAAAAAAAAAAAAAAAAAAAAAAAAAAAAAAAAAAAAAAAAAAAAAAAAAAAAAAAAAAAAAAAAAAAAAAAAAAAAAAAAAAAAAAAAAAAAAAAAAAAAAAAAAAAAAAAAAAAAAAAAAAAAAAAAAAAAAAAAAAAAAAAAAAAAAAAAAAAAAAAAAAAAAAAAAAAAAAAAAAAAAAAAAAAAAAAAAAAAAPiNTN4AAAAzdFJOUwAECAoQFRgdICEoKzA2ODxAQkhQWF1gYmhweICHjY+XnZ+nr7K3v8fNz9ff4efu7/T3+RqzAWIAAAAJcEhZcwAAFxEAABcRAcom8z8AAA9CSURBVHhe7Z0Lm+q2EYaJSymhdOsCJQtsdgvkmAIhrqP//9/6jS6+aWyL6znLzvs8yTFe2TOSRzMj+aKeIAiCIAiCIAiCIAiCIAiCIAiCIAiCIAiOX5RSf/7D/hCEB/Pz7+p/f7XbgvBgot/V1m4KwqP5+Q+1spuC8Gj+qdTMbgrCo/lFUj/hu/HTb+q/f7HbFxLHqzi224JwDteOPKLlURFHieDC+WDkcY3hDPcqe3vpTQ9Kze0uQQjml6smnQcnlU30Rqayvt4lCOH82jryGCTJ0m6yJPmw+ZtS2g4FIRyMPNpSv6FSa7vJMVVqbzc3En2Fs+mYdO4wv71SU39TEALpmHRuN7+xUge7idxPjey2IATSMencbn4rpd7s5kLJneMnoL/aHTcDs71MwCWzIoOP/eEjsj/GOIk1knmSbsd6K3pLEh10f6VJ57/9Xe9kaDc/BFw73TzCwNecWfjEDHFFlUrMjyn9uMCnTFI6yTf7a4ttPSiIMDhV6qg3MWI1OR+Z37/+aBTSan74Y2qMfHRUqdz3+PREh9McEU29mJ8xNqv5/IAcok9lcmSqkukHjjSpGPIz9a631moxhWHS9AiGqdZx0dOm6j+Nd91azQ/jXm230SJVe0n8Pj+LDIZ3tI5Jm9/JbDlgDhwVE+nj6OiklLFJOL+ddlHDbNHrvWlbXKn9YJroWeKfflN//ps2eFrN713LmG9Paiuu7ykgHwITscEQ+TxMpkx/xeJPecD9aRuG80ttKjnEfzDoXe9FHUNvULSa3057UDjUb1aC8AQgplmft1bZpRd2qdQH/QvnVx68RJlK+8c0OFK2mR/OpciMx1Cz9daI8JkYIJoa73SyWdsFzI3dwPlVzQdjjp25S9tCSIjXntTe8kC6qm1deAaQ/GkDiS93fmR+ZLqJOroJGAMiez2g+4SZH1IDu4cyTZl2eRYQMLWFbC93fhTBkfvh/3YQ7cCend1spsgwMbrY200vw4Sa7i4vNsX9PQs2bxvng4aCKGbxczlExlUvOnoGPPIG06205X4llwcrddOMwmdnYjzUVr2a3yXCwiKA+c0RHmuh18z4nRHRW8wPf0rtJnk/O1UufHr62kNNuSh5lvkNMndPLGehDmc9mdJifrOSyeGkG7spfHow9uhHx4yZHjkn+M4+vIRsorawmjMyyhbzQ8B1zxtE6AF2plz4/CBCjlfXXVAMMRbqVJtdHmenwbh4QjSAFvMrPeAHkz4nogs/NgulltmhnradxRyZWeXp99G4NzxlCMaZNpVZ2ERxs/mRx7OhfZg2G6nw+cDYI6vPmJwJzK+aju3UW6rncxK6UztOw56kaTY/RHd7VznaIVcNvYsn/PjQfY8r59FgfqdyPKQ7ZCbpe8XGTu3D7KXZ/JY4jdpMRsMZovAh+C6e8AlIr3YnML/Kg6ovuUXrx/7M4y7dNJsfzTTjP+K0uipPEH4wRv6Mybm816ZtBnHs5oijeBEc2JvND/nesNePJ6tpLMb3VEQHm1VdziC74oZdiYib1CFgl/q5aeHp2Fz/1g7Gzpe8JBIOgrtMND8lb+pw7TiSHkGhp0vvx3vAgzPC5yJKXunCHq+2nMl5DxZcAIa78ojVkxGr4+qgwp9FbmRz77du+0pldlN4FuglN3W8wRxa5qaE70Usj7g8H1ul0vdb3D+Yr1b3nQhGR5FnDJ6O+Ba2JwiCIAiCIAiCIAiCIAiCIAiCwBPH8XLVtGbF3ZbTozd6V6v7PrRXQVez+l2Fh+sgePQTekuHffPnnsvpjbTYmzyyHERff1W6+mT9o3UQOOg1Hc773Xk5vSnEnvE9jKuZMNV8tA6CD71RzTxAcu/l9IYQ+9BvB0Be/UHXh+sgeIxK33Iqce/l9OIHv80zYOQ9WocrGMfXvZj/w4IIxDw7jL33XU5v8eC3eVAh76XKR+twBadn/cSgWUCgTukTO6XNGwKjfujbPCumEz1ah8tBgv6kD8AiyvpzK/dfTg+j6oe+zYNqeu84PVqHy/l41jESfR7Ff5EfvuK+y+khFcse+v2A1E/zHq7DxYxwkb77o+JNa+mVGL8n6S6ZR4OdSWrGb/tv2reNNvvjtuLEdNFvM6TfzBfxEHCtS2xaTq9R0nC9S5O8q0azTZLt/HWBkIqV3+ZhinULaK5c/Vjs0alff5WcNnkO360DKAs5fJRtILAF6sXi7bGu9XBdvzgVXQYzuOlMry+WT8FWleVE91/fk2yffFveaMzSsJZeiQGSmeN6k6lTajyWfrmMrEd/san8VSgqerBf0fFnXocYDRs7b1hOz5NESxroY4wkd8g8Vac1ffWnnmMh4yyJ9YsFCGisnHcs0B9GiHULZu4adulAaCGF2GOzEL4FvGK51pAO6GNL5oDyMhMVXUxBg5uCqCrLiX6ByW5Xemb9JmG7aS29guFRZXRfKaIpftJrrTYTbM9762wzW2NnPsZwRfXdAP+uhhsNNy2n1yRpgo3dWx7OI5g3KTlH4+odBUjFCg/pFwsQ0Fg571gCBfrzLHmd46qcjHZdOhCFWAhZQq5r88AWaCo2j9bpx9Ro/Zatpx84Ih9b1HQZx/EOO2KCbVdOdJypDblqKHCbqc2GtfQKSJLpc+jqlFPHVCP0tulKTyBDQzf1UBSlzuh/dsCMhhuX02uW9E6SPmw4p4+d6ctP+WVVCO1xrcIUCxDQWDnvWM1R7eMMR9A0p+1vHToQNSE4oZ2BD2yBlmIpaQapHwt9ahiYuziMLvDariKgVoAVDUdlDp3dcmqTWUsvBxZpHYDrwuS34Jhn6BgAYcDVsCj6yn6womM5PV4SxTLdlGN7Hx+hwMY+5I/VvgL981ZhioUIaKqcfyzAKGOfmlQZhqqbsEsHjRU702K16dKe4Bbgi0HrV5NPw/0djP441F0cXxfkQq4iRL0AJxp2b6rRNwtr3wZI1o8HoF6mggVoTRdVYFN5To2SdhCLulpNSkXRFLYqJahXUS9vWE6vQRL6pBOgwaDFfkbyxftqAJyBGxQwxQIFsJXjj0U2ofZmN0KuecKiXYeCQkj+xedABRuK0QlNs1L0NeHc+RVWF9huSSlW2bpohElt1rcFilAnQb1cX8mBAs5U0BVyVaCH/Yw3ur0JBOWi8Braj1coRsPw6f7TMM2S7BU2oEXNVevDmdZGSSWxTLFAAWzl+GOx6T4nDfMzV7xdhwKc2hkRzqKlBCrYWQzS7NI4RR7K6FLYJsEqWxcNE9fh/bbA/KjtvLX0oEspaUFdrKHpu+rGT1LXNZ2mXBRO2h+Ywy9Y6+aW02uRVO5wbrq6P8c56pcUYu1pmWKBAtjKNRyLC2VsTi8SY2yiVYeCPk5tLYPk6XJhCnYXQ3pDAxOAoibP4XQpHAdglfXaZoRT334hWAQR9AP837MZGKbLZFzsJLCbRuSgcGmlolC7lpUR6DquXtisu79OSQb6vdokuNrI+u0+R2nClykWKKC8J68cfyxtul6E66Ir165DARrbiaXcj84YqGBnMTqfMTqEM1uU0YU6QHFepoAvGi0C41Q7stMbgmZm19LTLtnF44m7FgBO3+5GHLVHlYoiJWEWt4Lm7mLh+Pq97k5JBsprcIWTZOE8QAEuqUtamGKBAtjK8cei2ZwhOA/WoUMBTu3O6OwpUMHOYjifVaGIN4wu5YMblPXbptenFNMMmW4G2pFdS097d5cfQG5unvDbNnKgQLHliiI78S0ZV6htOb1OSQYmi8pBa7njmGKBAtjK8ccWV5cuubmb3a5DAc7oriGuvD4kUMHOYjifzT7xd6sBo0s1AWeV9dsGzOFy2TtWF0Pmh+DvRQid0lit4MhzXchvm05Scv980YKO5fS6JFmQWjV2vdxa2GKBAtjK8ccWV5cGHCZxb9ehAKe2s0+UCOuWD1SwsxiMxlxJ0t/uY3SBpk57wCnrt41mBIX9eY0rgPkxa+kR0Mpm4ahUrgv8to06ONJ58Lwo9SRGbfgFc4VwMhRwPdjRJcmCYkwv0VBruwlFpligALZy/LHI96wQ9F1zd6tDhxxYjgsFCNdGSqCCXcXIaEyngRB3KKMLdpV8GKes3zYGaFyeMLwanM9fS0+DGpousjoeC5nw29b8SylMXnRZLlqAv7uuyi2n1yXJgj7reungvZoslC4pVyxQAFs59ljK9+zVz0Nuhw45iNsuO8a5TbFABbuK5eZMQtyhjC5O+7G+7pyyNdFD98ADeQ+zdRtohJNLr4D4op3iPHs56ezmnXoMdLXZBfIMjMOH9MQMXzQnn1xFcbiNekrbKcmCxNumO6OjvQwOtDsuabSh45higQLYyrHHotWs+Y0z92hChw45CNaFjdg8JFDBrmLFeMHEm+EW9uXrQp2HJjqGJ50SccrWRM9dCfhXknszqCHruZgBjYM0M3pTc8hMe9FaqwbzoSoDnTaPjvRdeb5oDiKZnRnjl9PrkmQh90IdJX7P6vFbx4r+N30cUyxQAFs59lhcMTNTNTzlk7EdOuQg1pkpjWmmEutsAhXsKlYxxA/oT7oxuiBNgBlPT0Z1Ttma6HfXx17rPeJKYH6VtfQKIqig0FaoIVLeY+ba1c1tURg9mFUN2KIFS/xVtSyn1yXJAb+hUjSxyqrnN2fIxfrFAgWwlWOPRT3UYRq9LFN1cpepQwcHuR61eenHKLJzPTFQwY5ilH1abajH79VR//J1gRdVp1Ouul+gLpqu22wckYGuqypdCczPZLM+Y5pn3FO/QK+zM5LYcmPYCO2gyLsDrmgBxQyqMeCX0+uQlEMPKKFh1r4F0wNqezdz7hcLE1DaU6occ2xfpfN3MgWVlerToYOFZgFMY5Tftg9sgfZisDlnNBHM010cX5chdR+1yd2OV6AuekVDSiJ1Bnoj6mvpVXhx6+qN5ybTqdCfzYrGbSuKC9W1nF67pIL4teEcL/OyD/eLhQpwlCvnHduf4t9+PJtVbxV16aBBWFz0RvFyUjPMQAVD6xFN5yUBni7x66RyeGO75sTxfHHzT7kPbrSWXhsIN+wg/msCx1M12q8MvGxT7L0ZiO/84OYrEhUBUrj/WnpAhxvBgPysJdv5YkwwGLCb9wPhxuYrgj+V/JXBkPvujdFHuLGbAs0CeNPuXxYMuG/+BGEdhJv6/MEXhiYHbz1+/LTcfS09gHBTn/j/uoz17JmkwoIgCIIgCIIgCIIgCIIgCIIgCIIgCIIgCIIgCIIgCIIgCN+NXu//Tw1pFKbKCI0AAAAASUVORK5CYII=;rotation=0;" vertex="1" parent="1">
          <mxGeometry x="1856.5" y="266" width="110" height="20" as="geometry" />
        </mxCell>
        <mxCell id="hMHybNNGIAyjDT_4vl0r-230" value="" style="shape=image;verticalLabelPosition=bottom;labelBackgroundColor=default;verticalAlign=top;aspect=fixed;imageAspect=0;image=data:image/png,iVBORw0KGgoAAAANSUhEUgAAAn4AAAB0CAMAAAAsCs8dAAAAAXNSR0IArs4c6QAAAARnQU1BAACxjwv8YQUAAACcUExURQAAAAAAAAAAAAAAAAAAAAAAAAAAAAAAAAAAAAAAAAAAAAAAAAAAAAAAAAAAAAAAAAAAAAAAAAAAAAAAAAAAAAAAAAAAAAAAAAAAAAAAAAAAAAAAAAAAAAAAAAAAAAAAAAAAAAAAAAAAAAAAAAAAAAAAAAAAAAAAAAAAAAAAAAAAAAAAAAAAAAAAAAAAAAAAAAAAAAAAAAAAAAAAAPiNTN4AAAAzdFJOUwAECAoQFRgdICEoKzA2ODxAQkhQWF1gYmhweICHjY+XnZ+nr7K3v8fNz9ff4efu7/T3+RqzAWIAAAAJcEhZcwAAFxEAABcRAcom8z8AAA9CSURBVHhe7Z0Lm+q2EYaJSymhdOsCJQtsdgvkmAIhrqP//9/6jS6+aWyL6znLzvs8yTFe2TOSRzMj+aKeIAiCIAiCIAiCIAiCIAiCIAiCIAiCIAiOX5RSf/7D/hCEB/Pz7+p/f7XbgvBgot/V1m4KwqP5+Q+1spuC8Gj+qdTMbgrCo/lFUj/hu/HTb+q/f7HbFxLHqzi224JwDteOPKLlURFHieDC+WDkcY3hDPcqe3vpTQ9Kze0uQQjml6smnQcnlU30Rqayvt4lCOH82jryGCTJ0m6yJPmw+ZtS2g4FIRyMPNpSv6FSa7vJMVVqbzc3En2Fs+mYdO4wv71SU39TEALpmHRuN7+xUge7idxPjey2IATSMencbn4rpd7s5kLJneMnoL/aHTcDs71MwCWzIoOP/eEjsj/GOIk1knmSbsd6K3pLEh10f6VJ57/9Xe9kaDc/BFw73TzCwNecWfjEDHFFlUrMjyn9uMCnTFI6yTf7a4ttPSiIMDhV6qg3MWI1OR+Z37/+aBTSan74Y2qMfHRUqdz3+PREh9McEU29mJ8xNqv5/IAcok9lcmSqkukHjjSpGPIz9a631moxhWHS9AiGqdZx0dOm6j+Nd91azQ/jXm230SJVe0n8Pj+LDIZ3tI5Jm9/JbDlgDhwVE+nj6OiklLFJOL+ddlHDbNHrvWlbXKn9YJroWeKfflN//ps2eFrN713LmG9Paiuu7ykgHwITscEQ+TxMpkx/xeJPecD9aRuG80ttKjnEfzDoXe9FHUNvULSa3057UDjUb1aC8AQgplmft1bZpRd2qdQH/QvnVx68RJlK+8c0OFK2mR/OpciMx1Cz9daI8JkYIJoa73SyWdsFzI3dwPlVzQdjjp25S9tCSIjXntTe8kC6qm1deAaQ/GkDiS93fmR+ZLqJOroJGAMiez2g+4SZH1IDu4cyTZl2eRYQMLWFbC93fhTBkfvh/3YQ7cCend1spsgwMbrY200vw4Sa7i4vNsX9PQs2bxvng4aCKGbxczlExlUvOnoGPPIG06205X4llwcrddOMwmdnYjzUVr2a3yXCwiKA+c0RHmuh18z4nRHRW8wPf0rtJnk/O1UufHr62kNNuSh5lvkNMndPLGehDmc9mdJifrOSyeGkG7spfHow9uhHx4yZHjkn+M4+vIRsorawmjMyyhbzQ8B1zxtE6AF2plz4/CBCjlfXXVAMMRbqVJtdHmenwbh4QjSAFvMrPeAHkz4nogs/NgulltmhnradxRyZWeXp99G4NzxlCMaZNpVZ2ERxs/mRx7OhfZg2G6nw+cDYI6vPmJwJzK+aju3UW6rncxK6UztOw56kaTY/RHd7VznaIVcNvYsn/PjQfY8r59FgfqdyPKQ7ZCbpe8XGTu3D7KXZ/JY4jdpMRsMZovAh+C6e8AlIr3YnML/Kg6ovuUXrx/7M4y7dNJsfzTTjP+K0uipPEH4wRv6Mybm816ZtBnHs5oijeBEc2JvND/nesNePJ6tpLMb3VEQHm1VdziC74oZdiYib1CFgl/q5aeHp2Fz/1g7Gzpe8JBIOgrtMND8lb+pw7TiSHkGhp0vvx3vAgzPC5yJKXunCHq+2nMl5DxZcAIa78ojVkxGr4+qgwp9FbmRz77du+0pldlN4FuglN3W8wRxa5qaE70Usj7g8H1ul0vdb3D+Yr1b3nQhGR5FnDJ6O+Ba2JwiCIAiCIAiCIAiCIAiCIAiCwBPH8XLVtGbF3ZbTozd6V6v7PrRXQVez+l2Fh+sgePQTekuHffPnnsvpjbTYmzyyHERff1W6+mT9o3UQOOg1Hc773Xk5vSnEnvE9jKuZMNV8tA6CD71RzTxAcu/l9IYQ+9BvB0Be/UHXh+sgeIxK33Iqce/l9OIHv80zYOQ9WocrGMfXvZj/w4IIxDw7jL33XU5v8eC3eVAh76XKR+twBadn/cSgWUCgTukTO6XNGwKjfujbPCumEz1ah8tBgv6kD8AiyvpzK/dfTg+j6oe+zYNqeu84PVqHy/l41jESfR7Ff5EfvuK+y+khFcse+v2A1E/zHq7DxYxwkb77o+JNa+mVGL8n6S6ZR4OdSWrGb/tv2reNNvvjtuLEdNFvM6TfzBfxEHCtS2xaTq9R0nC9S5O8q0azTZLt/HWBkIqV3+ZhinULaK5c/Vjs0alff5WcNnkO360DKAs5fJRtILAF6sXi7bGu9XBdvzgVXQYzuOlMry+WT8FWleVE91/fk2yffFveaMzSsJZeiQGSmeN6k6lTajyWfrmMrEd/san8VSgqerBf0fFnXocYDRs7b1hOz5NESxroY4wkd8g8Vac1ffWnnmMh4yyJ9YsFCGisnHcs0B9GiHULZu4adulAaCGF2GOzEL4FvGK51pAO6GNL5oDyMhMVXUxBg5uCqCrLiX6ByW5Xemb9JmG7aS29guFRZXRfKaIpftJrrTYTbM9762wzW2NnPsZwRfXdAP+uhhsNNy2n1yRpgo3dWx7OI5g3KTlH4+odBUjFCg/pFwsQ0Fg571gCBfrzLHmd46qcjHZdOhCFWAhZQq5r88AWaCo2j9bpx9Ro/Zatpx84Ih9b1HQZx/EOO2KCbVdOdJypDblqKHCbqc2GtfQKSJLpc+jqlFPHVCP0tulKTyBDQzf1UBSlzuh/dsCMhhuX02uW9E6SPmw4p4+d6ctP+WVVCO1xrcIUCxDQWDnvWM1R7eMMR9A0p+1vHToQNSE4oZ2BD2yBlmIpaQapHwt9ahiYuziMLvDariKgVoAVDUdlDp3dcmqTWUsvBxZpHYDrwuS34Jhn6BgAYcDVsCj6yn6womM5PV4SxTLdlGN7Hx+hwMY+5I/VvgL981ZhioUIaKqcfyzAKGOfmlQZhqqbsEsHjRU702K16dKe4Bbgi0HrV5NPw/0djP441F0cXxfkQq4iRL0AJxp2b6rRNwtr3wZI1o8HoF6mggVoTRdVYFN5To2SdhCLulpNSkXRFLYqJahXUS9vWE6vQRL6pBOgwaDFfkbyxftqAJyBGxQwxQIFsJXjj0U2ofZmN0KuecKiXYeCQkj+xedABRuK0QlNs1L0NeHc+RVWF9huSSlW2bpohElt1rcFilAnQb1cX8mBAs5U0BVyVaCH/Yw3ur0JBOWi8Braj1coRsPw6f7TMM2S7BU2oEXNVevDmdZGSSWxTLFAAWzl+GOx6T4nDfMzV7xdhwKc2hkRzqKlBCrYWQzS7NI4RR7K6FLYJsEqWxcNE9fh/bbA/KjtvLX0oEspaUFdrKHpu+rGT1LXNZ2mXBRO2h+Ywy9Y6+aW02uRVO5wbrq6P8c56pcUYu1pmWKBAtjKNRyLC2VsTi8SY2yiVYeCPk5tLYPk6XJhCnYXQ3pDAxOAoibP4XQpHAdglfXaZoRT334hWAQR9AP837MZGKbLZFzsJLCbRuSgcGmlolC7lpUR6DquXtisu79OSQb6vdokuNrI+u0+R2nClykWKKC8J68cfyxtul6E66Ir165DARrbiaXcj84YqGBnMTqfMTqEM1uU0YU6QHFepoAvGi0C41Q7stMbgmZm19LTLtnF44m7FgBO3+5GHLVHlYoiJWEWt4Lm7mLh+Pq97k5JBsprcIWTZOE8QAEuqUtamGKBAtjK8cei2ZwhOA/WoUMBTu3O6OwpUMHOYjifVaGIN4wu5YMblPXbptenFNMMmW4G2pFdS097d5cfQG5unvDbNnKgQLHliiI78S0ZV6htOb1OSQYmi8pBa7njmGKBAtjK8ccWV5cuubmb3a5DAc7oriGuvD4kUMHOYjifzT7xd6sBo0s1AWeV9dsGzOFy2TtWF0Pmh+DvRQid0lit4MhzXchvm05Scv980YKO5fS6JFmQWjV2vdxa2GKBAtjK8ccWV5cGHCZxb9ehAKe2s0+UCOuWD1SwsxiMxlxJ0t/uY3SBpk57wCnrt41mBIX9eY0rgPkxa+kR0Mpm4ahUrgv8to06ONJ58Lwo9SRGbfgFc4VwMhRwPdjRJcmCYkwv0VBruwlFpligALZy/LHI96wQ9F1zd6tDhxxYjgsFCNdGSqCCXcXIaEyngRB3KKMLdpV8GKes3zYGaFyeMLwanM9fS0+DGpousjoeC5nw29b8SylMXnRZLlqAv7uuyi2n1yXJgj7reungvZoslC4pVyxQAFs59ljK9+zVz0Nuhw45iNsuO8a5TbFABbuK5eZMQtyhjC5O+7G+7pyyNdFD98ADeQ+zdRtohJNLr4D4op3iPHs56ezmnXoMdLXZBfIMjMOH9MQMXzQnn1xFcbiNekrbKcmCxNumO6OjvQwOtDsuabSh45higQLYyrHHotWs+Y0z92hChw45CNaFjdg8JFDBrmLFeMHEm+EW9uXrQp2HJjqGJ50SccrWRM9dCfhXknszqCHruZgBjYM0M3pTc8hMe9FaqwbzoSoDnTaPjvRdeb5oDiKZnRnjl9PrkmQh90IdJX7P6vFbx4r+N30cUyxQAFs59lhcMTNTNTzlk7EdOuQg1pkpjWmmEutsAhXsKlYxxA/oT7oxuiBNgBlPT0Z1Ttma6HfXx17rPeJKYH6VtfQKIqig0FaoIVLeY+ba1c1tURg9mFUN2KIFS/xVtSyn1yXJAb+hUjSxyqrnN2fIxfrFAgWwlWOPRT3UYRq9LFN1cpepQwcHuR61eenHKLJzPTFQwY5ilH1abajH79VR//J1gRdVp1Ouul+gLpqu22wckYGuqypdCczPZLM+Y5pn3FO/QK+zM5LYcmPYCO2gyLsDrmgBxQyqMeCX0+uQlEMPKKFh1r4F0wNqezdz7hcLE1DaU6occ2xfpfN3MgWVlerToYOFZgFMY5Tftg9sgfZisDlnNBHM010cX5chdR+1yd2OV6AuekVDSiJ1Bnoj6mvpVXhx6+qN5ybTqdCfzYrGbSuKC9W1nF67pIL4teEcL/OyD/eLhQpwlCvnHduf4t9+PJtVbxV16aBBWFz0RvFyUjPMQAVD6xFN5yUBni7x66RyeGO75sTxfHHzT7kPbrSWXhsIN+wg/msCx1M12q8MvGxT7L0ZiO/84OYrEhUBUrj/WnpAhxvBgPysJdv5YkwwGLCb9wPhxuYrgj+V/JXBkPvujdFHuLGbAs0CeNPuXxYMuG/+BGEdhJv6/MEXhiYHbz1+/LTcfS09gHBTn/j/uoz17JmkwoIgCIIgCIIgCIIgCIIgCIIgCIIgCIIgCIIgCIIgCIIgCN+NXu//Tw1pFKbKCI0AAAAASUVORK5CYII=;rotation=0;" vertex="1" parent="1">
          <mxGeometry x="2343.5" y="263" width="110" height="20" as="geometry" />
        </mxCell>
        <mxCell id="hMHybNNGIAyjDT_4vl0r-231" value="" style="shape=image;verticalLabelPosition=bottom;labelBackgroundColor=default;verticalAlign=top;aspect=fixed;imageAspect=0;image=data:image/png,iVBORw0KGgoAAAANSUhEUgAAAn4AAAB0CAMAAAAsCs8dAAAAAXNSR0IArs4c6QAAAARnQU1BAACxjwv8YQUAAACcUExURQAAAAAAAAAAAAAAAAAAAAAAAAAAAAAAAAAAAAAAAAAAAAAAAAAAAAAAAAAAAAAAAAAAAAAAAAAAAAAAAAAAAAAAAAAAAAAAAAAAAAAAAAAAAAAAAAAAAAAAAAAAAAAAAAAAAAAAAAAAAAAAAAAAAAAAAAAAAAAAAAAAAAAAAAAAAAAAAAAAAAAAAAAAAAAAAAAAAAAAAAAAAAAAAPiNTN4AAAAzdFJOUwAECAoQFRgdICEoKzA2ODxAQkhQWF1gYmhweICHjY+XnZ+nr7K3v8fNz9ff4efu7/T3+RqzAWIAAAAJcEhZcwAAFxEAABcRAcom8z8AAA9CSURBVHhe7Z0Lm+q2EYaJSymhdOsCJQtsdgvkmAIhrqP//9/6jS6+aWyL6znLzvs8yTFe2TOSRzMj+aKeIAiCIAiCIAiCIAiCIAiCIAiCIAiCIAiOX5RSf/7D/hCEB/Pz7+p/f7XbgvBgot/V1m4KwqP5+Q+1spuC8Gj+qdTMbgrCo/lFUj/hu/HTb+q/f7HbFxLHqzi224JwDteOPKLlURFHieDC+WDkcY3hDPcqe3vpTQ9Kze0uQQjml6smnQcnlU30Rqayvt4lCOH82jryGCTJ0m6yJPmw+ZtS2g4FIRyMPNpSv6FSa7vJMVVqbzc3En2Fs+mYdO4wv71SU39TEALpmHRuN7+xUge7idxPjey2IATSMencbn4rpd7s5kLJneMnoL/aHTcDs71MwCWzIoOP/eEjsj/GOIk1knmSbsd6K3pLEh10f6VJ57/9Xe9kaDc/BFw73TzCwNecWfjEDHFFlUrMjyn9uMCnTFI6yTf7a4ttPSiIMDhV6qg3MWI1OR+Z37/+aBTSan74Y2qMfHRUqdz3+PREh9McEU29mJ8xNqv5/IAcok9lcmSqkukHjjSpGPIz9a631moxhWHS9AiGqdZx0dOm6j+Nd91azQ/jXm230SJVe0n8Pj+LDIZ3tI5Jm9/JbDlgDhwVE+nj6OiklLFJOL+ddlHDbNHrvWlbXKn9YJroWeKfflN//ps2eFrN713LmG9Paiuu7ykgHwITscEQ+TxMpkx/xeJPecD9aRuG80ttKjnEfzDoXe9FHUNvULSa3057UDjUb1aC8AQgplmft1bZpRd2qdQH/QvnVx68RJlK+8c0OFK2mR/OpciMx1Cz9daI8JkYIJoa73SyWdsFzI3dwPlVzQdjjp25S9tCSIjXntTe8kC6qm1deAaQ/GkDiS93fmR+ZLqJOroJGAMiez2g+4SZH1IDu4cyTZl2eRYQMLWFbC93fhTBkfvh/3YQ7cCend1spsgwMbrY200vw4Sa7i4vNsX9PQs2bxvng4aCKGbxczlExlUvOnoGPPIG06205X4llwcrddOMwmdnYjzUVr2a3yXCwiKA+c0RHmuh18z4nRHRW8wPf0rtJnk/O1UufHr62kNNuSh5lvkNMndPLGehDmc9mdJifrOSyeGkG7spfHow9uhHx4yZHjkn+M4+vIRsorawmjMyyhbzQ8B1zxtE6AF2plz4/CBCjlfXXVAMMRbqVJtdHmenwbh4QjSAFvMrPeAHkz4nogs/NgulltmhnradxRyZWeXp99G4NzxlCMaZNpVZ2ERxs/mRx7OhfZg2G6nw+cDYI6vPmJwJzK+aju3UW6rncxK6UztOw56kaTY/RHd7VznaIVcNvYsn/PjQfY8r59FgfqdyPKQ7ZCbpe8XGTu3D7KXZ/JY4jdpMRsMZovAh+C6e8AlIr3YnML/Kg6ovuUXrx/7M4y7dNJsfzTTjP+K0uipPEH4wRv6Mybm816ZtBnHs5oijeBEc2JvND/nesNePJ6tpLMb3VEQHm1VdziC74oZdiYib1CFgl/q5aeHp2Fz/1g7Gzpe8JBIOgrtMND8lb+pw7TiSHkGhp0vvx3vAgzPC5yJKXunCHq+2nMl5DxZcAIa78ojVkxGr4+qgwp9FbmRz77du+0pldlN4FuglN3W8wRxa5qaE70Usj7g8H1ul0vdb3D+Yr1b3nQhGR5FnDJ6O+Ba2JwiCIAiCIAiCIAiCIAiCIAiCwBPH8XLVtGbF3ZbTozd6V6v7PrRXQVez+l2Fh+sgePQTekuHffPnnsvpjbTYmzyyHERff1W6+mT9o3UQOOg1Hc773Xk5vSnEnvE9jKuZMNV8tA6CD71RzTxAcu/l9IYQ+9BvB0Be/UHXh+sgeIxK33Iqce/l9OIHv80zYOQ9WocrGMfXvZj/w4IIxDw7jL33XU5v8eC3eVAh76XKR+twBadn/cSgWUCgTukTO6XNGwKjfujbPCumEz1ah8tBgv6kD8AiyvpzK/dfTg+j6oe+zYNqeu84PVqHy/l41jESfR7Ff5EfvuK+y+khFcse+v2A1E/zHq7DxYxwkb77o+JNa+mVGL8n6S6ZR4OdSWrGb/tv2reNNvvjtuLEdNFvM6TfzBfxEHCtS2xaTq9R0nC9S5O8q0azTZLt/HWBkIqV3+ZhinULaK5c/Vjs0alff5WcNnkO360DKAs5fJRtILAF6sXi7bGu9XBdvzgVXQYzuOlMry+WT8FWleVE91/fk2yffFveaMzSsJZeiQGSmeN6k6lTajyWfrmMrEd/san8VSgqerBf0fFnXocYDRs7b1hOz5NESxroY4wkd8g8Vac1ffWnnmMh4yyJ9YsFCGisnHcs0B9GiHULZu4adulAaCGF2GOzEL4FvGK51pAO6GNL5oDyMhMVXUxBg5uCqCrLiX6ByW5Xemb9JmG7aS29guFRZXRfKaIpftJrrTYTbM9762wzW2NnPsZwRfXdAP+uhhsNNy2n1yRpgo3dWx7OI5g3KTlH4+odBUjFCg/pFwsQ0Fg571gCBfrzLHmd46qcjHZdOhCFWAhZQq5r88AWaCo2j9bpx9Ro/Zatpx84Ih9b1HQZx/EOO2KCbVdOdJypDblqKHCbqc2GtfQKSJLpc+jqlFPHVCP0tulKTyBDQzf1UBSlzuh/dsCMhhuX02uW9E6SPmw4p4+d6ctP+WVVCO1xrcIUCxDQWDnvWM1R7eMMR9A0p+1vHToQNSE4oZ2BD2yBlmIpaQapHwt9ahiYuziMLvDariKgVoAVDUdlDp3dcmqTWUsvBxZpHYDrwuS34Jhn6BgAYcDVsCj6yn6womM5PV4SxTLdlGN7Hx+hwMY+5I/VvgL981ZhioUIaKqcfyzAKGOfmlQZhqqbsEsHjRU702K16dKe4Bbgi0HrV5NPw/0djP441F0cXxfkQq4iRL0AJxp2b6rRNwtr3wZI1o8HoF6mggVoTRdVYFN5To2SdhCLulpNSkXRFLYqJahXUS9vWE6vQRL6pBOgwaDFfkbyxftqAJyBGxQwxQIFsJXjj0U2ofZmN0KuecKiXYeCQkj+xedABRuK0QlNs1L0NeHc+RVWF9huSSlW2bpohElt1rcFilAnQb1cX8mBAs5U0BVyVaCH/Yw3ur0JBOWi8Braj1coRsPw6f7TMM2S7BU2oEXNVevDmdZGSSWxTLFAAWzl+GOx6T4nDfMzV7xdhwKc2hkRzqKlBCrYWQzS7NI4RR7K6FLYJsEqWxcNE9fh/bbA/KjtvLX0oEspaUFdrKHpu+rGT1LXNZ2mXBRO2h+Ywy9Y6+aW02uRVO5wbrq6P8c56pcUYu1pmWKBAtjKNRyLC2VsTi8SY2yiVYeCPk5tLYPk6XJhCnYXQ3pDAxOAoibP4XQpHAdglfXaZoRT334hWAQR9AP837MZGKbLZFzsJLCbRuSgcGmlolC7lpUR6DquXtisu79OSQb6vdokuNrI+u0+R2nClykWKKC8J68cfyxtul6E66Ir165DARrbiaXcj84YqGBnMTqfMTqEM1uU0YU6QHFepoAvGi0C41Q7stMbgmZm19LTLtnF44m7FgBO3+5GHLVHlYoiJWEWt4Lm7mLh+Pq97k5JBsprcIWTZOE8QAEuqUtamGKBAtjK8cei2ZwhOA/WoUMBTu3O6OwpUMHOYjifVaGIN4wu5YMblPXbptenFNMMmW4G2pFdS097d5cfQG5unvDbNnKgQLHliiI78S0ZV6htOb1OSQYmi8pBa7njmGKBAtjK8ccWV5cuubmb3a5DAc7oriGuvD4kUMHOYjifzT7xd6sBo0s1AWeV9dsGzOFy2TtWF0Pmh+DvRQid0lit4MhzXchvm05Scv980YKO5fS6JFmQWjV2vdxa2GKBAtjK8ccWV5cGHCZxb9ehAKe2s0+UCOuWD1SwsxiMxlxJ0t/uY3SBpk57wCnrt41mBIX9eY0rgPkxa+kR0Mpm4ahUrgv8to06ONJ58Lwo9SRGbfgFc4VwMhRwPdjRJcmCYkwv0VBruwlFpligALZy/LHI96wQ9F1zd6tDhxxYjgsFCNdGSqCCXcXIaEyngRB3KKMLdpV8GKes3zYGaFyeMLwanM9fS0+DGpousjoeC5nw29b8SylMXnRZLlqAv7uuyi2n1yXJgj7reungvZoslC4pVyxQAFs59ljK9+zVz0Nuhw45iNsuO8a5TbFABbuK5eZMQtyhjC5O+7G+7pyyNdFD98ADeQ+zdRtohJNLr4D4op3iPHs56ezmnXoMdLXZBfIMjMOH9MQMXzQnn1xFcbiNekrbKcmCxNumO6OjvQwOtDsuabSh45higQLYyrHHotWs+Y0z92hChw45CNaFjdg8JFDBrmLFeMHEm+EW9uXrQp2HJjqGJ50SccrWRM9dCfhXknszqCHruZgBjYM0M3pTc8hMe9FaqwbzoSoDnTaPjvRdeb5oDiKZnRnjl9PrkmQh90IdJX7P6vFbx4r+N30cUyxQAFs59lhcMTNTNTzlk7EdOuQg1pkpjWmmEutsAhXsKlYxxA/oT7oxuiBNgBlPT0Z1Ttma6HfXx17rPeJKYH6VtfQKIqig0FaoIVLeY+ba1c1tURg9mFUN2KIFS/xVtSyn1yXJAb+hUjSxyqrnN2fIxfrFAgWwlWOPRT3UYRq9LFN1cpepQwcHuR61eenHKLJzPTFQwY5ilH1abajH79VR//J1gRdVp1Ouul+gLpqu22wckYGuqypdCczPZLM+Y5pn3FO/QK+zM5LYcmPYCO2gyLsDrmgBxQyqMeCX0+uQlEMPKKFh1r4F0wNqezdz7hcLE1DaU6occ2xfpfN3MgWVlerToYOFZgFMY5Tftg9sgfZisDlnNBHM010cX5chdR+1yd2OV6AuekVDSiJ1Bnoj6mvpVXhx6+qN5ybTqdCfzYrGbSuKC9W1nF67pIL4teEcL/OyD/eLhQpwlCvnHduf4t9+PJtVbxV16aBBWFz0RvFyUjPMQAVD6xFN5yUBni7x66RyeGO75sTxfHHzT7kPbrSWXhsIN+wg/msCx1M12q8MvGxT7L0ZiO/84OYrEhUBUrj/WnpAhxvBgPysJdv5YkwwGLCb9wPhxuYrgj+V/JXBkPvujdFHuLGbAs0CeNPuXxYMuG/+BGEdhJv6/MEXhiYHbz1+/LTcfS09gHBTn/j/uoz17JmkwoIgCIIgCIIgCIIgCIIgCIIgCIIgCIIgCIIgCIIgCIIgCN+NXu//Tw1pFKbKCI0AAAAASUVORK5CYII=;rotation=0;" vertex="1" parent="1">
          <mxGeometry x="1903.6" y="608.5" width="110" height="20" as="geometry" />
        </mxCell>
        <mxCell id="hMHybNNGIAyjDT_4vl0r-232" value="" style="shape=image;verticalLabelPosition=bottom;labelBackgroundColor=default;verticalAlign=top;aspect=fixed;imageAspect=0;image=data:image/png,iVBORw0KGgoAAAANSUhEUgAAAn4AAAB0CAMAAAAsCs8dAAAAAXNSR0IArs4c6QAAAARnQU1BAACxjwv8YQUAAACcUExURQAAAAAAAAAAAAAAAAAAAAAAAAAAAAAAAAAAAAAAAAAAAAAAAAAAAAAAAAAAAAAAAAAAAAAAAAAAAAAAAAAAAAAAAAAAAAAAAAAAAAAAAAAAAAAAAAAAAAAAAAAAAAAAAAAAAAAAAAAAAAAAAAAAAAAAAAAAAAAAAAAAAAAAAAAAAAAAAAAAAAAAAAAAAAAAAAAAAAAAAAAAAAAAAPiNTN4AAAAzdFJOUwAECAoQFRgdICEoKzA2ODxAQkhQWF1gYmhweICHjY+XnZ+nr7K3v8fNz9ff4efu7/T3+RqzAWIAAAAJcEhZcwAAFxEAABcRAcom8z8AAA9CSURBVHhe7Z0Lm+q2EYaJSymhdOsCJQtsdgvkmAIhrqP//9/6jS6+aWyL6znLzvs8yTFe2TOSRzMj+aKeIAiCIAiCIAiCIAiCIAiCIAiCIAiCIAiOX5RSf/7D/hCEB/Pz7+p/f7XbgvBgot/V1m4KwqP5+Q+1spuC8Gj+qdTMbgrCo/lFUj/hu/HTb+q/f7HbFxLHqzi224JwDteOPKLlURFHieDC+WDkcY3hDPcqe3vpTQ9Kze0uQQjml6smnQcnlU30Rqayvt4lCOH82jryGCTJ0m6yJPmw+ZtS2g4FIRyMPNpSv6FSa7vJMVVqbzc3En2Fs+mYdO4wv71SU39TEALpmHRuN7+xUge7idxPjey2IATSMencbn4rpd7s5kLJneMnoL/aHTcDs71MwCWzIoOP/eEjsj/GOIk1knmSbsd6K3pLEh10f6VJ57/9Xe9kaDc/BFw73TzCwNecWfjEDHFFlUrMjyn9uMCnTFI6yTf7a4ttPSiIMDhV6qg3MWI1OR+Z37/+aBTSan74Y2qMfHRUqdz3+PREh9McEU29mJ8xNqv5/IAcok9lcmSqkukHjjSpGPIz9a631moxhWHS9AiGqdZx0dOm6j+Nd91azQ/jXm230SJVe0n8Pj+LDIZ3tI5Jm9/JbDlgDhwVE+nj6OiklLFJOL+ddlHDbNHrvWlbXKn9YJroWeKfflN//ps2eFrN713LmG9Paiuu7ykgHwITscEQ+TxMpkx/xeJPecD9aRuG80ttKjnEfzDoXe9FHUNvULSa3057UDjUb1aC8AQgplmft1bZpRd2qdQH/QvnVx68RJlK+8c0OFK2mR/OpciMx1Cz9daI8JkYIJoa73SyWdsFzI3dwPlVzQdjjp25S9tCSIjXntTe8kC6qm1deAaQ/GkDiS93fmR+ZLqJOroJGAMiez2g+4SZH1IDu4cyTZl2eRYQMLWFbC93fhTBkfvh/3YQ7cCend1spsgwMbrY200vw4Sa7i4vNsX9PQs2bxvng4aCKGbxczlExlUvOnoGPPIG06205X4llwcrddOMwmdnYjzUVr2a3yXCwiKA+c0RHmuh18z4nRHRW8wPf0rtJnk/O1UufHr62kNNuSh5lvkNMndPLGehDmc9mdJifrOSyeGkG7spfHow9uhHx4yZHjkn+M4+vIRsorawmjMyyhbzQ8B1zxtE6AF2plz4/CBCjlfXXVAMMRbqVJtdHmenwbh4QjSAFvMrPeAHkz4nogs/NgulltmhnradxRyZWeXp99G4NzxlCMaZNpVZ2ERxs/mRx7OhfZg2G6nw+cDYI6vPmJwJzK+aju3UW6rncxK6UztOw56kaTY/RHd7VznaIVcNvYsn/PjQfY8r59FgfqdyPKQ7ZCbpe8XGTu3D7KXZ/JY4jdpMRsMZovAh+C6e8AlIr3YnML/Kg6ovuUXrx/7M4y7dNJsfzTTjP+K0uipPEH4wRv6Mybm816ZtBnHs5oijeBEc2JvND/nesNePJ6tpLMb3VEQHm1VdziC74oZdiYib1CFgl/q5aeHp2Fz/1g7Gzpe8JBIOgrtMND8lb+pw7TiSHkGhp0vvx3vAgzPC5yJKXunCHq+2nMl5DxZcAIa78ojVkxGr4+qgwp9FbmRz77du+0pldlN4FuglN3W8wRxa5qaE70Usj7g8H1ul0vdb3D+Yr1b3nQhGR5FnDJ6O+Ba2JwiCIAiCIAiCIAiCIAiCIAiCwBPH8XLVtGbF3ZbTozd6V6v7PrRXQVez+l2Fh+sgePQTekuHffPnnsvpjbTYmzyyHERff1W6+mT9o3UQOOg1Hc773Xk5vSnEnvE9jKuZMNV8tA6CD71RzTxAcu/l9IYQ+9BvB0Be/UHXh+sgeIxK33Iqce/l9OIHv80zYOQ9WocrGMfXvZj/w4IIxDw7jL33XU5v8eC3eVAh76XKR+twBadn/cSgWUCgTukTO6XNGwKjfujbPCumEz1ah8tBgv6kD8AiyvpzK/dfTg+j6oe+zYNqeu84PVqHy/l41jESfR7Ff5EfvuK+y+khFcse+v2A1E/zHq7DxYxwkb77o+JNa+mVGL8n6S6ZR4OdSWrGb/tv2reNNvvjtuLEdNFvM6TfzBfxEHCtS2xaTq9R0nC9S5O8q0azTZLt/HWBkIqV3+ZhinULaK5c/Vjs0alff5WcNnkO360DKAs5fJRtILAF6sXi7bGu9XBdvzgVXQYzuOlMry+WT8FWleVE91/fk2yffFveaMzSsJZeiQGSmeN6k6lTajyWfrmMrEd/san8VSgqerBf0fFnXocYDRs7b1hOz5NESxroY4wkd8g8Vac1ffWnnmMh4yyJ9YsFCGisnHcs0B9GiHULZu4adulAaCGF2GOzEL4FvGK51pAO6GNL5oDyMhMVXUxBg5uCqCrLiX6ByW5Xemb9JmG7aS29guFRZXRfKaIpftJrrTYTbM9762wzW2NnPsZwRfXdAP+uhhsNNy2n1yRpgo3dWx7OI5g3KTlH4+odBUjFCg/pFwsQ0Fg571gCBfrzLHmd46qcjHZdOhCFWAhZQq5r88AWaCo2j9bpx9Ro/Zatpx84Ih9b1HQZx/EOO2KCbVdOdJypDblqKHCbqc2GtfQKSJLpc+jqlFPHVCP0tulKTyBDQzf1UBSlzuh/dsCMhhuX02uW9E6SPmw4p4+d6ctP+WVVCO1xrcIUCxDQWDnvWM1R7eMMR9A0p+1vHToQNSE4oZ2BD2yBlmIpaQapHwt9ahiYuziMLvDariKgVoAVDUdlDp3dcmqTWUsvBxZpHYDrwuS34Jhn6BgAYcDVsCj6yn6womM5PV4SxTLdlGN7Hx+hwMY+5I/VvgL981ZhioUIaKqcfyzAKGOfmlQZhqqbsEsHjRU702K16dKe4Bbgi0HrV5NPw/0djP441F0cXxfkQq4iRL0AJxp2b6rRNwtr3wZI1o8HoF6mggVoTRdVYFN5To2SdhCLulpNSkXRFLYqJahXUS9vWE6vQRL6pBOgwaDFfkbyxftqAJyBGxQwxQIFsJXjj0U2ofZmN0KuecKiXYeCQkj+xedABRuK0QlNs1L0NeHc+RVWF9huSSlW2bpohElt1rcFilAnQb1cX8mBAs5U0BVyVaCH/Yw3ur0JBOWi8Braj1coRsPw6f7TMM2S7BU2oEXNVevDmdZGSSWxTLFAAWzl+GOx6T4nDfMzV7xdhwKc2hkRzqKlBCrYWQzS7NI4RR7K6FLYJsEqWxcNE9fh/bbA/KjtvLX0oEspaUFdrKHpu+rGT1LXNZ2mXBRO2h+Ywy9Y6+aW02uRVO5wbrq6P8c56pcUYu1pmWKBAtjKNRyLC2VsTi8SY2yiVYeCPk5tLYPk6XJhCnYXQ3pDAxOAoibP4XQpHAdglfXaZoRT334hWAQR9AP837MZGKbLZFzsJLCbRuSgcGmlolC7lpUR6DquXtisu79OSQb6vdokuNrI+u0+R2nClykWKKC8J68cfyxtul6E66Ir165DARrbiaXcj84YqGBnMTqfMTqEM1uU0YU6QHFepoAvGi0C41Q7stMbgmZm19LTLtnF44m7FgBO3+5GHLVHlYoiJWEWt4Lm7mLh+Pq97k5JBsprcIWTZOE8QAEuqUtamGKBAtjK8cei2ZwhOA/WoUMBTu3O6OwpUMHOYjifVaGIN4wu5YMblPXbptenFNMMmW4G2pFdS097d5cfQG5unvDbNnKgQLHliiI78S0ZV6htOb1OSQYmi8pBa7njmGKBAtjK8ccWV5cuubmb3a5DAc7oriGuvD4kUMHOYjifzT7xd6sBo0s1AWeV9dsGzOFy2TtWF0Pmh+DvRQid0lit4MhzXchvm05Scv980YKO5fS6JFmQWjV2vdxa2GKBAtjK8ccWV5cGHCZxb9ehAKe2s0+UCOuWD1SwsxiMxlxJ0t/uY3SBpk57wCnrt41mBIX9eY0rgPkxa+kR0Mpm4ahUrgv8to06ONJ58Lwo9SRGbfgFc4VwMhRwPdjRJcmCYkwv0VBruwlFpligALZy/LHI96wQ9F1zd6tDhxxYjgsFCNdGSqCCXcXIaEyngRB3KKMLdpV8GKes3zYGaFyeMLwanM9fS0+DGpousjoeC5nw29b8SylMXnRZLlqAv7uuyi2n1yXJgj7reungvZoslC4pVyxQAFs59ljK9+zVz0Nuhw45iNsuO8a5TbFABbuK5eZMQtyhjC5O+7G+7pyyNdFD98ADeQ+zdRtohJNLr4D4op3iPHs56ezmnXoMdLXZBfIMjMOH9MQMXzQnn1xFcbiNekrbKcmCxNumO6OjvQwOtDsuabSh45higQLYyrHHotWs+Y0z92hChw45CNaFjdg8JFDBrmLFeMHEm+EW9uXrQp2HJjqGJ50SccrWRM9dCfhXknszqCHruZgBjYM0M3pTc8hMe9FaqwbzoSoDnTaPjvRdeb5oDiKZnRnjl9PrkmQh90IdJX7P6vFbx4r+N30cUyxQAFs59lhcMTNTNTzlk7EdOuQg1pkpjWmmEutsAhXsKlYxxA/oT7oxuiBNgBlPT0Z1Ttma6HfXx17rPeJKYH6VtfQKIqig0FaoIVLeY+ba1c1tURg9mFUN2KIFS/xVtSyn1yXJAb+hUjSxyqrnN2fIxfrFAgWwlWOPRT3UYRq9LFN1cpepQwcHuR61eenHKLJzPTFQwY5ilH1abajH79VR//J1gRdVp1Ouul+gLpqu22wckYGuqypdCczPZLM+Y5pn3FO/QK+zM5LYcmPYCO2gyLsDrmgBxQyqMeCX0+uQlEMPKKFh1r4F0wNqezdz7hcLE1DaU6occ2xfpfN3MgWVlerToYOFZgFMY5Tftg9sgfZisDlnNBHM010cX5chdR+1yd2OV6AuekVDSiJ1Bnoj6mvpVXhx6+qN5ybTqdCfzYrGbSuKC9W1nF67pIL4teEcL/OyD/eLhQpwlCvnHduf4t9+PJtVbxV16aBBWFz0RvFyUjPMQAVD6xFN5yUBni7x66RyeGO75sTxfHHzT7kPbrSWXhsIN+wg/msCx1M12q8MvGxT7L0ZiO/84OYrEhUBUrj/WnpAhxvBgPysJdv5YkwwGLCb9wPhxuYrgj+V/JXBkPvujdFHuLGbAs0CeNPuXxYMuG/+BGEdhJv6/MEXhiYHbz1+/LTcfS09gHBTn/j/uoz17JmkwoIgCIIgCIIgCIIgCIIgCIIgCIIgCIIgCIIgCIIgCIIgCN+NXu//Tw1pFKbKCI0AAAAASUVORK5CYII=;rotation=0;" vertex="1" parent="1">
          <mxGeometry x="2390.6" y="608.5" width="110" height="20" as="geometry" />
        </mxCell>
        <mxCell id="hMHybNNGIAyjDT_4vl0r-233" value="" style="endArrow=none;dashed=1;html=1;rounded=0;strokeWidth=1;" edge="1" parent="1">
          <mxGeometry width="50" height="50" relative="1" as="geometry">
            <mxPoint x="2490" y="406" as="sourcePoint" />
            <mxPoint x="2490" y="146" as="targetPoint" />
          </mxGeometry>
        </mxCell>
        <mxCell id="hMHybNNGIAyjDT_4vl0r-234" value="&lt;font style=&quot;font-size: 8px;&quot;&gt;Time&lt;/font&gt;" style="text;html=1;align=center;verticalAlign=middle;whiteSpace=wrap;rounded=0;" vertex="1" parent="1">
          <mxGeometry x="2500.6" y="155.5" width="40" height="20" as="geometry" />
        </mxCell>
        <mxCell id="hMHybNNGIAyjDT_4vl0r-235" value="&lt;font style=&quot;font-size: 8px;&quot;&gt;Flies&lt;/font&gt;" style="text;html=1;align=center;verticalAlign=middle;whiteSpace=wrap;rounded=0;" vertex="1" parent="1">
          <mxGeometry x="2500.6" y="175.5" width="40" height="20" as="geometry" />
        </mxCell>
        <mxCell id="hMHybNNGIAyjDT_4vl0r-236" value="&lt;font style=&quot;font-size: 8px;&quot;&gt;Like&lt;/font&gt;" style="text;html=1;align=center;verticalAlign=middle;whiteSpace=wrap;rounded=0;" vertex="1" parent="1">
          <mxGeometry x="2500.6" y="195.5" width="40" height="20" as="geometry" />
        </mxCell>
        <mxCell id="hMHybNNGIAyjDT_4vl0r-237" value="&lt;font style=&quot;font-size: 8px;&quot;&gt;An&lt;/font&gt;" style="text;html=1;align=center;verticalAlign=middle;whiteSpace=wrap;rounded=0;" vertex="1" parent="1">
          <mxGeometry x="2500.6" y="215.5" width="40" height="20" as="geometry" />
        </mxCell>
        <mxCell id="hMHybNNGIAyjDT_4vl0r-238" value="&lt;font style=&quot;font-size: 8px;&quot;&gt;Arrow&lt;/font&gt;" style="text;html=1;align=center;verticalAlign=middle;whiteSpace=wrap;rounded=0;" vertex="1" parent="1">
          <mxGeometry x="2500.6" y="235.5" width="40" height="20" as="geometry" />
        </mxCell>
        <mxCell id="hMHybNNGIAyjDT_4vl0r-239" value="&lt;font style=&quot;font-size: 8px;&quot;&gt;&amp;lt;PAD&amp;gt;&lt;/font&gt;" style="text;html=1;align=center;verticalAlign=middle;whiteSpace=wrap;rounded=0;" vertex="1" parent="1">
          <mxGeometry x="2500.6" y="255.5" width="40" height="20" as="geometry" />
        </mxCell>
        <mxCell id="hMHybNNGIAyjDT_4vl0r-240" value="&lt;font style=&quot;font-size: 8px;&quot;&gt;&amp;lt;PAD&amp;gt;&lt;/font&gt;" style="text;html=1;align=center;verticalAlign=middle;whiteSpace=wrap;rounded=0;" vertex="1" parent="1">
          <mxGeometry x="2500.6" y="275.5" width="40" height="20" as="geometry" />
        </mxCell>
        <mxCell id="hMHybNNGIAyjDT_4vl0r-241" value="&lt;font style=&quot;font-size: 8px;&quot;&gt;&amp;lt;PAD&amp;gt;&lt;/font&gt;" style="text;html=1;align=center;verticalAlign=middle;whiteSpace=wrap;rounded=0;" vertex="1" parent="1">
          <mxGeometry x="2500.6" y="295.5" width="40" height="20" as="geometry" />
        </mxCell>
        <mxCell id="hMHybNNGIAyjDT_4vl0r-242" value="" style="endArrow=none;dashed=1;html=1;dashPattern=1 3;strokeWidth=2;rounded=0;entryX=0.5;entryY=1;entryDx=0;entryDy=0;exitX=0.5;exitY=0;exitDx=0;exitDy=0;" edge="1" parent="1" source="hMHybNNGIAyjDT_4vl0r-243" target="hMHybNNGIAyjDT_4vl0r-241">
          <mxGeometry width="50" height="50" relative="1" as="geometry">
            <mxPoint x="2518.6" y="355.5" as="sourcePoint" />
            <mxPoint x="2528.6" y="335.5" as="targetPoint" />
          </mxGeometry>
        </mxCell>
        <mxCell id="hMHybNNGIAyjDT_4vl0r-243" value="&lt;font style=&quot;font-size: 8px;&quot;&gt;&amp;lt;PAD&amp;gt;&lt;/font&gt;" style="text;html=1;align=center;verticalAlign=middle;whiteSpace=wrap;rounded=0;" vertex="1" parent="1">
          <mxGeometry x="2500.6" y="355.5" width="40" height="20" as="geometry" />
        </mxCell>
        <mxCell id="hMHybNNGIAyjDT_4vl0r-244" value="&lt;font style=&quot;font-size: 8px;&quot;&gt;Time&lt;/font&gt;" style="text;html=1;align=center;verticalAlign=middle;whiteSpace=wrap;rounded=0;" vertex="1" parent="1">
          <mxGeometry x="2540.6" y="500.5" width="40" height="20" as="geometry" />
        </mxCell>
        <mxCell id="hMHybNNGIAyjDT_4vl0r-245" value="&lt;font style=&quot;font-size: 8px;&quot;&gt;Flies&lt;/font&gt;" style="text;html=1;align=center;verticalAlign=middle;whiteSpace=wrap;rounded=0;" vertex="1" parent="1">
          <mxGeometry x="2540.6" y="520.5" width="40" height="20" as="geometry" />
        </mxCell>
        <mxCell id="hMHybNNGIAyjDT_4vl0r-246" value="&lt;font style=&quot;font-size: 8px;&quot;&gt;Like&lt;/font&gt;" style="text;html=1;align=center;verticalAlign=middle;whiteSpace=wrap;rounded=0;" vertex="1" parent="1">
          <mxGeometry x="2540.6" y="540.5" width="40" height="20" as="geometry" />
        </mxCell>
        <mxCell id="hMHybNNGIAyjDT_4vl0r-247" value="&lt;font style=&quot;font-size: 8px;&quot;&gt;An&lt;/font&gt;" style="text;html=1;align=center;verticalAlign=middle;whiteSpace=wrap;rounded=0;" vertex="1" parent="1">
          <mxGeometry x="2540.6" y="560.5" width="40" height="20" as="geometry" />
        </mxCell>
        <mxCell id="hMHybNNGIAyjDT_4vl0r-248" value="&lt;font style=&quot;font-size: 8px;&quot;&gt;Arrow&lt;/font&gt;" style="text;html=1;align=center;verticalAlign=middle;whiteSpace=wrap;rounded=0;" vertex="1" parent="1">
          <mxGeometry x="2540.6" y="580.5" width="40" height="20" as="geometry" />
        </mxCell>
        <mxCell id="hMHybNNGIAyjDT_4vl0r-249" value="&lt;font style=&quot;font-size: 8px;&quot;&gt;&amp;lt;PAD&amp;gt;&lt;/font&gt;" style="text;html=1;align=center;verticalAlign=middle;whiteSpace=wrap;rounded=0;" vertex="1" parent="1">
          <mxGeometry x="2540.6" y="600.5" width="40" height="20" as="geometry" />
        </mxCell>
        <mxCell id="hMHybNNGIAyjDT_4vl0r-250" value="&lt;font style=&quot;font-size: 8px;&quot;&gt;&amp;lt;PAD&amp;gt;&lt;/font&gt;" style="text;html=1;align=center;verticalAlign=middle;whiteSpace=wrap;rounded=0;" vertex="1" parent="1">
          <mxGeometry x="2540.6" y="620.5" width="40" height="20" as="geometry" />
        </mxCell>
        <mxCell id="hMHybNNGIAyjDT_4vl0r-251" value="&lt;font style=&quot;font-size: 8px;&quot;&gt;&amp;lt;PAD&amp;gt;&lt;/font&gt;" style="text;html=1;align=center;verticalAlign=middle;whiteSpace=wrap;rounded=0;" vertex="1" parent="1">
          <mxGeometry x="2540.6" y="640.5" width="40" height="20" as="geometry" />
        </mxCell>
        <mxCell id="hMHybNNGIAyjDT_4vl0r-252" value="" style="endArrow=none;dashed=1;html=1;dashPattern=1 3;strokeWidth=2;rounded=0;entryX=0.5;entryY=1;entryDx=0;entryDy=0;exitX=0.5;exitY=0;exitDx=0;exitDy=0;" edge="1" parent="1" source="hMHybNNGIAyjDT_4vl0r-253" target="hMHybNNGIAyjDT_4vl0r-251">
          <mxGeometry width="50" height="50" relative="1" as="geometry">
            <mxPoint x="2558.6" y="700.5" as="sourcePoint" />
            <mxPoint x="2568.6" y="680.5" as="targetPoint" />
          </mxGeometry>
        </mxCell>
        <mxCell id="hMHybNNGIAyjDT_4vl0r-253" value="&lt;font style=&quot;font-size: 8px;&quot;&gt;&amp;lt;PAD&amp;gt;&lt;/font&gt;" style="text;html=1;align=center;verticalAlign=middle;whiteSpace=wrap;rounded=0;" vertex="1" parent="1">
          <mxGeometry x="2540.6" y="700.5" width="40" height="20" as="geometry" />
        </mxCell>
        <mxCell id="hMHybNNGIAyjDT_4vl0r-254" value="" style="endArrow=none;dashed=1;html=1;rounded=0;strokeWidth=1;" edge="1" parent="1">
          <mxGeometry width="50" height="50" relative="1" as="geometry">
            <mxPoint x="2530" y="744.5" as="sourcePoint" />
            <mxPoint x="2530" y="484.5" as="targetPoint" />
          </mxGeometry>
        </mxCell>
        <mxCell id="hMHybNNGIAyjDT_4vl0r-255" value="" style="rounded=0;whiteSpace=wrap;html=1;fillColor=#bac8d3;strokeColor=#23445d;" vertex="1" parent="1">
          <mxGeometry x="2580.6" y="506.5" width="120" height="10" as="geometry" />
        </mxCell>
        <mxCell id="hMHybNNGIAyjDT_4vl0r-256" value="" style="rounded=0;whiteSpace=wrap;html=1;fillColor=#b0e3e6;strokeColor=#0e8088;" vertex="1" parent="1">
          <mxGeometry x="2580.6" y="525.5" width="120" height="10" as="geometry" />
        </mxCell>
        <mxCell id="hMHybNNGIAyjDT_4vl0r-257" value="" style="rounded=0;whiteSpace=wrap;html=1;fillColor=#fad7ac;strokeColor=#b46504;" vertex="1" parent="1">
          <mxGeometry x="2580.6" y="545.76" width="120" height="10" as="geometry" />
        </mxCell>
        <mxCell id="hMHybNNGIAyjDT_4vl0r-258" value="" style="rounded=0;whiteSpace=wrap;html=1;fillColor=#d5e8d4;strokeColor=#82b366;" vertex="1" parent="1">
          <mxGeometry x="2580.6" y="564.76" width="120" height="10" as="geometry" />
        </mxCell>
        <mxCell id="hMHybNNGIAyjDT_4vl0r-259" value="" style="rounded=0;whiteSpace=wrap;html=1;fillColor=#ffe6cc;strokeColor=#d79b00;" vertex="1" parent="1">
          <mxGeometry x="2580.6" y="587.5" width="120" height="10" as="geometry" />
        </mxCell>
        <mxCell id="hMHybNNGIAyjDT_4vl0r-260" value="" style="rounded=0;whiteSpace=wrap;html=1;fillColor=#dae8fc;strokeColor=#6c8ebf;" vertex="1" parent="1">
          <mxGeometry x="2580.6" y="606.5" width="120" height="10" as="geometry" />
        </mxCell>
        <mxCell id="hMHybNNGIAyjDT_4vl0r-261" value="" style="rounded=0;whiteSpace=wrap;html=1;fillColor=#dae8fc;strokeColor=#6c8ebf;" vertex="1" parent="1">
          <mxGeometry x="2580.6" y="626.76" width="120" height="10" as="geometry" />
        </mxCell>
        <mxCell id="hMHybNNGIAyjDT_4vl0r-262" value="" style="rounded=0;whiteSpace=wrap;html=1;fillColor=#dae8fc;strokeColor=#6c8ebf;" vertex="1" parent="1">
          <mxGeometry x="2580.6" y="645.76" width="120" height="10" as="geometry" />
        </mxCell>
        <mxCell id="hMHybNNGIAyjDT_4vl0r-263" value="" style="rounded=0;whiteSpace=wrap;html=1;fillColor=#dae8fc;strokeColor=#6c8ebf;" vertex="1" parent="1">
          <mxGeometry x="2580.6" y="705.5" width="120" height="10" as="geometry" />
        </mxCell>
        <mxCell id="hMHybNNGIAyjDT_4vl0r-264" value="" style="rounded=0;whiteSpace=wrap;html=1;fillColor=#dae8fc;strokeColor=#6c8ebf;" vertex="1" parent="1">
          <mxGeometry x="2540.6" y="162.45999999999998" width="120" height="10" as="geometry" />
        </mxCell>
        <mxCell id="hMHybNNGIAyjDT_4vl0r-265" value="" style="rounded=0;whiteSpace=wrap;html=1;fillColor=#ffe6cc;strokeColor=#d79b00;" vertex="1" parent="1">
          <mxGeometry x="2540.6" y="181.45999999999998" width="120" height="10" as="geometry" />
        </mxCell>
        <mxCell id="hMHybNNGIAyjDT_4vl0r-266" value="" style="rounded=0;whiteSpace=wrap;html=1;fillColor=#f8cecc;strokeColor=#b85450;" vertex="1" parent="1">
          <mxGeometry x="2540.6" y="201.71999999999997" width="120" height="10" as="geometry" />
        </mxCell>
        <mxCell id="hMHybNNGIAyjDT_4vl0r-267" value="" style="rounded=0;whiteSpace=wrap;html=1;fillColor=#f5f5f5;fontColor=#333333;strokeColor=#666666;" vertex="1" parent="1">
          <mxGeometry x="2540.6" y="220.71999999999997" width="120" height="10" as="geometry" />
        </mxCell>
        <mxCell id="hMHybNNGIAyjDT_4vl0r-268" value="" style="rounded=0;whiteSpace=wrap;html=1;fillColor=#e1d5e7;strokeColor=#9673a6;" vertex="1" parent="1">
          <mxGeometry x="2540.6" y="243.45999999999998" width="120" height="10" as="geometry" />
        </mxCell>
        <mxCell id="hMHybNNGIAyjDT_4vl0r-269" value="" style="rounded=0;whiteSpace=wrap;html=1;fillColor=#b0e3e6;strokeColor=#0e8088;" vertex="1" parent="1">
          <mxGeometry x="2540.6" y="262.46" width="120" height="10" as="geometry" />
        </mxCell>
        <mxCell id="hMHybNNGIAyjDT_4vl0r-270" value="" style="rounded=0;whiteSpace=wrap;html=1;fillColor=#b0e3e6;strokeColor=#0e8088;" vertex="1" parent="1">
          <mxGeometry x="2540.6" y="282.71999999999997" width="120" height="10" as="geometry" />
        </mxCell>
        <mxCell id="hMHybNNGIAyjDT_4vl0r-271" value="" style="rounded=0;whiteSpace=wrap;html=1;fillColor=#b0e3e6;strokeColor=#0e8088;" vertex="1" parent="1">
          <mxGeometry x="2540.6" y="301.71999999999997" width="120" height="10" as="geometry" />
        </mxCell>
        <mxCell id="hMHybNNGIAyjDT_4vl0r-272" value="" style="rounded=0;whiteSpace=wrap;html=1;fillColor=#b0e3e6;strokeColor=#0e8088;" vertex="1" parent="1">
          <mxGeometry x="2540.6" y="361.46" width="120" height="10" as="geometry" />
        </mxCell>
        <mxCell id="hMHybNNGIAyjDT_4vl0r-273" value="" style="shape=flexArrow;endArrow=classic;html=1;rounded=0;fillColor=#a0522d;strokeColor=#6D1F00;" edge="1" parent="1">
          <mxGeometry width="50" height="50" relative="1" as="geometry">
            <mxPoint x="2680" y="269.57" as="sourcePoint" />
            <mxPoint x="2750" y="269.57" as="targetPoint" />
          </mxGeometry>
        </mxCell>
        <mxCell id="hMHybNNGIAyjDT_4vl0r-274" value="&lt;b&gt;To the next Encoder&lt;/b&gt;" style="text;html=1;align=center;verticalAlign=middle;whiteSpace=wrap;rounded=0;" vertex="1" parent="1">
          <mxGeometry x="2750" y="230" width="140" height="84" as="geometry" />
        </mxCell>
        <mxCell id="hMHybNNGIAyjDT_4vl0r-275" value="" style="shape=flexArrow;endArrow=classic;html=1;rounded=0;fillColor=#a0522d;strokeColor=#6D1F00;" edge="1" parent="1">
          <mxGeometry width="50" height="50" relative="1" as="geometry">
            <mxPoint x="2710" y="616.0699999999999" as="sourcePoint" />
            <mxPoint x="2780" y="616.0699999999999" as="targetPoint" />
          </mxGeometry>
        </mxCell>
        <mxCell id="hMHybNNGIAyjDT_4vl0r-276" value="&lt;b&gt;To the next Encoder&lt;/b&gt;" style="text;html=1;align=center;verticalAlign=middle;whiteSpace=wrap;rounded=0;" vertex="1" parent="1">
          <mxGeometry x="2780" y="576.5" width="140" height="84" as="geometry" />
        </mxCell>
      </root>
    </mxGraphModel>
  </diagram>
</mxfile>
